<?xml version="1.0" encoding="utf-8"?>
<!-- Generator: Adobe Illustrator 19.1.0, SVG Export Plug-In . SVG Version: 6.00 Build 0)  -->
<svg version="1.1" id="Layer_1" xmlns="http://www.w3.org/2000/svg" xmlns:xlink="http://www.w3.org/1999/xlink" x="0px" y="0px"
	 width="16px" height="16px" viewBox="0 0 16 16" style="enable-background:new 0 0 16 16;" xml:space="preserve">
<style type="text/css">
	.st0{fill:#A14944;}
</style>
<path class="st0" d="M15,7L15,7c-0.5-3.1-2.9-5.5-6-5.9V1c0-0.6-0.4-1-1-1S7,0.4,7,1v0.1C3.9,1.5,1.5,3.9,1.1,7H1C0.4,7,0,7.4,0,8
	s0.4,1,1,1h0.1c0.4,3.1,2.9,5.5,5.9,5.9V15c0,0.6,0.4,1,1,1s1-0.4,1-1v-0.1c3.1-0.4,5.5-2.9,5.9-5.9H15c0.6,0,1-0.4,1-1S15.6,7,15,7
	z M13.9,7h-2.1C11.5,5.6,10.4,4.5,9,4.1V2.1C11.5,2.5,13.5,4.5,13.9,7z M10,9h0.8c-0.3,0.8-1,1.5-1.8,1.8V10c0-0.6-0.4-1-1-1
	s-1,0.4-1,1v0.8c-0.8-0.3-1.5-1-1.8-1.8H6c0.6,0,1-0.4,1-1S6.6,7,6,7H5.2c0.3-0.8,1-1.5,1.8-1.8V6c0,0.6,0.4,1,1,1s1-0.4,1-1V5.2
	c0.8,0.3,1.5,1,1.8,1.8H10C9.4,7,9,7.4,9,8S9.4,9,10,9z M7,2.1v2.1C5.6,4.5,4.5,5.6,4.1,7H2.1C2.5,4.5,4.5,2.5,7,2.1z M2.1,9h2.1
	c0.4,1.4,1.5,2.5,2.9,2.9v2.1C4.5,13.5,2.5,11.5,2.1,9z M9,13.9v-2.1c1.4-0.4,2.5-1.5,2.9-2.9h2.1C13.5,11.5,11.5,13.5,9,13.9z"/>
</svg>
