<?xml version="1.0" encoding="utf-8"?>
<!-- Generator: Adobe Illustrator 19.1.0, SVG Export Plug-In . SVG Version: 6.00 Build 0)  -->
<svg version="1.1" id="Layer_1" xmlns="http://www.w3.org/2000/svg" xmlns:xlink="http://www.w3.org/1999/xlink" x="0px" y="0px"
	 width="16px" height="16px" viewBox="0 0 16 16" style="enable-background:new 0 0 16 16;" xml:space="preserve">
<style type="text/css">
	.st0{fill:#A14944;}
</style>
<g>
	<path class="st0" d="M8.5,9.5C8.5,9.2,8.3,9,8,9H7.5C6.7,9,6,8.3,6,7.5V5c0-0.3-0.2-0.5-0.5-0.5S5,4.7,5,5v2.5C5,8.9,6.1,10,7.5,10
		H8C8.3,10,8.5,9.8,8.5,9.5z"/>
	<path class="st0" d="M12,15H9v-2c0,0,0-0.1,0-0.1c2-0.4,3.6-2.1,3.9-4.1L16.5,4H13V3h1V2c0-1.1-0.9-2-2-2H4C2.9,0,2,0.9,2,2v1h1v1
		h-3.5l3.6,4.8C3.4,10.8,5,12.5,7,12.9c0,0,0,0.1,0,0.1v2H4.1c-0.3,0-0.5,0.2-0.5,0.5S3.8,16,4.1,16H12c0.3,0,0.5-0.2,0.5-0.5
		S12.2,15,12,15z M14.5,5L13,7V5H14.5z M4,1h8c0.6,0,1,0.4,1,1h-1H4H3C3,1.4,3.4,1,4,1z M3,5v2L1.5,5H3z M4,8V3h8v5c0,2.2-1.8,4-4,4
		S4,10.2,4,8z"/>
</g>
</svg>
