<?xml version="1.0" encoding="utf-8"?>
<!-- Generator: Adobe Illustrator 19.1.0, SVG Export Plug-In . SVG Version: 6.00 Build 0)  -->
<svg version="1.1" id="Layer_1" xmlns="http://www.w3.org/2000/svg" xmlns:xlink="http://www.w3.org/1999/xlink" x="0px" y="0px"
	 width="24px" height="24px" viewBox="0 0 24 24" style="enable-background:new 0 0 24 24;" xml:space="preserve">
<style type="text/css">
	.st0{fill:#A14944;}
	.st1{fill:none;stroke:#3B4167;stroke-width:8;stroke-linecap:round;stroke-miterlimit:10;}
</style>
<g>
	<path class="st0" d="M16.4,2.9c-0.5-0.2-1.1,0-1.3,0.5c-0.2,0.5,0,1.1,0.5,1.3C18.9,6.2,21,9.4,21,13c0,5-4,9-9,9c-5,0-9-4-9-9
		c0-3.6,2.1-6.8,5.4-8.3c0.5-0.2,0.7-0.8,0.5-1.3C8.7,2.9,8.1,2.7,7.6,2.9C3.6,4.7,1,8.6,1,13c0,6.1,4.9,11,11,11s11-4.9,11-11
		C23,8.6,20.4,4.7,16.4,2.9z"/>
	<path class="st0" d="M12,14c0.6,0,1-0.4,1-1V1c0-0.6-0.4-1-1-1s-1,0.4-1,1v12C11,13.6,11.4,14,12,14z"/>
</g>
<path class="st1" d="M12,13"/>
<path class="st1" d="M12,1"/>
</svg>
