<?xml version="1.0" encoding="utf-8"?>
<!-- Generator: Adobe Illustrator 19.1.0, SVG Export Plug-In . SVG Version: 6.00 Build 0)  -->
<svg version="1.1" id="Layer_1" xmlns="http://www.w3.org/2000/svg" xmlns:xlink="http://www.w3.org/1999/xlink" x="0px" y="0px"
	 width="24px" height="24px" viewBox="0 0 24 24" style="enable-background:new 0 0 24 24;" xml:space="preserve">
<style type="text/css">
	.st0{fill:none;stroke:#A14944;stroke-linecap:round;stroke-miterlimit:10;}
</style>
<path class="st0" d="M10.5,12V5c0-0.8-0.7-1.5-1.5-1.5h0C8.2,3.5,7.5,4.2,7.5,5v4"/>
<path class="st0" d="M13.5,12V2c0-0.8-0.7-1.5-1.5-1.5h0c-0.8,0-1.5,0.7-1.5,1.5v3.5"/>
<path class="st0" d="M16.5,13V4c0-0.8-0.7-1.5-1.5-1.5h0c-0.8,0-1.5,0.7-1.5,1.5v3"/>
<path class="st0" d="M17,6.5h0.5c1.1,0,2,0.9,2,2V16c0,4.1-3.4,7.5-7.5,7.5h0c-4.1,0-7.5-3.4-7.5-7.5v-6c0-0.8,0.7-1.5,1.5-1.5h0
	c0.8,0,1.5,0.7,1.5,1.5v4.5h0c2.2,0,4,1.8,4,4V20"/>
</svg>
