<?xml version="1.0" encoding="utf-8"?>
<!-- Generator: Adobe Illustrator 19.1.0, SVG Export Plug-In . SVG Version: 6.00 Build 0)  -->
<svg version="1.1" id="Layer_1" xmlns="http://www.w3.org/2000/svg" xmlns:xlink="http://www.w3.org/1999/xlink" x="0px" y="0px"
	 width="48px" height="48px" viewBox="0 0 48 48" style="enable-background:new 0 0 48 48;" xml:space="preserve">
<style type="text/css">
	.st0{fill:#A14944;}
</style>
<g>
	<path class="st0" d="M12.3,16.5h-6c-0.6,0-1,0.4-1,1v4c0,0.6,0.4,1,1,1h6c0.6,0,1-0.4,1-1v-4C13.3,16.9,12.8,16.5,12.3,16.5z
		 M12.3,21.5h-6v-4h6V21.5z"/>
	<circle class="st0" cx="14.3" cy="15.5" r="1"/>
	<path class="st0" d="M47.5,19c0-2-1-3.6-2.4-4.2c-0.4-5.3-1.4-12.3-2.9-12.3c-1.9,0-10,12-22,12c-0.9,0-2-0.2-2-1s0-2-2-2
		c-4.1,0-9,0-11,0c-3.4,0-3,2.1-3,3c0,1-2,0.1-2,3c0,2,0,2,0,4s2,1.1,2,3c0,1.8,1.2,2,2,2s1,0.4,1,1c0,0.6,0,1,0,3c0,0.9,1.9,2,3,2
		c0.8,0,5,13,8,13c1,0,5-4.1,5-5c0-0.9-0.9-1-2-1s-4-4.9-4-6c0-0.9,0.7-1,0.9-1c0,0,0.1,0,0.1,0c0.5,0,1,0,1-1c0-1.9-2-0.1-2-2
		c0-0.9,0-2,1-2c0.8,0,2-0.2,2-1s1-1,2-1c15,0,19,11,22,11c2.3,0,2.8-7.5,3-13.3C46.5,22.6,47.5,20.9,47.5,19z M2.3,21.3v-3.8
		c0-0.2,0-0.4,0-0.5c0,0,0.1,0,0.1,0c0.3-0.1,0.6-0.3,0.9-0.5V22C2.9,21.7,2.5,21.4,2.3,21.3z M8.3,30.5c-0.2,0-0.7-0.2-1-0.5v-2.5
		c0-0.4-0.1-0.7-0.1-1h7c-0.3,0.4-0.6,1-0.7,1.9l-4.9,2.2C8.4,30.5,8.3,30.5,8.3,30.5C8.3,30.5,8.3,30.5,8.3,30.5z M18.3,41.3
		c-0.7,0.7-1.5,1.6-2.1,2c-1.3-1.3-3.3-5.9-4.2-8c-1-2.3-1.6-3.6-2.3-4.3l3.5-1.6c0,0,0,0,0,0c0,0.5,0.1,1.4,0.7,2
		c-0.4,0.5-0.7,1.2-0.7,2C13.3,34.9,15.8,40.2,18.3,41.3z M6.6,25.5c-0.5-0.6-1.3-1-2.3-1v-10c0-0.1,0-0.2,0-0.3c0-0.1,0-0.4,0-0.5
		c0.1,0,0.4-0.1,1-0.1h11v12H6.6z M17.3,24.4v-8.8c0.5,0.4,1.1,0.7,2,0.8v7.1C18.3,23.7,17.7,24,17.3,24.4z M20.3,23.5v-7
		c8.2,0,14.7-5.1,18.7-8.8c0.4,2.1,1.3,6.8,1.3,10.8c0,3.8-0.8,9.7-1.2,12.8C35.6,28,30.1,23.5,20.3,23.5z M42,34.2
		c-0.5-0.4-1.1-1-1.7-1.6c-0.1-0.1-0.2-0.2-0.4-0.4c0.4-2.8,1.3-9.6,1.3-13.7c0-4.4-1-9.8-1.4-11.5c0.2-0.2,0.5-0.4,0.7-0.6
		c0.4-0.4,0.8-0.8,1.2-1.1c0.8,2.6,1.5,8.8,1.5,13.3C43.3,29.3,42.5,33,42,34.2z M45.2,22c0-1.4,0-2.6,0-3.5c0-0.7,0-1.6-0.1-2.5
		c0.8,0.6,1.3,1.7,1.3,3C46.5,20.3,46,21.4,45.2,22z"/>
</g>
</svg>
