<?xml version="1.0" encoding="utf-8"?>
<!-- Generator: Adobe Illustrator 19.1.0, SVG Export Plug-In . SVG Version: 6.00 Build 0)  -->
<svg version="1.1" id="Layer_1" xmlns="http://www.w3.org/2000/svg" xmlns:xlink="http://www.w3.org/1999/xlink" x="0px" y="0px"
	 width="48px" height="48px" viewBox="0 0 48 48" style="enable-background:new 0 0 48 48;" xml:space="preserve">
<style type="text/css">
	.st0{fill:#A14944;}
</style>
<g>
	<path class="st0" d="M41,24.2c0-2.4-0.1-7-2-7c0-0.9-0.1-4-3-4c-1.8,0-7.1-6-15-6c-19.1,0-20,17.1-20,20c-0.9,0-1,1-1,2.1
		c0,1.8,0.3,3.9,4,3.9c0.1,0,0.3,0,0.6,0L2,35.8c-0.8,0.8-0.8,2,0,2.8l2.6,2.6C5,41.6,5.5,41.8,6,41.8s1-0.2,1.4-0.6l8-8
		c4.1,0,8.3,0,10.6,0c10.9,0,9.1,2,16,2c3.9,0,5.9,0,5.9-2C48,31,41,32.2,41,24.2z M39,24.2h-1.5c-1.9,0-3.5-1.6-3.5-3.5
		c0-0.8,0.7-1.5,1.5-1.5H37v0h1.5C38.7,19.7,39,21,39,24.2z M3,27.2c0-3,0.9-18,18-18c4.7,0,8.5,2.5,11.1,4.2
		c1.7,1.1,2.7,1.8,3.9,1.8c0.4,0,1,0,1,2v1h-1.5c-1.4,0-2.5,1.1-2.5,2.5c0,2.5,2,4.5,4.5,4.5h1.5c0.1,1.2,0.3,2.1,0.6,3H29v-4.5
		c0-0.8-0.7-1.5-1.5-1.5h-1c-0.8,0-1.5,0.7-1.5,1.5v4.5h-2v-3.5c0-1.4-1.1-2.5-2.5-2.5h-6c-1.4,0-2.5,1.1-2.5,2.5v3.5h-2v-4.5
		c0-0.8-0.7-1.5-1.5-1.5h-1c-0.8,0-1.5,0.7-1.5,1.5v4.5H3V27.2z M28,28.2h-2v-4.5c0-0.3,0.2-0.5,0.5-0.5h1c0.3,0,0.5,0.2,0.5,0.5
		V28.2z M22,28.2h-9v-3.5c0-0.8,0.7-1.5,1.5-1.5h6c0.8,0,1.5,0.7,1.5,1.5V28.2z M9,28.2H7v-4.5c0-0.3,0.2-0.5,0.5-0.5h1
		c0.3,0,0.5,0.2,0.5,0.5V28.2z M6,39.8l-2.6-2.6l4-4c1.5,0,3.3,0,5.2,0L6,39.8z M42,33.2c-2.8,0-3.9-0.3-5.3-0.7
		c-2-0.6-4.3-1.3-10.7-1.3H4c-2,0-2-0.4-2-1.9c0,0,0-0.1,0-0.1h1v0h37.1c1.2,2.2,3,3.3,4.5,4C43.8,33.2,42.9,33.2,42,33.2z"/>
	<path class="st0" d="M11.5,19.7c0.3,0,0.5-0.2,0.5-0.5v-0.5c0-1.9,1.6-3.5,3.5-3.5h4c1.9,0,3.5,1.6,3.5,3.5v0.5
		c0,0.3,0.2,0.5,0.5,0.5s0.5-0.2,0.5-0.5v-0.5c0-2.5-2-4.5-4.5-4.5h-4c-2.5,0-4.5,2-4.5,4.5v0.5C11,19.5,11.3,19.7,11.5,19.7z"/>
</g>
</svg>
