<?xml version="1.0" encoding="utf-8"?>
<!-- Generator: Adobe Illustrator 19.1.0, SVG Export Plug-In . SVG Version: 6.00 Build 0)  -->
<svg version="1.1" id="Layer_1" xmlns="http://www.w3.org/2000/svg" xmlns:xlink="http://www.w3.org/1999/xlink" x="0px" y="0px"
	 width="32px" height="32px" viewBox="0 0 32 32" style="enable-background:new 0 0 32 32;" xml:space="preserve">
<style type="text/css">
	.st0{fill:#A14944;}
</style>
<g>
	<path class="st0" d="M26,5.5h-2v2c0,1.1-0.9,2-2,2s-2-0.9-2-2v-2h-8v2c0,1.1-0.9,2-2,2s-2-0.9-2-2v-2H6c-2.2,0-4,1.8-4,4v18
		c0,1.1,0.9,2,2,2h24c1.1,0,2-0.9,2-2v-18C30,7.3,28.2,5.5,26,5.5z M28,17.5h-4v-4h4V17.5z M23,17.5h-4v-4h4V17.5z M18,17.5h-4v-4h4
		V17.5z M13,17.5H9v-4h4V17.5z M8,17.5H4v-4h4V17.5z M4,18.5h4v4H4V18.5z M9,18.5h4v4H9V18.5z M14,18.5h4v4h-4V18.5z M19,18.5h4v4
		h-4V18.5z M24,18.5h4v4h-4V18.5z M4,9.5c0-1.1,0.9-2,2-2c0,2.2,1.8,4,4,4s4-1.8,4-4h4c0,2.2,1.8,4,4,4s4-1.8,4-4c1.1,0,2,0.9,2,2v3
		H4V9.5z M4,27.5v-4h4v4H4z M9,27.5v-4h4v4H9z M14,27.5v-4h4v4H14z M19,27.5v-4h4v4H19z M28,27.5h-4v-4h4V27.5z"/>
	<path class="st0" d="M10,7.5c0.6,0,1-0.4,1-1v-4c0-0.6-0.4-1-1-1s-1,0.4-1,1v4C9,7.1,9.4,7.5,10,7.5z"/>
	<path class="st0" d="M22,7.5c0.6,0,1-0.4,1-1v-4c0-0.6-0.4-1-1-1s-1,0.4-1,1v4C21,7.1,21.4,7.5,22,7.5z"/>
</g>
</svg>
