<?xml version="1.0" encoding="utf-8"?>
<!-- Generator: Adobe Illustrator 19.1.0, SVG Export Plug-In . SVG Version: 6.00 Build 0)  -->
<svg version="1.1" id="Layer_1" xmlns="http://www.w3.org/2000/svg" xmlns:xlink="http://www.w3.org/1999/xlink" x="0px" y="0px"
	 width="48px" height="48px" viewBox="0 0 48 48" style="enable-background:new 0 0 48 48;" xml:space="preserve">
<style type="text/css">
	.st0{fill:#A14944;}
</style>
<path class="st0" d="M47.6,25.4l-1-1.7c-1.3-2.2-3.6-3.7-6.1-4l-3.8-0.4c-1.6-0.2-3.2-0.7-4.6-1.5l-4.2-2.3c-1.8-1-3.8-1.5-5.8-1.5
	h-2.6c-5.1,0-10.2,1.2-14.8,3.5l-1,0.5H3c-1.7,0-3,1.3-3,3v6c0,1.7,1.3,3,3,3h2c0.1,0,0.2,0,0.3-0.1C5.8,31.7,7.5,33,9.5,33
	c2,0,3.6-1.3,4.2-3h20.6c0.6,1.7,2.3,3,4.2,3c2,0,3.6-1.3,4.2-3l3.1-0.2l0.3-0.1c0.8-0.3,1.5-1,1.8-1.8
	C48.2,27.1,48.1,26.1,47.6,25.4z M44.1,23.5c-1.8-0.1-4-0.4-5-1.4c-0.2-0.2-0.3-0.4-0.4-0.7l1.7,0.2C41.7,21.8,43.1,22.5,44.1,23.5z
	 M31.1,19.6c0.4,0.2,0.8,0.4,1.3,0.6c-1.2,0.5-2.5,0.8-3.8,0.8l-5.4,0c0,0-0.1,0-0.3,0v-4.9c1.4,0.1,2.8,0.5,4,1.2L31.1,19.6z
	 M22,16v4.9c-2.6-0.2-8.7-0.8-12.2-1.1c-0.9-0.1-1.6-0.6-2-1.4c3.7-1.5,7.8-2.3,11.8-2.3H22z M2,21c0-0.6,0.4-1,1-1h1.2L5,19.6
	C4.9,20.9,3.8,22,2.5,22H2V21z M9.5,31C8.1,31,7,29.9,7,28.5C7,27.1,8.1,26,9.5,26s2.5,1.1,2.5,2.5C12,29.9,10.8,31,9.5,31z M9.5,24
	c-2.3,0-4.2,1.8-4.5,4c0,0,0,0,0,0H3c-0.6,0-1-0.4-1-1v-4h0.5C4.4,23,6,21.4,6,19.5v-0.4c0.3-0.1,0.6-0.3,0.8-0.4
	c0.5,1.1,1.6,1.9,2.8,2c3.9,0.4,9.8,0.9,12.3,1.1V28h-8.1C13.7,25.8,11.8,24,9.5,24z M38.5,31c-1.4,0-2.5-1.1-2.5-2.5
	c0-1.4,1.1-2.5,2.5-2.5c1.4,0,2.5,1.1,2.5,2.5C41,29.9,39.8,31,38.5,31z M46,27.2c-0.1,0.1-0.2,0.4-0.5,0.6l-2.6,0.2
	c-0.3-2.2-2.2-3.9-4.4-3.9c-2.3,0-4.2,1.8-4.4,4H23v-6c0.1,0,0.2,0,0.2,0h5.4c1.6,0,3.2-0.4,4.7-1.1l0.4-0.2
	c0.9,0.3,1.9,0.5,2.8,0.6l1,0.1c0.1,0.6,0.3,1.1,0.8,1.5c1.5,1.4,4.7,1.6,6.5,1.7c0,0,0,0.1,0.1,0.1l1,1.7C46.1,26.7,46,27,46,27.2z
	"/>
</svg>
