<?xml version="1.0" encoding="utf-8"?>
<!-- Generator: Adobe Illustrator 19.1.0, SVG Export Plug-In . SVG Version: 6.00 Build 0)  -->
<svg version="1.1" id="Layer_1" xmlns="http://www.w3.org/2000/svg" xmlns:xlink="http://www.w3.org/1999/xlink" x="0px" y="0px"
	 width="32px" height="32px" viewBox="0 0 32 32" style="enable-background:new 0 0 32 32;" xml:space="preserve">
<style type="text/css">
	.st0{fill:#A14944;}
</style>
<g>
	<path class="st0" d="M30.3,11.5c-0.2-0.5-0.7-0.8-1.3-0.7c-0.5,0.2-0.8,0.7-0.7,1.3c0.4,1.2,0.6,2.6,0.6,3.9c0,7.2-5.8,13-13,13
		C8.8,29,3,23.2,3,16C3,8.8,8.8,3,16,3c2.2,0,4.4,0.6,6.3,1.6c0.5,0.3,1.1,0.1,1.4-0.4c0.3-0.5,0.1-1.1-0.4-1.4C21,1.6,18.5,1,16,1
		C7.7,1,1,7.7,1,16c0,8.3,6.7,15,15,15c8.3,0,15-6.7,15-15C31,14.5,30.8,13,30.3,11.5z"/>
	<path class="st0" d="M8.8,14.4c-0.3-0.4-1-0.5-1.4-0.2c-0.4,0.3-0.5,1-0.2,1.4l6.2,7.9c0.4,0.5,1,0.8,1.6,0.8c0,0,0,0,0.1,0
		c0.6,0,1.2-0.3,1.6-0.9L30.8,3.6c0.3-0.4,0.2-1.1-0.2-1.4c-0.4-0.3-1.1-0.2-1.4,0.2L14.9,22.3L8.8,14.4z"/>
</g>
</svg>
