<?xml version="1.0" encoding="utf-8"?>
<!-- Generator: Adobe Illustrator 19.1.0, SVG Export Plug-In . SVG Version: 6.00 Build 0)  -->
<svg version="1.1" id="Layer_1" xmlns="http://www.w3.org/2000/svg" xmlns:xlink="http://www.w3.org/1999/xlink" x="0px" y="0px"
	 width="48px" height="48px" viewBox="0 0 48 48" style="enable-background:new 0 0 48 48;" xml:space="preserve">
<style type="text/css">
	.st0{fill:#A14944;}
</style>
<g>
	<path class="st0" d="M31,13.1c0,0,0-0.1,0-0.1c0-2.2-1.8-4-4-4V6.6C27.6,5.9,28,5,28,4c0-2.2-1.8-4-4-4c-2.2,0-4,1.8-4,4
		c0,1,0.4,1.9,1,2.6V9c-2.2,0-4,1.8-4,4c0,0,0,0.1,0,0.1c-1.7,0.4-3,2-3,3.9v23c0,4.4,3.6,8,8,8h4c4.4,0,8-3.6,8-8V17
		C34,15.1,32.7,13.6,31,13.1z M22.9,5.7C22.8,5.5,22,4.7,22,4c0-1.1,0.9-2,2-2c1.1,0,2,0.9,2,2c0,0.6-0.3,1.2-0.7,1.5
		C24.9,5.8,25,7.9,25,7.9V9h-2l0-1C23,8,23.1,5.9,22.9,5.7z M21,11h6c1.1,0,2,0.9,2,2H19C19,11.9,19.9,11,21,11z M32,40
		c0,3.3-2.7,6-6,6h-4c-3.3,0-6-2.7-6-6V17c0-1.1,0.9-2,2-2h12c1.1,0,2,0.9,2,2V40z"/>
	<path class="st0" d="M19.5,18H23c0.3,0,0.5-0.2,0.5-0.5S23.3,17,23,17h-3.5c-0.8,0-1.5,0.7-1.5,1.5V38c0,2.9,1.8,6,5,6
		c0.3,0,0.5-0.2,0.5-0.5S23.3,43,23,43c-2.3,0-3.6-1.9-3.9-4H23c0.3,0,0.5-0.2,0.5-0.5S23.3,38,23,38h-4v-2h4c0.3,0,0.5-0.2,0.5-0.5
		S23.3,35,23,35h-4v-2h4c0.3,0,0.5-0.2,0.5-0.5S23.3,32,23,32h-4v-2h4c0.3,0,0.5-0.2,0.5-0.5S23.3,29,23,29h-4v-2h4
		c0.3,0,0.5-0.2,0.5-0.5S23.3,26,23,26h-4v-2h4c0.3,0,0.5-0.2,0.5-0.5S23.3,23,23,23h-4v-2h4c0.3,0,0.5-0.2,0.5-0.5S23.3,20,23,20
		h-4v-1.5C19,18.2,19.2,18,19.5,18z"/>
</g>
</svg>
