<?xml version="1.0" encoding="utf-8"?>
<!-- Generator: Adobe Illustrator 19.1.0, SVG Export Plug-In . SVG Version: 6.00 Build 0)  -->
<svg version="1.1" id="Layer_1" xmlns="http://www.w3.org/2000/svg" xmlns:xlink="http://www.w3.org/1999/xlink" x="0px" y="0px"
	 width="48px" height="48px" viewBox="0 0 48 48" style="enable-background:new 0 0 48 48;" xml:space="preserve">
<style type="text/css">
	.st0{fill:#A14944;}
</style>
<g>
	<path class="st0" d="M32.4,26.2c-3.1-2.7-6.8-7.6-6.9-15c0.6-0.5,1-1.3,1-2.2V7h2c0,11.5,4.2,14.7,4.4,14.8
		c0.2,0.1,0.4,0.2,0.6,0.2c0.3,0,0.6-0.1,0.8-0.4c0.3-0.4,0.2-1.1-0.2-1.4c0,0-3.6-2.9-3.6-13.2h3c0.6,0,1-0.4,1-1V1
		c0-0.6-0.4-1-1-1h-19c-1.7,0-3,1.3-3,3v1c0,1.3,0.9,2.4,2,2.8c0,0.1,0,0.1,0,0.2v2c0,0.5,0.1,1,0.3,1.4c-1.4,0.6-2.3,2-2.3,3.6v31
		c0,1.7,1.3,3,3,3h18c1.7,0,3-1.3,3-3V33C35.5,30.4,34.4,28,32.4,26.2z M24.5,9c0,0.6-0.4,1-1,1h-7c-0.6,0-1-0.4-1-1V7h9V9z M13.5,3
		c0-0.6,0.4-1,1-1h18v3h-18c-0.6,0-1-0.4-1-1V3z M33.5,45c0,0.6-0.4,1-1,1h-18c-0.6,0-1-0.4-1-1V14c0-1.1,0.9-2,2-2h1h7c0,0,0,0,0,0
		c0.3,8.2,4.8,13.3,7.6,15.7c1.5,1.3,2.4,3.3,2.4,5.3V45z"/>
	<path class="st0" d="M36.5,1c-0.6,0-1,0.4-1,1v3c0,0.6,0.4,1,1,1s1-0.4,1-1V2C37.5,1.4,37.1,1,36.5,1z"/>
	<path class="st0" d="M17,14.5c-0.3,0-0.5,0.2-0.5,0.5v28c0,0.3,0.2,0.5,0.5,0.5s0.5-0.2,0.5-0.5V15C17.5,14.7,17.3,14.5,17,14.5z"
		/>
</g>
</svg>
