<?xml version="1.0" encoding="utf-8"?>
<!-- Generator: Adobe Illustrator 19.1.0, SVG Export Plug-In . SVG Version: 6.00 Build 0)  -->
<svg version="1.1" id="Layer_1" xmlns="http://www.w3.org/2000/svg" xmlns:xlink="http://www.w3.org/1999/xlink" x="0px" y="0px"
	 width="32px" height="32px" viewBox="0 0 32 32" style="enable-background:new 0 0 32 32;" xml:space="preserve">
<style type="text/css">
	.st0{fill:#A14944;}
</style>
<g>
	<path class="st0" d="M16,1C7.7,1,1,7.7,1,16c0,8.3,6.7,15,15,15s15-6.7,15-15C31,7.7,24.3,1,16,1z M16,29C8.8,29,3,23.2,3,16
		S8.8,3,16,3s13,5.8,13,13S23.2,29,16,29z"/>
	<path class="st0" d="M16,25c-5,0-9-4-9-9c0-2.9,1.4-5.6,3.7-7.3C11,8.5,11,8.2,10.8,8c-0.2-0.2-0.5-0.3-0.7-0.1
		C7.6,9.8,6,12.8,6,16c0,5.5,4.5,10,10,10c0.3,0,0.5-0.2,0.5-0.5S16.3,25,16,25z"/>
	<path class="st0" d="M17,15.6V6c0-0.6-0.4-1-1-1s-1,0.4-1,1v10c0,0.1,0,0.3,0.1,0.4c0.1,0.1,0.1,0.2,0.2,0.3l5,5
		c0.2,0.2,0.5,0.3,0.7,0.3s0.5-0.1,0.7-0.3c0.4-0.4,0.4-1,0-1.4L17,15.6z"/>
</g>
</svg>
