<?xml version="1.0" encoding="utf-8"?>
<!-- Generator: Adobe Illustrator 19.1.0, SVG Export Plug-In . SVG Version: 6.00 Build 0)  -->
<svg version="1.1" id="Layer_1" xmlns="http://www.w3.org/2000/svg" xmlns:xlink="http://www.w3.org/1999/xlink" x="0px" y="0px"
	 width="48px" height="48px" viewBox="0 0 48 48" style="enable-background:new 0 0 48 48;" xml:space="preserve">
<style type="text/css">
	.st0{fill:#A14944;}
</style>
<g>
	<path class="st0" d="M23.5,25c9.7,0,19.5-2.1,19.5-6c0-2.6-4.1-4.1-7.6-4.9C34.3,8.8,31.7,2,28,2c-2.9,0-3.9,1.4-4.5,2.4
		C22.9,3.4,21.9,2,19,2c-3.7,0-6.3,6.8-7.4,12.1C8.1,14.9,4,16.4,4,19C4,22.9,13.8,25,23.5,25z M13.8,13.7c1.6,0.4,5.3,1.3,9.7,1.3
		c4.5,0,8.2-0.8,9.8-1.3c0.5,2,0.7,3.9,0.7,5.5c0,0.1,0,0.2,0.1,0.3c-1.7,0.4-6.1,1.3-10.6,1.3c-4.5,0-8.8-0.9-10.6-1.3
		c0-0.1,0.1-0.2,0.1-0.3C13,17.7,13.3,15.7,13.8,13.7z M19,4c2,0,2.5,0.9,2.9,1.7C22.2,6.2,22.6,7,23.5,7c0.9,0,1.3-0.8,1.6-1.3
		C25.5,4.9,26,4,28,4c1.9,0,3.9,4.3,5,8.8c-1.6,0.4-5.2,1.2-9.5,1.2c-4.3,0-7.9-0.8-9.5-1.2C15.2,8.3,17.2,4,19,4z M11.3,16.3
		c-0.2,1.2-0.3,2.2-0.3,2.9c0,0.4,0.3,0.8,0.7,0.9c0.1,0,0.1,0.1,0.2,0.1c0.1,0,5.7,1.5,11.6,1.5s11.6-1.5,11.6-1.5
		c0.1,0,0.1-0.1,0.2-0.1c0.4-0.1,0.7-0.5,0.7-0.9c0-0.7-0.1-1.8-0.3-2.9c3.8,0.9,5.3,2.1,5.3,2.7c0,1.4-6.2,4-17.5,4
		C12.2,23,6,20.4,6,19C6,18.4,7.4,17.2,11.3,16.3z"/>
	<path class="st0" d="M42.9,39.2C42.2,37,38.8,35,32,35c-1.7,0-3.8-1.9-5.6-3.6c-2-1.8-3.7-3.4-5.4-3.4c-1.6,0-2.7,0.9-3.8,1.8
		C15.8,30.9,14.4,32,12,32c-1.7,0-1.8-0.3-2-0.7C9.8,30.9,9.5,30,8,30c-2.5,0-4,1.5-4,4c0,2.2,0.3,3.1,0.7,3.7C4,38.7,4,40.4,4,42.7
		L4,43c0,2.1,1.8,2.9,3,3h7c1.8,0,2.5-1.5,2.9-2.4c0.1-0.2,0.2-0.4,0.3-0.6c0.4,0,0.7,0.2,1.3,0.6c1.6,1,4,2.4,12.5,2.4
		c6.9,0,13-1.9,13-4C44,40.3,43.5,39.5,42.9,39.2z M41,40l0,0.3c-1.2,0.3-3.8,0.7-9,0.7c-4.4,0-6.6-0.7-8.8-1.5
		c-1.9-0.6-3.9-1.3-7.2-1.5c0,0,0,0,0-0.1c0-0.7,0.3-3,4-3c1.1,0,2.6,0.9,3.9,1.8c1.6,1,3,2,4.1,1.4c0.6-0.3,0.9-1,1-2.1
		c1,0.6,2,1,3.1,1C38.1,37,41,38.8,41,40z M8.1,32c0,0,0,0.1,0,0.1C8.7,33.3,9.5,34,12,34c3.2,0,5-1.5,6.4-2.6
		c1-0.8,1.7-1.4,2.6-1.4c0.9,0,2.6,1.5,4,2.8c1,0.9,2,1.8,3,2.5c0,1.4-0.4,1.8-0.5,1.9c-0.5,0.3-1.9-0.6-3-1.3c-1.5-1-3-1.9-4.4-1.9
		c-3.7,0-5,2.2-5,4c0,0,0,0,0,0c-0.3,0-0.6,0-1,0h-2c0-1.3-0.9-1.7-1.7-2.1C9.2,35.4,8,34.8,8,32C8.1,32,8.1,32,8.1,32z M7,32.2
		c0.1,3.3,1.7,4.1,2.9,4.6c0.8,0.4,1.1,0.6,1.1,1.2H7c0-0.7-0.4-1.1-0.5-1.3C6.3,36.6,6,36.3,6,34C6,33,6.3,32.4,7,32.2z M31,44
		c-7.9,0-10.1-1.3-11.5-2.1C18.8,41.4,18.1,41,17,41c-1,0-1.5,0.9-1.9,1.7C14.7,43.6,14.4,44,14,44l-6.9,0C6.8,44,6,43.8,6,43l0-0.3
		c0-0.8,0-3,0.3-3.7H7h7c4.4,0,6.6,0.7,8.8,1.5c2.3,0.8,4.6,1.5,9.2,1.5c6.4,0,9.1-0.7,9.9-0.9c0,0.1,0.1,0.3,0.1,0.7
		C41.3,42.4,37.7,44,31,44z"/>
</g>
</svg>
