<?xml version="1.0" encoding="utf-8"?>
<!-- Generator: Adobe Illustrator 19.1.0, SVG Export Plug-In . SVG Version: 6.00 Build 0)  -->
<svg version="1.1" id="Layer_1" xmlns="http://www.w3.org/2000/svg" xmlns:xlink="http://www.w3.org/1999/xlink" x="0px" y="0px"
	 width="32px" height="32px" viewBox="0 0 32 32" style="enable-background:new 0 0 32 32;" xml:space="preserve">
<style type="text/css">
	.st0{fill:#A14944;}
</style>
<g>
	<path class="st0" d="M27.8,10.1c-0.7-1.5-1.3-2.8-1.3-5.1c0-3-4.9-3-10-3c-2.1,0-3.3,0.6-4.3,1.1C11.2,3.6,10.3,4,8.5,4h-4
		c-1.1,0-2,0.9-2,2v9c0,1.1,0.9,2,2,2h3.3c0.5,1,1.8,1.9,3.2,2.9c2,1.5,4.5,3.3,4.5,5.1c0,0.3-0.2,0.9-0.4,1.3c-0.4,1-0.8,2.1-0.2,3
		c0.2,0.3,0.7,0.7,1.7,0.7c1.1,0,2.6,0,3.8-1c1.4-1.1,2.1-3.1,2.1-6c0-0.7-0.3-1.3-0.6-1.9c-0.2-0.3-0.3-0.7-0.4-0.9
		c0.2-0.1,0.8-0.2,2-0.2c4,0,6-1,6-3C29.5,13.7,28.6,11.8,27.8,10.1z M4.5,15V6h4v9H4.5z M23.5,18c-1.1,0-4,0-4,2
		c0,0.7,0.3,1.4,0.6,2c0.2,0.4,0.4,0.8,0.4,1c0,2.3-0.4,3.8-1.3,4.5C18.5,28,17.5,28,16.7,28c0.1-0.3,0.2-0.7,0.3-1
		c0.3-0.7,0.5-1.4,0.5-2c0-2.8-3-4.9-5.3-6.7c-1-0.7-2.6-1.9-2.7-2.3v-1V6c1.6-0.1,2.6-0.6,3.5-1.1C14,4.4,14.8,4,16.5,4
		c5.3,0,8,0.3,8,1c0,2.6,0.8,4.3,1.5,5.9c0.8,1.7,1.5,3.2,1.5,6.1C27.5,17.3,26.8,18,23.5,18z"/>
	<path class="st0" d="M22.5,7.4c0-0.4,0-0.8-0.3-1.1C22,6.1,21.8,6,21.5,6C21.2,6,21,6.2,21,6.5C21,6.8,21.2,7,21.5,7
		c0,0.1,0,0.3,0,0.5c0,1.2,0.4,1.9,0.9,2.6c0.5,0.9,1.1,1.9,1.1,4.4c0,0.5-0.1,0.5-0.5,0.5c-0.3,0-0.5,0.2-0.5,0.5S22.7,16,23,16
		c1.2,0,1.5-0.8,1.5-1.5c0-2.7-0.7-3.9-1.3-4.9C22.8,9,22.5,8.4,22.5,7.4z"/>
</g>
</svg>
