<?xml version="1.0" encoding="utf-8"?>
<!-- Generator: Adobe Illustrator 19.1.0, SVG Export Plug-In . SVG Version: 6.00 Build 0)  -->
<svg version="1.1" id="Layer_1" xmlns="http://www.w3.org/2000/svg" xmlns:xlink="http://www.w3.org/1999/xlink" x="0px" y="0px"
	 width="48px" height="48px" viewBox="0 0 48 48" style="enable-background:new 0 0 48 48;" xml:space="preserve">
<style type="text/css">
	.st0{fill:#A14944;}
</style>
<g>
	<path class="st0" d="M32.9,30.1c1.8-2.6,2.8-5.8,2.8-9.2c0-1.2-0.1-2.5-0.4-3.7c-0.1-0.5-0.7-0.9-1.2-0.8c-0.5,0.1-0.9,0.7-0.8,1.2
		c0.2,1.1,0.4,2.1,0.4,3.2c0,8-6.5,14.5-14.5,14.5S4.8,28.8,4.8,20.8c0-0.1,0-0.2,0-0.4l5,2.8c0.2,0.1,0.5,0.2,0.7,0.2
		c0.5,0,0.9-0.2,1.2-0.6l6.6-9.3c0.1-0.1,0.2-0.2,0.4-0.2c0.2,0,0.3,0,0.4,0.2l5.7,6.2c0.3,0.3,0.7,0.5,1.1,0.5
		c0.4,0,0.8-0.1,1.1-0.4l16.2-16c0.2-0.2,0.2-0.5,0-0.7c-0.2-0.2-0.5-0.2-0.7,0L26.2,19c-0.1,0.1-0.3,0.1-0.4,0.1
		c-0.1,0-0.3-0.1-0.4-0.2l-5.7-6.2c-0.3-0.3-0.7-0.5-1.2-0.5c-0.5,0-0.9,0.3-1.1,0.6l-6.6,9.3c-0.1,0.2-0.4,0.3-0.7,0.1l-5.4-3
		c0.7-7.3,6.9-13,14.4-13c3.9,0,7.6,1.6,10.4,4.4c0.4,0.4,1,0.4,1.4,0c0.4-0.4,0.4-1,0-1.4c-3.1-3.2-7.3-5-11.8-5
		c-9.1,0-16.5,7.4-16.5,16.5c0,9.1,7.4,16.5,16.5,16.5c2.9,0,5.6-0.8,8-2.1L38,46c0.7,0.7,1.7,1.1,2.7,1.1s2-0.4,2.7-1.1
		c1.5-1.5,1.5-3.9,0-5.4L32.9,30.1z M31.3,36.5l2.6-2.6l5.8,5.8l-2.6,2.6L31.3,36.5z M31.7,31.7l1.5,1.5l-2.6,2.6L29,34.1
		C30,33.4,30.9,32.6,31.7,31.7z M42,44.6c-0.7,0.7-1.9,0.7-2.6,0L37.8,43l2.6-2.6L42,42C42.8,42.8,42.8,43.9,42,44.6z"/>
	<path class="st0" d="M42.3,1.3h-7.5c-0.3,0-0.5,0.2-0.5,0.5s0.2,0.5,0.5,0.5h7.5c0.8,0,1.5,0.7,1.5,1.5v7.5c0,0.3,0.2,0.5,0.5,0.5
		s0.5-0.2,0.5-0.5V3.8C44.8,2.5,43.6,1.3,42.3,1.3z"/>
</g>
</svg>
