<?xml version="1.0" encoding="utf-8"?>
<!-- Generator: Adobe Illustrator 19.1.0, SVG Export Plug-In . SVG Version: 6.00 Build 0)  -->
<svg version="1.1" id="Layer_1" xmlns="http://www.w3.org/2000/svg" xmlns:xlink="http://www.w3.org/1999/xlink" x="0px" y="0px"
	 width="32px" height="32px" viewBox="0 0 32 32" style="enable-background:new 0 0 32 32;" xml:space="preserve">
<style type="text/css">
	.st0{fill:#A14944;}
</style>
<g>
	<path class="st0" d="M30,17c-0.6,0-1,0.4-1,1v5c0,0.6-0.4,1-1,1H4c-0.6,0-1-0.4-1-1v-5c0-0.6-0.4-1-1-1s-1,0.4-1,1v5
		c0,1.7,1.3,3,3,3h24c1.7,0,3-1.3,3-3v-5C31,17.4,30.6,17,30,17z"/>
	<path class="st0" d="M14.6,22c0.4,0.4,0.9,0.6,1.4,0.6s1-0.2,1.4-0.6l4.3-4.3c0.4-0.4,0.4-1,0-1.4s-1-0.4-1.4,0L17,19.6V7
		c0-0.6-0.4-1-1-1s-1,0.4-1,1v12.6l-3.3-3.3c-0.4-0.4-1-0.4-1.4,0s-0.4,1,0,1.4L14.6,22z"/>
</g>
</svg>
