<?xml version="1.0" encoding="utf-8"?>
<!-- Generator: Adobe Illustrator 19.1.0, SVG Export Plug-In . SVG Version: 6.00 Build 0)  -->
<svg version="1.1" id="Layer_1" xmlns="http://www.w3.org/2000/svg" xmlns:xlink="http://www.w3.org/1999/xlink" x="0px" y="0px"
	 width="32px" height="32px" viewBox="0 0 32 32" style="enable-background:new 0 0 32 32;" xml:space="preserve">
<style type="text/css">
	.st0{fill:#A14944;}
</style>
<g>
	<path class="st0" d="M28.6,3.7l-0.3-0.3c-0.8-0.8-1.8-1.2-2.8-1.2s-2,0.4-2.8,1.2L5.5,20.5l-3.2,8c-0.3,0.7,0.3,1.4,0.9,1.4
		c0.1,0,0.2,0,0.3-0.1l7-2.3L28.6,9.3C30.2,7.8,30.2,5.2,28.6,3.7z M23.4,11.7l-3.2-3.2l1.3-1.3l3.2,3.2L23.4,11.7z M10.4,24.7
		l-3.2-3.2L19.5,9.3l3.2,3.2L10.4,24.7z M4.9,27.2l1.9-4.7l2.9,2.9l-0.3,0.3L4.9,27.2z M27.2,7.9l-1.8,1.8l-3.2-3.2l1.8-1.8
		c0.4-0.4,0.9-0.6,1.4-0.6c0.5,0,1,0.2,1.4,0.6l0.3,0.3c0.4,0.4,0.6,0.9,0.6,1.4C27.8,7,27.6,7.5,27.2,7.9z"/>
	<path class="st0" d="M19.8,12.1c-0.2-0.2-0.5-0.2-0.7,0l-8,8c-0.2,0.2-0.2,0.5,0,0.7c0.1,0.1,0.2,0.1,0.4,0.1s0.3,0,0.4-0.1l8-8
		C20,12.6,20,12.3,19.8,12.1z"/>
</g>
</svg>
