<?xml version="1.0" encoding="utf-8"?>
<!-- Generator: Adobe Illustrator 19.1.0, SVG Export Plug-In . SVG Version: 6.00 Build 0)  -->
<svg version="1.1" id="Layer_1" xmlns="http://www.w3.org/2000/svg" xmlns:xlink="http://www.w3.org/1999/xlink" x="0px" y="0px"
	 width="48px" height="48px" viewBox="0 0 48 48" style="enable-background:new 0 0 48 48;" xml:space="preserve">
<style type="text/css">
	.st0{fill:#A14944;}
</style>
<g>
	<path class="st0" d="M2,0C0.9,0,0,0.9,0,2v44c0,1.1,0.9,2,2,2h31c1.1,0,2-0.9,2-2V9l-9-9H2z M2,41h31v2H2V41z M26,2.8L32.2,9h-4.7
		C26.7,9,26,8.3,26,7.5V2.8z M2,2h23v5.5c0,1.4,1.1,2.5,2.5,2.5H33v30H2V2z M33,46H2v-2h31V46z"/>
	<path class="st0" d="M29,16H7c-0.3,0-0.5,0.2-0.5,0.5S6.7,17,7,17h22c0.3,0,0.5-0.2,0.5-0.5S29.3,16,29,16z"/>
	<path class="st0" d="M29,19H7c-0.3,0-0.5,0.2-0.5,0.5S6.7,20,7,20h22c0.3,0,0.5-0.2,0.5-0.5S29.3,19,29,19z"/>
	<path class="st0" d="M29,22H7c-0.3,0-0.5,0.2-0.5,0.5S6.7,23,7,23h22c0.3,0,0.5-0.2,0.5-0.5S29.3,22,29,22z"/>
	<path class="st0" d="M29,25H7c-0.3,0-0.5,0.2-0.5,0.5S6.7,26,7,26h22c0.3,0,0.5-0.2,0.5-0.5S29.3,25,29,25z"/>
	<path class="st0" d="M19,28H7c-0.3,0-0.5,0.2-0.5,0.5S6.7,29,7,29h12c0.3,0,0.5-0.2,0.5-0.5S19.3,28,19,28z"/>
	<path class="st0" d="M44,0c-2.2,0-4,1.8-4,4v36.2l2.1,6.3c0.3,0.8,1,1.4,1.9,1.4c0,0,0,0,0,0c0.9,0,1.6-0.5,1.9-1.4l2.1-6.3V4
		C48,1.8,46.2,0,44,0z M42,39V12h4v27H42z M46,11h-4V9h4V11z M42,4c0-1.1,0.9-2,2-2s2,0.9,2,2v4h-4V4z M44,45.8l-2-5.8h3.9L44,45.8z
		"/>
</g>
</svg>
