<?xml version="1.0" encoding="utf-8"?>
<!-- Generator: Adobe Illustrator 19.1.0, SVG Export Plug-In . SVG Version: 6.00 Build 0)  -->
<svg version="1.1" id="Layer_1" xmlns="http://www.w3.org/2000/svg" xmlns:xlink="http://www.w3.org/1999/xlink" x="0px" y="0px"
	 width="32px" height="32px" viewBox="0 0 32 32" style="enable-background:new 0 0 32 32;" xml:space="preserve">
<style type="text/css">
	.st0{fill:#A14944;}
</style>
<g>
	<path class="st0" d="M29,1H3C1.4,1,0.5,2.7,1.3,4.1L13,20v10c0,0.6,0.6,1,1.1,1c0.4,0,0.7-0.2,0.9-0.5L17,25v-5L30.6,4.2
		C31.6,2.8,30.6,1,29,1z M15.5,18.7L15,19.3v0.1l-0.4-0.5L3,3h26L15.5,18.7z"/>
	<path class="st0" d="M13.9,14.4c0.3,0.4,0.7,0.6,1.1,0.6c0,0,0,0,0,0c0.4,0,0.8-0.2,1.1-0.5l4.7-5.3c0.4-0.5,0.5-1.1,0.2-1.7
		c-0.3-0.6-0.9-0.9-1.6-0.8c-1.8,0.3-3.2,0-4.2-1c-3.1-3.1-7.6-0.1-7.6-0.1L7.3,5.9L13.9,14.4z M14.6,6.4c1.2,1.2,2.9,1.6,5,1.3
		c0.3,0,0.5,0.1,0.5,0.3c0,0.1,0.1,0.3-0.1,0.6l-4.7,5.3c-0.1,0.2-0.3,0.2-0.4,0.2c-0.1,0-0.3,0-0.4-0.2L8.7,6.1
		C9.8,5.5,12.6,4.4,14.6,6.4z"/>
</g>
</svg>
