<?xml version="1.0" encoding="utf-8"?>
<!-- Generator: Adobe Illustrator 19.1.0, SVG Export Plug-In . SVG Version: 6.00 Build 0)  -->
<svg version="1.1" id="Layer_1" xmlns="http://www.w3.org/2000/svg" xmlns:xlink="http://www.w3.org/1999/xlink" x="0px" y="0px"
	 width="48px" height="48px" viewBox="0 0 48 48" style="enable-background:new 0 0 48 48;" xml:space="preserve">
<style type="text/css">
	.st0{fill:#A14944;}
</style>
<g>
	<path class="st0" d="M22,12.5C22,6.4,17.6,2,11.5,2S1,6.4,1,12.5c0,11.7,4.4,17.1,8,18.8v7.8c-1.7,0.4-3,2-3,3.9c0,2.2,1.8,4,4,4
		c1.2,0,2.2-0.5,3-1.3c0.5,0.2,1,0.3,1.5,0.3c2.5,0,2.5-2.5,2.5-3.5c0-1.7-1.4-3-3-3.4v-7.9C17.3,29.6,22,24.7,22,12.5z M3,12.5
		C3,7.5,6.5,4,11.5,4S20,7.5,20,12.5C20,25.9,13.8,30,11.5,30C9.8,30,3,26.9,3,12.5z M13,41c1,0,2,0.8,2,1.5c0,1.5-0.2,1.5-0.5,1.5
		c-0.4,0-0.8-0.2-1.1-0.4l-1-1l-0.6,1.3c-0.3,0.7-1,1.2-1.8,1.2c-1.1,0-2-0.9-2-2s0.9-2,2-2h1v-9c0.2,0,0.3,0,0.5,0
		c0.1,0,0.3,0,0.5,0v9H13z"/>
	<path class="st0" d="M46,2c-9.1,0-9.1,3-10,3c-0.9,0-1-3-10-3c0,11.8,7,7.9,7,12c-2.9,5.5-6,8.6-6,15c0,9.9,7.1,17,9,17
		c1.9,0,9-7.1,9-17c0-7.1-3.2-9.4-6-15C39,9.8,46,13.9,46,2z M36,43.9c-1.3-0.7-4.8-4.4-6.3-9.7c1.4-2,3.7-3.2,6.3-3.2
		s4.9,1.2,6.3,3.2C40.8,39.6,37.3,43.2,36,43.9z M39.7,19.1c1.9,3.1,3.3,5.3,3.3,9.9c0,1.4-0.2,2.7-0.4,4c-1.6-1.8-4-3-6.6-3
		s-5,1.1-6.6,3c-0.3-1.2-0.4-2.6-0.4-4c0-4.3,1.5-6.8,3.6-10.3c0.7-1.2,1.4-2.4,2.2-3.8l0.2-0.4V14c0-2.8-2.1-3.7-3.4-4.3
		c-1.6-0.7-3.2-1.4-3.5-5.6c4.2,0.3,5.3,1.4,5.8,1.9c0.4,0.4,1,1,2.1,1c1.1,0,1.7-0.7,2.1-1.1c0.5-0.5,1.6-1.6,5.8-1.9
		c-0.4,4.3-2,5-3.5,5.6C39.1,10.2,37,11.1,37,14v0.5l0.2,0.4C38,16.5,38.9,17.9,39.7,19.1z"/>
	<path class="st0" d="M33.5,36c-0.8,0-1.5,0.7-1.5,1.5s0.7,1.5,1.5,1.5s1.5-0.7,1.5-1.5S34.3,36,33.5,36z M33.5,38
		c-0.3,0-0.5-0.2-0.5-0.5s0.2-0.5,0.5-0.5s0.5,0.2,0.5,0.5S33.8,38,33.5,38z"/>
</g>
</svg>
