<?xml version="1.0" encoding="utf-8"?>
<!-- Generator: Adobe Illustrator 19.1.0, SVG Export Plug-In . SVG Version: 6.00 Build 0)  -->
<svg version="1.1" id="Layer_1" xmlns="http://www.w3.org/2000/svg" xmlns:xlink="http://www.w3.org/1999/xlink" x="0px" y="0px"
	 width="48px" height="48px" viewBox="0 0 48 48" style="enable-background:new 0 0 48 48;" xml:space="preserve">
<style type="text/css">
	.st0{fill:#A14944;}
</style>
<g>
	<path class="st0" d="M43,1H5C2.8,1,1,2.8,1,5v40c0,1.1,0.9,2,2,2h42c1.1,0,2-0.9,2-2V5C47,2.8,45.2,1,43,1z M3,45V5
		c0-1.1,0.9-2,2-2h12v42H3z M32,32H19v-4h13V32z M32,33v4H19v-4H32z M28,26v-4h8v4H28z M36,21h-8v-8h8V21z M36,12h-8V8h8V12z M26,26
		h-7V8h7V26z M19,45v-7h13v7H19z M45,45H33v-7h12V45z M45,37H33v-4h12V37z M45,32H33v-4h12V32z M45,26h-7V8h7V26z M45,6H19V3h24
		c1.1,0,2,0.9,2,2V6z"/>
	<path class="st0" d="M14,20c-0.6,0-1,0.4-1,1v11c0,0.6,0.4,1,1,1s1-0.4,1-1V21C15,20.4,14.6,20,14,20z"/>
	<path class="st0" d="M22.5,21.5c0.3,0,0.5-0.2,0.5-0.5v-9c0-0.3-0.2-0.5-0.5-0.5S22,11.7,22,12v9C22,21.3,22.2,21.5,22.5,21.5z"/>
	<path class="st0" d="M41.5,21.5c0.3,0,0.5-0.2,0.5-0.5v-9c0-0.3-0.2-0.5-0.5-0.5S41,11.7,41,12v9C41,21.3,41.2,21.5,41.5,21.5z"/>
</g>
</svg>
