<?xml version="1.0" encoding="utf-8"?>
<!-- Generator: Adobe Illustrator 19.1.0, SVG Export Plug-In . SVG Version: 6.00 Build 0)  -->
<svg version="1.1" id="Layer_1" xmlns="http://www.w3.org/2000/svg" xmlns:xlink="http://www.w3.org/1999/xlink" x="0px" y="0px"
	 width="48px" height="48px" viewBox="0 0 48 48" style="enable-background:new 0 0 48 48;" xml:space="preserve">
<style type="text/css">
	.st0{fill:#A14944;}
</style>
<g>
	<path class="st0" d="M47.3,0.5c-0.5-0.2-1.1,0.2-1.2,0.7l-1,3.4c-0.4,1-2.6,1.8-4.1,1.8h-9c-0.6,0-1,0.4-1,1s0.4,1,1,1h8.4L29,29.5
		l-5.5-2.9c0,0,0,0,0,0c-1.8-1.3-4-2.1-6.5-2.1c-1.1,0-2.2,0.2-3.1,0.5l-4.2-9.3c0.3-0.1,0.8-0.2,1.4-0.2c0.1,0,0.3,0,0.5,0
		c2,0.1,4,0.1,4.9-0.8c0.3-0.3,0.5-0.7,0.5-1.2c0-1.6-2.8-3-6-3H6c-2.9,0-6,1.6-6,5.2l0,0.1c0.1,1.3,1.2,3.8,5,3.8
		c0.7,0,1.5,0,2.2-0.2l3.3,7.4c-2.7,2-4.5,5.2-4.5,8.9v8c0,1.7,1.3,3,3,3h31c1.7,0,3-1.3,3-3v-3c0-3.5-4.4-5.8-4.5-5.9l-6.7-3.6
		L44.4,7.7c0,0,0-0.1,0-0.1c1.1-0.5,2.1-1.3,2.5-2.3l1-3.6C48.1,1.2,47.8,0.7,47.3,0.5z M2,15.6c0-3,3.6-3.1,4-3.1h5
		c1.8,0,3.1,0.5,3.7,0.9c-0.5,0.1-1.4,0.2-3.1,0.1c-0.3,0-0.5,0-0.6,0c-2.5,0-4,1.1-4,3c0,0.8,0,1-2,1C2.4,17.5,2,16,2,15.6z
		 M8.1,18.8C8.6,18.4,9,17.7,9,16.7l3.9,8.6c-0.5,0.2-1.1,0.5-1.5,0.8L8.1,18.8z M17,26.5c5,0,9,4,9,9c0,5-4,9-9,9s-9-4-9-9
		C8,30.5,12,26.5,17,26.5z M9,44.5c-0.6,0-1-0.4-1-1v-1.7c0.7,1,1.6,2,2.7,2.7H9z M41,40.5v3c0,0.6-0.4,1-1,1H23.3
		c2.8-2,4.7-5.3,4.7-9c0-1.7-0.4-3.3-1.1-4.8l10.7,5.7C38.5,36.9,41,38.6,41,40.5z M30.9,30.6L29.8,30L41.6,8.5c0.5,0,1-0.1,1.5-0.3
		L30.9,30.6z"/>
	<path class="st0" d="M16,36.5c0.1,0,0.3,0,0.4,0c1.1,2.4,2.7,5,4.6,5h1c0.6,0,1-0.4,1-1s-0.4-1-1-1h-1c-0.6,0-1.7-1.6-2.7-3.7
		c1-0.7,1.7-1.9,1.7-3.3c0-2.2-1.8-4-4-4s-4,1.8-4,4S13.8,36.5,16,36.5z M16,29.5c1.7,0,3,1.3,3,3c0,0.9-0.4,1.8-1.1,2.3
		c-0.3-0.8-0.7-1.7-0.9-2.6c-0.2-0.5-0.7-0.8-1.2-0.7c-0.5,0.2-0.8,0.7-0.7,1.2c0.2,0.6,0.5,1.6,1,2.7c-1.7,0-3-1.3-3-3
		C13,30.8,14.3,29.5,16,29.5z"/>
</g>
</svg>
