<?xml version="1.0" encoding="utf-8"?>
<!-- Generator: Adobe Illustrator 19.1.0, SVG Export Plug-In . SVG Version: 6.00 Build 0)  -->
<svg version="1.1" id="Layer_1" xmlns="http://www.w3.org/2000/svg" xmlns:xlink="http://www.w3.org/1999/xlink" x="0px" y="0px"
	 width="48px" height="48px" viewBox="0 0 48 48" style="enable-background:new 0 0 48 48;" xml:space="preserve">
<style type="text/css">
	.st0{fill:#A14944;}
</style>
<g>
	<path class="st0" d="M39.5,14h1c1.7,0,3-1.3,3-3V5c0-2.8-2.2-5-5-5h-13c-2.8,0-5,2.2-5,5h2c0-1.7,1.3-3,3-3h13c1.7,0,3,1.3,3,3v6
		c0,0.6-0.4,1-1,1h-1c-0.6,0-1-0.4-1-1V8c0-1.7-1.3-3-3-3h-5v0h-24c-0.6,0-1,0.4-1,1v7c0,0.6,0.4,1,1,1h14l-0.1,28.9
		c0,2.8,2.2,5,5,5L38.5,48c0,0,0,0,0,0c1.3,0,2.6-0.5,3.5-1.5c0.9-0.9,1.5-2.2,1.5-3.5V19c0-1.7-1.3-3-3-3h-12v-2h3c2.2,0,4-1.8,4-4
		V9c0-0.7-0.2-1.4-0.6-2h0.6c0.6,0,1,0.4,1,1v3C36.5,12.7,37.8,14,39.5,14z M28.5,18h12c0.6,0,1,0.4,1,1v24c0,0.8-0.3,1.6-0.9,2.1
		c-0.6,0.6-1.3,0.9-2.1,0.9c0,0,0,0,0,0l-13.1-0.1c-1.7,0-3-1.4-3-3L22.5,14l-1,0h5v2C26.5,17.1,27.4,18,28.5,18z M33.5,10
		c0,1.1-0.9,2-2,2h-24V7h24c1.1,0,2,0.9,2,2V10z"/>
	<path class="st0" d="M24,23.5c0,0.3,0.2,0.5,0.5,0.5h15c0.3,0,0.5-0.2,0.5-0.5S39.8,23,39.5,23h-15C24.2,23,24,23.2,24,23.5z"/>
	<path class="st0" d="M39.5,26h-15c-0.3,0-0.5,0.2-0.5,0.5s0.2,0.5,0.5,0.5h15c0.3,0,0.5-0.2,0.5-0.5S39.8,26,39.5,26z"/>
	<path class="st0" d="M39.5,29h-15c-0.3,0-0.5,0.2-0.5,0.5s0.2,0.5,0.5,0.5h15c0.3,0,0.5-0.2,0.5-0.5S39.8,29,39.5,29z"/>
</g>
</svg>
