<?xml version="1.0" encoding="utf-8"?>
<!-- Generator: Adobe Illustrator 19.1.0, SVG Export Plug-In . SVG Version: 6.00 Build 0)  -->
<svg version="1.1" id="Layer_1" xmlns="http://www.w3.org/2000/svg" xmlns:xlink="http://www.w3.org/1999/xlink" x="0px" y="0px"
	 width="48px" height="48px" viewBox="0 0 48 48" style="enable-background:new 0 0 48 48;" xml:space="preserve">
<style type="text/css">
	.st0{fill:#A14944;}
</style>
<g>
	<path class="st0" d="M46,4.5H2c-1.1,0-2,0.9-2,2v27c0,2.2,1.8,4,4,4h14.9l-1.9,4.6c0,0.1-0.1,0.2-0.1,0.4h-2c-0.6,0-1,0.4-1,1
		s0.4,1,1,1h18c0.6,0,1-0.4,1-1s-0.4-1-1-1h-2c0-0.1,0-0.2-0.1-0.4l-1.9-4.6H44c2.2,0,4-1.8,4-4v-27C48,5.4,47.1,4.5,46,4.5z
		 M27.1,37.9l1.9,4.6h-9.8l1.9-4.6c0-0.1,0.1-0.2,0.1-0.4h6C27,37.6,27,37.7,27.1,37.9z M46,33.5c0,1.1-0.9,2-2,2H4
		c-1.1,0-2-0.9-2-2v-27h44V33.5z"/>
	<path class="st0" d="M45,7.5H3v24h42V7.5z M44,30.5H4v-22h40V30.5z"/>
	<path class="st0" d="M30.6,24.9C30.7,25,30.9,25,31,25s0.3,0,0.4-0.1l5-5c0.2-0.2,0.2-0.5,0-0.7l-5-5c-0.2-0.2-0.5-0.2-0.7,0
		s-0.2,0.5,0,0.7l4.6,4.6l-4.6,4.6C30.5,24.3,30.5,24.7,30.6,24.9z"/>
	<path class="st0" d="M16.6,24.9C16.7,25,16.9,25,17,25s0.3,0,0.4-0.1c0.2-0.2,0.2-0.5,0-0.7l-4.6-4.6l4.6-4.6
		c0.2-0.2,0.2-0.5,0-0.7s-0.5-0.2-0.7,0l-5,5c-0.2,0.2-0.2,0.5,0,0.7L16.6,24.9z"/>
	<path class="st0" d="M19.8,27.9c0.1,0,0.1,0.1,0.2,0.1c0.2,0,0.4-0.1,0.4-0.3l8-16c0.1-0.2,0-0.5-0.2-0.7c-0.2-0.1-0.5,0-0.7,0.2
		l-8,16C19.4,27.5,19.5,27.8,19.8,27.9z"/>
</g>
</svg>
