<?xml version="1.0" encoding="utf-8"?>
<!-- Generator: Adobe Illustrator 19.1.0, SVG Export Plug-In . SVG Version: 6.00 Build 0)  -->
<svg version="1.1" id="Layer_1" xmlns="http://www.w3.org/2000/svg" xmlns:xlink="http://www.w3.org/1999/xlink" x="0px" y="0px"
	 width="48px" height="48px" viewBox="0 0 48 48" style="enable-background:new 0 0 48 48;" xml:space="preserve">
<style type="text/css">
	.st0{fill:#A14944;}
</style>
<g>
	<path class="st0" d="M37,36.1h-2v-1c1.7,0,3-1.3,3-3s-1.3-3-3-3V23c4.3-2,7-6.2,7-10.9c0-6.6-5.4-12-12-12c-1.9,0-3.6,0.4-5.2,1.2
		c-4.4-0.3-8.6,2-10.8,5.9c-2.5,4.3-2,9.9,1.2,13.7L7.2,34.7C6.3,36.3,5.9,38.2,6,40l0.1,1.7c0.1,1.3,0.9,2.5,2,3.1
		c0.6,0.3,1.2,0.5,1.9,0.5c0.6,0,1.2-0.1,1.7-0.4l1.2-0.6c1-0.5,1.9-1.3,2.5-2.4l0.2-0.4c0.5,0.3,1,0.4,1.5,0.2
		c0.5-0.1,0.9-0.5,1.2-0.9l0.5-0.9c0.5-0.9,0.2-2.2-0.7-2.7l-1.7-1l0.4-0.8c0.7,0.4,1.5,0.5,2.2,0.3c0.8-0.2,1.4-0.7,1.8-1.4
		c0.8-1.4,0.3-3.2-1-4.1l3-5.2c0.8,0,2,0,3.1-0.7v15.2c0,1.9,0.6,3.7,1.7,5.2l1,1.4c0.8,1.1,2,1.7,3.3,1.7c0,0,0,0,0.1,0
		c1.3,0,2.5-0.7,3.3-1.8L36,45c0.7-1,1-2.1,1-3.3v-0.5c1.1,0,2-0.9,2-2v-1C39,37,38.1,36.1,37,36.1z M22.5,23l-0.7-0.1l-3.7,6.4
		c-0.5,0.9-0.2,2.2,0.7,2.7c0.5,0.3,0.6,0.9,0.3,1.4c-0.1,0.2-0.3,0.4-0.6,0.4c-0.2,0.1-0.5,0-0.7-0.1c-0.5-0.3-1-0.3-1.5-0.2
		c-0.5,0.1-0.9,0.5-1.2,0.9l-0.5,0.9c-0.5,0.9-0.2,2.2,0.7,2.7l1.7,1l-0.4,0.9c-0.5-0.3-1-0.3-1.5-0.2c-0.5,0.1-0.9,0.5-1.2,0.9
		L13.7,41c-0.3,0.6-0.8,1.1-1.4,1.4c-2.6-2.1-0.3-6.2-0.2-6.4l6.4-11.1c0.1-0.2,0.1-0.5-0.2-0.7c-0.2-0.1-0.5-0.1-0.7,0.2l-6.4,11.1
		c-1,1.7-2.1,5.2,0.1,7.4l-0.5,0.2c-0.6,0.3-1.2,0.3-1.7,0c-0.6-0.3-0.9-0.9-1-1.6L8,39.8c-0.1-1.5,0.2-2.9,0.9-4.1l8.6-15.1
		l-0.5-0.5c-3-3.2-3.6-8.1-1.4-11.9C17,6,19.1,4.4,21.5,3.7C19.3,5.9,18,8.8,18,12.1c0,4.6,2.6,8.7,6.6,10.7
		C23.9,23.1,23,23.1,22.5,23z M37,39.1c-1.1,0-2,0.9-2,2v0.5c0,0.7-0.2,1.4-0.5,2c-0.8-0.1-1.4-0.4-1.9-0.9C31,41.1,31,38.2,31,38.1
		v-13c0-0.3-0.2-0.5-0.5-0.5S30,24.9,30,25.1v13c0,0.1,0,3.4,1.8,5.2c0.6,0.6,1.3,0.9,2,1.1L33.6,45c-0.4,0.6-1,0.9-1.6,0.9
		c0,0,0,0,0,0c-0.7,0-1.2-0.3-1.6-0.8l-1-1.4C28.5,42.5,28,41,28,39.6V22l-0.7-0.2C23,20.5,20,16.6,20,12.1c0-5.5,4.5-10,10-10
		c5.5,0,10,4.5,10,10c0,4.1-2.5,7.8-6.4,9.3L33,21.7v7.4c0,1.1,0.9,2,2,2c0.6,0,1,0.4,1,1s-0.4,1-1,1c-1.1,0-2,0.9-2,2v1
		c0,1.1,0.9,2,2,2h2V39.1z"/>
	<path class="st0" d="M30,5.1c-1.7,0-3,1.3-3,3c0,1.7,1.3,3,3,3s3-1.3,3-3C33,6.5,31.7,5.1,30,5.1z M30,10.1c-1.1,0-2-0.9-2-2
		c0-1.1,0.9-2,2-2s2,0.9,2,2C32,9.2,31.1,10.1,30,10.1z"/>
</g>
</svg>
