<?xml version="1.0" encoding="utf-8"?>
<!-- Generator: Adobe Illustrator 19.1.0, SVG Export Plug-In . SVG Version: 6.00 Build 0)  -->
<svg version="1.1" id="Layer_1" xmlns="http://www.w3.org/2000/svg" xmlns:xlink="http://www.w3.org/1999/xlink" x="0px" y="0px"
	 width="48px" height="48px" viewBox="0 0 48 48" style="enable-background:new 0 0 48 48;" xml:space="preserve">
<style type="text/css">
	.st0{fill:#A14944;}
</style>
<g>
	<path class="st0" d="M44,4l-8,2L24,2L12,6L4,4C2.9,4,2,4.9,2,6v36c0,1.1,9.3,4,10,4c0,0,0,0,0,0c0.8,0,12-4,12-4s11.2,4,12,4
		c0,0,0,0,0,0c0.8,0,10-2.9,10-4V6C46,4.9,45.1,4,44,4z M44,41.1c-1.7,0.9-6.5,2.5-7.9,2.8c-1.3-0.4-6.6-2.2-11.4-3.9L24,39.9
		l-0.7,0.2c-4.7,1.7-10,3.5-11.3,3.9c-1.5-0.3-6.3-1.9-8-2.8V6.1l7.5,1.9l0.6,0.1l0.6-0.2L24,4.1l11.4,3.8l0.6,0.2l0.6-0.1L44,6.1
		V41.1z"/>
	<path class="st0" d="M15.7,10.3c-0.4-0.4-1-0.4-1.4,0L12,12.6l-2.3-2.3c-0.4-0.4-1-0.4-1.4,0s-0.4,1,0,1.4l2.3,2.3l-2.3,2.3
		c-0.4,0.4-0.4,1,0,1.4C8.5,17.9,8.7,18,9,18s0.5-0.1,0.7-0.3l2.3-2.3l2.3,2.3c0.2,0.2,0.5,0.3,0.7,0.3s0.5-0.1,0.7-0.3
		c0.4-0.4,0.4-1,0-1.4L13.4,14l2.3-2.3C16.1,11.3,16.1,10.7,15.7,10.3z"/>
	<path class="st0" d="M32,34c0,2.2,1.8,4,4,4s4-1.8,4-4s-1.8-4-4-4S32,31.8,32,34z M38,34c0,1.1-0.9,2-2,2s-2-0.9-2-2s0.9-2,2-2
		S38,32.9,38,34z"/>
	<path class="st0" d="M35.2,28.2c0.1,0,0.2,0,0.2-0.1c0,0,0,0,0,0c0,0,0,0,0,0c0,0,0,0,0,0c0,0,0.1-0.1,0.1-0.1c0,0,0,0,0-0.1
		c0,0,0-0.1,0-0.1c0,0,0,0,0,0l0.5-5.7c0-0.3-0.2-0.5-0.5-0.5c-0.3,0-0.5,0.2-0.5,0.5l-0.3,4c-3.5-5.8-9.1-10-15.7-11.7
		c-0.3-0.1-0.5,0.1-0.6,0.4c-0.1,0.3,0.1,0.5,0.4,0.6c6.4,1.7,11.9,5.8,15.3,11.4l-4.4-1.6c-0.3-0.1-0.5,0-0.6,0.3s0,0.5,0.3,0.6
		l5.6,2C35.1,28.2,35.2,28.2,35.2,28.2z"/>
</g>
</svg>
