<?xml version="1.0" encoding="utf-8"?>
<!-- Generator: Adobe Illustrator 19.1.0, SVG Export Plug-In . SVG Version: 6.00 Build 0)  -->
<svg version="1.1" id="Layer_1" xmlns="http://www.w3.org/2000/svg" xmlns:xlink="http://www.w3.org/1999/xlink" x="0px" y="0px"
	 width="32px" height="32px" viewBox="0 0 32 32" style="enable-background:new 0 0 32 32;" xml:space="preserve">
<style type="text/css">
	.st0{fill:#A14944;}
</style>
<path class="st0" d="M29,5.5H3c-1.1,0-2,0.9-2,2v17c0,1.1,0.9,2,2,2h26c1.1,0,2-0.9,2-2v-17C31,6.4,30.1,5.5,29,5.5z M17.1,18.7
	c-0.6,0.6-1.6,0.6-2.1,0L3.7,7.5h24.6L17.1,18.7z M11.4,16.9c0.1-0.1,0.1-0.1,0.1-0.2l2.8,2.8c0.5,0.5,1.1,0.7,1.8,0.7
	s1.3-0.3,1.8-0.7l2.8-2.8c0,0.1,0.1,0.1,0.1,0.2l7.6,7.6H3.7L11.4,16.9z M3,23.8V8.2l7.8,7.8c-0.1,0-0.1,0.1-0.2,0.1L3,23.8z
	 M21.4,16.1c-0.1-0.1-0.1-0.1-0.2-0.1L29,8.2v15.6L21.4,16.1z"/>
</svg>
