<?xml version="1.0" encoding="utf-8"?>
<!-- Generator: Adobe Illustrator 19.1.0, SVG Export Plug-In . SVG Version: 6.00 Build 0)  -->
<svg version="1.1" id="Layer_1" xmlns="http://www.w3.org/2000/svg" xmlns:xlink="http://www.w3.org/1999/xlink" x="0px" y="0px"
	 width="32px" height="32px" viewBox="0 0 32 32" style="enable-background:new 0 0 32 32;" xml:space="preserve">
<style type="text/css">
	.st0{fill:#A14944;}
</style>
<g>
	<path class="st0" d="M28,18c-0.6,0-1-0.4-1-1v-5c0-6.1-4.9-11-11-11S5,5.9,5,12v5c0,0.6-0.4,1-1,1c-1.7,0-3,1.3-3,3v1
		c0,1.7,1.3,3,3,3h6c0,3.3,2.7,6,6,6s6-2.7,6-6h6c1.7,0,3-1.3,3-3v-1C31,19.3,29.7,18,28,18z M16,29c-2.2,0-4-1.8-4-4h8
		C20,27.2,18.2,29,16,29z M29,22c0,0.6-0.4,1-1,1H4c-0.6,0-1-0.4-1-1v-1c0-0.6,0.4-1,1-1c1.7,0,3-1.3,3-3v-5c0-5,4-9,9-9
		c5,0,9,4,9,9v5c0,1.7,1.3,3,3,3c0.6,0,1,0.4,1,1V22z"/>
	<path class="st0" d="M16,5c-3.9,0-7,3.1-7,7c0,0.3,0.2,0.5,0.5,0.5S10,12.3,10,12c0-3.3,2.7-6,6-6c0.3,0,0.5-0.2,0.5-0.5
		S16.3,5,16,5z"/>
</g>
</svg>
