<?xml version="1.0" encoding="utf-8"?>
<!-- Generator: Adobe Illustrator 19.1.0, SVG Export Plug-In . SVG Version: 6.00 Build 0)  -->
<svg version="1.1" id="Layer_1" xmlns="http://www.w3.org/2000/svg" xmlns:xlink="http://www.w3.org/1999/xlink" x="0px" y="0px"
	 width="48px" height="48px" viewBox="0 0 48 48" style="enable-background:new 0 0 48 48;" xml:space="preserve">
<style type="text/css">
	.st0{fill:#A14944;}
</style>
<path class="st0" d="M48,16c0-2.8-2.2-5-5-5h-6c0-1.7-1.3-3-3-3c0-2.8-2.2-5-5-5H19c-2.8,0-5,2.2-5,5c-1.7,0-3,1.3-3,3H5
	c-2.8,0-5,2.2-5,5v4c0,2.3,0.9,4.4,2.3,6H2v16c0,1.7,1.3,3,3,3h38c1.7,0,3-1.3,3-3V26h-0.3c1.4-1.6,2.3-3.7,2.3-6V16z M35,11h-4
	c0-0.6,0.4-1,1-1h2C34.6,10,35,10.4,35,11z M19,5h10c1.7,0,3,1.3,3,3c-1.7,0-3,1.3-3,3H19v-1h-0.2c-0.4-1.2-1.5-2-2.8-2
	C16,6.3,17.3,5,19,5z M14,10h2c0.6,0,1,0.4,1,1h-4C13,10.4,13.4,10,14,10z M5,13h38c1.3,0,2.4,0.8,2.8,2H2.2C2.6,13.8,3.7,13,5,13z
	 M5,43c-0.6,0-1-0.4-1-1V27.5c1.4,1,3.2,1.5,5,1.5v14H5z M10,43V29h2v14H10z M13,43V29h6c0,2.2,1.8,4,4,4h1c2.2,0,4-1.8,4-4h7v14H13
	z M20,29v-5c0-0.6,0.4-1,1-1h5c0.6,0,1,0.4,1,1v5c0,1.7-1.3,3-3,3h-1C21.3,32,20,30.7,20,29z M36,43V29h2v14H36z M43,43h-4V29
	c1.8,0,3.6-0.6,5-1.5V42C44,42.6,43.6,43,43,43z M46,20c0,3.9-3.1,7-7,7H28v-3c0-1.1-0.9-2-2-2h-5c-1.1,0-2,0.9-2,2v3H9
	c-3.9,0-7-3.1-7-7v-4h44V20z"/>
</svg>
