<?xml version="1.0" encoding="utf-8"?>
<!-- Generator: Adobe Illustrator 19.1.0, SVG Export Plug-In . SVG Version: 6.00 Build 0)  -->
<svg version="1.1" id="Layer_1" xmlns="http://www.w3.org/2000/svg" xmlns:xlink="http://www.w3.org/1999/xlink" x="0px" y="0px"
	 width="48px" height="48px" viewBox="0 0 48 48" style="enable-background:new 0 0 48 48;" xml:space="preserve">
<style type="text/css">
	.st0{fill:#A14944;}
</style>
<path class="st0" d="M31.8,23.3L45.6,8.7C46.2,8,45.7,7,44.8,7h-5l2.7-2.6c0.2-0.2,0.2-0.5,0-0.7c-0.2-0.2-0.5-0.2-0.7,0L38.4,7h-16
	c-1.6-4.2-5.7-7-10.2-7c-6.1,0-11,4.9-11,11s4.9,11,11,11c3.2,0,6.2-1.4,8.3-3.7l5,5c1.1,1.1,1.8,2.7,1.8,4.2V42l-6.9,4.1
	c-0.9,0.5-0.5,1.9,0.5,1.9h15.8c1,0,1.4-1.3,0.5-1.9L30.2,42V27.4C30.2,25.9,30.7,24.4,31.8,23.3z M12.2,20c-5,0-9-4-9-9s4-9,9-9
	c3.5,0,6.6,2,8.1,5h-2.3c-1.3-1.9-3.4-3-5.7-3c-3.9,0-7,3.1-7,7s3.1,7,7,7c2.1,0,4.1-1,5.4-2.6l1.4,1.4C17.3,18.8,14.8,20,12.2,20z
	 M10.9,8.7l6,6C15.7,16.1,14,17,12.2,17c-3.3,0-6-2.7-6-6s2.7-6,6-6c1.7,0,3.3,0.7,4.5,2h-5C10.7,7,10.2,8.1,10.9,8.7z M32.9,46
	h-8.6l3.8-2.3l0.5-0.3l0.5,0.3L32.9,46z M28.6,24.6c-0.4-1-1-2-1.8-2.8L14,9h22.4l-1.9,1.9c-0.4-0.2-0.9-0.4-1.4-0.4
	c-0.9,0-1.9,0.4-2.7,1.2c-0.4,0.4-0.7,0.9-0.9,1.3H20l8.7,8.7l8.7-8.7h-1.7c0-0.5-0.1-1-0.4-1.5L37.8,9h4.7L30.3,21.9
	C29.6,22.7,29,23.6,28.6,24.6z M30.3,14.1c0,0,0-0.1,0-0.1h4.1c-0.2,0.3-0.4,0.7-0.7,1c-0.6,0.6-1.3,0.9-2,0.9
	c-0.3,0-0.8-0.1-1.1-0.4C30.4,15.1,30.3,14.7,30.3,14.1z M29.7,15.8l-1.9,1.9c-0.2,0.2-0.2,0.5,0,0.7c0.1,0.1,0.2,0.1,0.4,0.1
	s0.3,0,0.4-0.1l1.9-1.9c0.4,0.3,0.9,0.4,1.4,0.4c0.1,0,0.2,0,0.3,0l-3.5,3.5L22.4,14h7C29.3,14.6,29.4,15.2,29.7,15.8z M30.7,13
	c0.1-0.2,0.3-0.4,0.5-0.6c0.6-0.6,1.3-0.9,2-0.9c0.3,0,0.8,0.1,1.1,0.4c0.3,0.3,0.4,0.7,0.4,1.1H30.7z"/>
</svg>
