<?xml version="1.0" encoding="utf-8"?>
<!-- Generator: Adobe Illustrator 19.1.0, SVG Export Plug-In . SVG Version: 6.00 Build 0)  -->
<svg version="1.1" id="Layer_1" xmlns="http://www.w3.org/2000/svg" xmlns:xlink="http://www.w3.org/1999/xlink" x="0px" y="0px"
	 width="32px" height="32px" viewBox="0 0 32 32" style="enable-background:new 0 0 32 32;" xml:space="preserve">
<style type="text/css">
	.st0{fill:#A14944;}
</style>
<g>
	<path class="st0" d="M26,7.5h-1.3c-1.1,0-2.1-0.4-2.8-1.2l-2.2-2.2c-0.4-0.4-0.9-0.6-1.4-0.6h-4.3c-0.5,0-1,0.2-1.4,0.6l-2.2,2.2
		C9.4,7.1,8.4,7.5,7.3,7.5H6c-2.2,0-4,1.8-4,4v13c0,2.2,1.8,4,4,4h20c2.2,0,4-1.8,4-4v-13C30,9.3,28.2,7.5,26,7.5z M28,24.5
		c0,1.1-0.9,2-2,2H6c-1.1,0-2-0.9-2-2v-13c0-1.1,0.9-2,2-2h1.3c1.6,0,3.1-0.6,4.2-1.8l2.2-2.2h4.3l2.2,2.2c1.1,1.1,2.6,1.8,4.2,1.8
		H26c1.1,0,2,0.9,2,2V24.5z"/>
	<path class="st0" d="M16,11.5c-3.3,0-6,2.7-6,6s2.7,6,6,6s6-2.7,6-6S19.3,11.5,16,11.5z M16,22.5c-2.8,0-5-2.2-5-5s2.2-5,5-5
		s5,2.2,5,5S18.8,22.5,16,22.5z"/>
	<circle class="st0" cx="24" cy="13.5" r="1"/>
</g>
</svg>
