<?xml version="1.0" encoding="utf-8"?>
<!-- Generator: Adobe Illustrator 19.1.0, SVG Export Plug-In . SVG Version: 6.00 Build 0)  -->
<svg version="1.1" id="Layer_1" xmlns="http://www.w3.org/2000/svg" xmlns:xlink="http://www.w3.org/1999/xlink" x="0px" y="0px"
	 width="48px" height="48px" viewBox="0 0 48 48" style="enable-background:new 0 0 48 48;" xml:space="preserve">
<style type="text/css">
	.st0{fill:#A14944;}
</style>
<g>
	<path class="st0" d="M44,11.5h-1.3c-1.1,0-2.1-0.4-2.8-1.2l-4.2-4.2c-0.4-0.4-0.9-0.6-1.4-0.6H23.8c-0.5,0-1,0.2-1.4,0.6l-4.2,4.2
		c-0.8,0.8-1.8,1.2-2.8,1.2H6c-3.3,0-6,2.7-6,6v19c0,3.3,2.7,6,6,6h38c2.2,0,4-1.8,4-4v-23C48,13.3,46.2,11.5,44,11.5z M2,17.5
		c0-2.2,1.8-4,4-4h1V18c0,0.8-0.7,1.5-1.5,1.5H2V17.5z M6,40.5c-2.2,0-4-1.8-4-4v-16h3.5C6.9,20.5,8,19.4,8,18v-4.5h3v27H6z
		 M46,38.5c0,1.1-0.9,2-2,2H12v-27h3.3c1.6,0,3.1-0.6,4.2-1.8l4.2-4.2h10.3l4.2,4.2c1.1,1.1,2.6,1.8,4.2,1.8H44c1.1,0,2,0.9,2,2
		V38.5z"/>
	<path class="st0" d="M29,13.5c-6.6,0-12,5.4-12,12c0,6.6,5.4,12,12,12s12-5.4,12-12C41,18.9,35.6,13.5,29,13.5z M29,35.5
		c-5.5,0-10-4.5-10-10c0-5.5,4.5-10,10-10s10,4.5,10,10C39,31,34.5,35.5,29,35.5z"/>
	<path class="st0" d="M29,17.5c-4.4,0-8,3.6-8,8s3.6,8,8,8s8-3.6,8-8S33.4,17.5,29,17.5z M29,32.5c-3.9,0-7-3.1-7-7s3.1-7,7-7
		s7,3.1,7,7S32.9,32.5,29,32.5z"/>
	<path class="st0" d="M42.5,15.5c-0.8,0-1.5,0.7-1.5,1.5s0.7,1.5,1.5,1.5S44,17.8,44,17S43.3,15.5,42.5,15.5z M42.5,17.5
		c-0.3,0-0.5-0.2-0.5-0.5s0.2-0.5,0.5-0.5S43,16.7,43,17S42.8,17.5,42.5,17.5z"/>
	<path class="st0" d="M26,10.5h7c0.3,0,0.5-0.2,0.5-0.5S33.3,9.5,33,9.5h-7c-0.3,0-0.5,0.2-0.5,0.5S25.7,10.5,26,10.5z"/>
</g>
</svg>
