<?xml version="1.0" encoding="utf-8"?>
<!-- Generator: Adobe Illustrator 19.1.0, SVG Export Plug-In . SVG Version: 6.00 Build 0)  -->
<svg version="1.1" id="Layer_1" xmlns="http://www.w3.org/2000/svg" xmlns:xlink="http://www.w3.org/1999/xlink" x="0px" y="0px"
	 width="48px" height="48px" viewBox="0 0 48 48" style="enable-background:new 0 0 48 48;" xml:space="preserve">
<style type="text/css">
	.st0{fill:#A14944;}
</style>
<g>
	<path class="st0" d="M6,45c1.1,0,2-0.9,2-2s-0.9-2-2-2s-2,0.9-2,2S4.9,45,6,45z M6,42c0.6,0,1,0.4,1,1s-0.4,1-1,1s-1-0.4-1-1
		S5.4,42,6,42z"/>
	<path class="st0" d="M12,45c1.1,0,2-0.9,2-2s-0.9-2-2-2s-2,0.9-2,2S10.9,45,12,45z M12,42c0.6,0,1,0.4,1,1s-0.4,1-1,1s-1-0.4-1-1
		S11.4,42,12,42z"/>
	<path class="st0" d="M18,45c1.1,0,2-0.9,2-2s-0.9-2-2-2s-2,0.9-2,2S16.9,45,18,45z M18,42c0.6,0,1,0.4,1,1s-0.4,1-1,1s-1-0.4-1-1
		S17.4,42,18,42z"/>
	<path class="st0" d="M24,45c1.1,0,2-0.9,2-2s-0.9-2-2-2s-2,0.9-2,2S22.9,45,24,45z M24,42c0.6,0,1,0.4,1,1s-0.4,1-1,1s-1-0.4-1-1
		S23.4,42,24,42z"/>
	<path class="st0" d="M47.9,24.6L37.9,3c-0.9-1.8-2.3-2.8-3.9-3c-1.7-0.1-3.4,0.8-4.5,2.4L19.5,16H13c-2.8,0-5,2.2-5,5v4H6
		c-2.8,0-5,2.2-5,5v4c0,1.7,1.3,3,3,3h6v1H4c-2.2,0-4,1.8-4,4v2c0,2.2,1.8,4,4,4h22c2.2,0,4-1.8,4-4v-2c0-2.2-1.8-4-4-4h-7v-1h4
		c1.7,0,3-1.3,3-3v-0.2c1.2-0.4,2-1.5,2-2.8v-3c0-0.2,0-0.3-0.1-0.5l-2-3.8l7.1-11.8l8.7,13c0.5,0.7,0.6,1.5,0.4,2.4
		c-0.2,0.8-0.7,1.5-1.5,1.9l-5,2.8H34c-0.4,0-0.8,0.2-0.9,0.6s-0.1,0.8,0.2,1.1l4.7,4.9c0.9,0.9,2.2,1.3,3.4,1.3
		c1,0,1.9-0.3,2.8-0.8l2.5-1.7c0.8-0.6,1.3-1.5,1.3-2.5V25C48,24.9,48,24.7,47.9,24.6z M33.5,9.8C32.1,9.8,31,8,31,5.9
		c0-1.5,0.6-2.9,1.5-3.5c0.4-0.2,0.9-0.3,1.3-0.3c0,0,0,0,0,0c0.1,0,0.1,0,0.2,0c1.1,0.4,2,2,2,3.8C36,8,34.9,9.8,33.5,9.8z M4,35
		c-0.6,0-1-0.4-1-1v-4c0-1.7,1.3-3,3-3h3v8H4z M26,40c1.1,0,2,0.9,2,2v2c0,1.1-0.9,2-2,2H4c-1.1,0-2-0.9-2-2v-2c0-1.1,0.9-2,2-2H26z
		 M12,38v-2h5v2H12z M24,34c0,0.6-0.4,1-1,1h-5h-7h-1v-9v-5c0-1.7,1.3-3,3-3v10.5c0,2.5,2,4.5,4.5,4.5H24V34z M26,28.2V31
		c0,0.6-0.4,1-1,1h-7.5c-0.2,0-0.3,0-0.5-0.1V20c0-0.3-0.2-0.5-0.5-0.5S16,19.7,16,20v11.6c-1.2-0.6-2-1.8-2-3.1V18h5.8l4,5.9
		c0,0.1,0,0.2,0.1,0.3L26,28.2z M31.3,10.9l-7.1,11.8l-3.5-5.1c0,0,0,0,0.1-0.1L30.1,5C30,5.3,30,5.6,30,5.9c0,1.9,0.8,3.6,2,4.4
		C31.7,10.4,31.5,10.6,31.3,10.9z M34.7,10.8c-0.1-0.1-0.2-0.2-0.2-0.3C35.9,9.9,37,8.1,37,5.9c0,0,0-0.1,0-0.1l9,19.4v0.1
		c-0.3-0.2-0.6-0.3-1-0.3c-0.4,0-0.7,0.1-1,0.3c-0.1-0.5-0.3-1-0.6-1.5L34.7,10.8z M45,26c0.4,0,0.8,0.5,0.8,1s-0.4,1-0.8,1
		s-0.8-0.5-0.8-1S44.6,26,45,26z M45.6,35.8L43,37.4c-1.1,0.8-2.7,0.7-3.6-0.2L36.3,34c0.1,0,0.1,0,0.2-0.1l5.2-2.9
		c1-0.6,1.7-1.4,2.2-2.5c0.3,0.3,0.7,0.5,1.2,0.5c0.4,0,0.7-0.1,1-0.3v6.3C46,35.3,45.8,35.6,45.6,35.8z"/>
	<path class="st0" d="M7,29H6c-0.6,0-1,0.4-1,1v2c0,0.6,0.4,1,1,1h1c0.6,0,1-0.4,1-1v-2C8,29.4,7.6,29,7,29z M7,32H6v-2h1V32z"/>
</g>
</svg>
