<?xml version="1.0" encoding="utf-8"?>
<!-- Generator: Adobe Illustrator 19.1.0, SVG Export Plug-In . SVG Version: 6.00 Build 0)  -->
<svg version="1.1" id="Layer_1" xmlns="http://www.w3.org/2000/svg" xmlns:xlink="http://www.w3.org/1999/xlink" x="0px" y="0px"
	 width="48px" height="48px" viewBox="0 0 48 48" style="enable-background:new 0 0 48 48;" xml:space="preserve">
<style type="text/css">
	.st0{fill:#A14944;}
</style>
<g>
	<path class="st0" d="M33.1,16.6c-8.3,0-15,6.7-15,15c0,8.3,6.7,15,15,15c8.3,0,15-6.7,15-15C48.1,23.3,41.4,16.6,33.1,16.6z
		 M33.1,44.6c-7.2,0-13-5.8-13-13s5.8-13,13-13c7.2,0,13,5.8,13,13S40.3,44.6,33.1,44.6z"/>
	<path class="st0" d="M33.1,20.6c-6.1,0-11,4.9-11,11s4.9,11,11,11s11-4.9,11-11S39.2,20.6,33.1,20.6z M33.1,41.6
		c-5.5,0-10-4.5-10-10c0-5.5,4.5-10,10-10c5.5,0,10,4.5,10,10C43.1,37.1,38.6,41.6,33.1,41.6z"/>
	<path class="st0" d="M38.7,27.2l-5.4,5.4c-0.2,0.2-0.4,0.2-0.6,0.1l-4.3-2.6c-0.2-0.1-0.5-0.1-0.7,0.2c-0.1,0.2-0.1,0.5,0.2,0.7
		l4.3,2.6c0.2,0.1,0.5,0.2,0.8,0.2c0.4,0,0.8-0.2,1.1-0.4l5.4-5.4c0.2-0.2,0.2-0.5,0-0.7S38.9,27,38.7,27.2z"/>
	<path class="st0" d="M15.1,39.6h-9v-19H2.9c-0.6,0-0.9-0.5-0.9-0.6c-0.1-0.1-0.2-0.7,0.2-1.1L6.1,15V4.6h5V10l7.3-7.3
		c0.4-0.4,1-0.4,1.4,0l9.6,9.6c0.4,0.4,1,0.4,1.4,0s0.4-1,0-1.4l-9.6-9.6c-1.1-1.1-3.1-1.1-4.2,0l-3.9,3.9V4.6c0-1.1-0.9-2-2-2h-5
		c-1.1,0-2,0.9-2,2v9.6l-3.3,3.3c-0.9,0.9-1.1,2.1-0.7,3.3c0.5,1.1,1.5,1.9,2.8,1.9h1.2v17c0,1.1,0.9,2,2,2h9c0.6,0,1-0.4,1-1
		S15.6,39.6,15.1,39.6z"/>
	<path class="st0" d="M16.1,21.6h-3.5c-0.8,0-1.5,0.7-1.5,1.5v8c0,0.8,0.7,1.5,1.5,1.5h1.5c0.3,0,0.5-0.2,0.5-0.5s-0.2-0.5-0.5-0.5
		h-1.5c-0.3,0-0.5-0.2-0.5-0.5v-8c0-0.3,0.2-0.5,0.5-0.5h3.5c0.3,0,0.5-0.2,0.5-0.5S16.4,21.6,16.1,21.6z"/>
</g>
</svg>
