<?xml version="1.0" encoding="utf-8"?>
<!-- Generator: Adobe Illustrator 19.1.0, SVG Export Plug-In . SVG Version: 6.00 Build 0)  -->
<svg version="1.1" id="Layer_1" xmlns="http://www.w3.org/2000/svg" xmlns:xlink="http://www.w3.org/1999/xlink" x="0px" y="0px"
	 width="32px" height="32px" viewBox="0 0 32 32" style="enable-background:new 0 0 32 32;" xml:space="preserve">
<style type="text/css">
	.st0{fill:#A14944;}
</style>
<g>
	<path class="st0" d="M12.5,6.5c-3.3,0-6,2.7-6,6C6.5,12.7,6.7,13,7,13s0.5-0.2,0.5-0.5c0-2.8,2.2-5,5-5C12.7,7.5,13,7.2,13,7
		S12.7,6.5,12.5,6.5z"/>
	<path class="st0" d="M30.7,25.3L22.4,17c0.6-1.4,1-2.9,1-4.6c0-6.1-4.9-11-11-11s-11,4.9-11,11s4.9,11,11,11c1.6,0,3.2-0.4,4.6-1
		l8.2,8.2c0.6,0.6,1.3,0.9,2.1,0.9c0.8,0,1.6-0.3,2.1-0.9l1.2-1.2c0.6-0.6,0.9-1.3,0.9-2.1C31.5,26.6,31.2,25.8,30.7,25.3z
		 M3.5,12.5c0-5,4-9,9-9c5,0,9,4,9,9s-4,9-9,9C7.5,21.5,3.5,17.4,3.5,12.5z M21.4,18.8l2,2l-2.6,2.6l-2-2
		C19.8,20.7,20.7,19.8,21.4,18.8z M29.3,28.1l-1.2,1.2c-0.4,0.4-1,0.4-1.4,0l-5.1-5.1l2.6-2.6l5.1,5.1c0.2,0.2,0.3,0.4,0.3,0.7
		C29.5,27.6,29.4,27.9,29.3,28.1z"/>
</g>
</svg>
