<?xml version="1.0" encoding="utf-8"?>
<!-- Generator: Adobe Illustrator 19.1.0, SVG Export Plug-In . SVG Version: 6.00 Build 0)  -->
<svg version="1.1" id="Layer_1" xmlns="http://www.w3.org/2000/svg" xmlns:xlink="http://www.w3.org/1999/xlink" x="0px" y="0px"
	 width="48px" height="48px" viewBox="0 0 48 48" style="enable-background:new 0 0 48 48;" xml:space="preserve">
<style type="text/css">
	.st0{fill:#A14944;}
</style>
<g>
	<path class="st0" d="M39,3H19c-1.1,0-2,0.9-2,2c-0.4,0-0.8,0.2-0.9,0.6l-2.6,6l-6-3.4C7.1,7.9,6.6,8,6.3,8.3l-3,3
		c-0.3,0.3-0.4,0.8-0.2,1.2l3.4,6l-6,2.6C0.2,21.2,0,21.6,0,22v4c0,0.4,0.2,0.8,0.6,0.9l5.9,2.5l-3.3,5c-0.3,0.4-0.2,0.9,0.1,1.3
		l3,3C6.5,38.9,6.7,39,7,39c0.2,0,0.3,0,0.5-0.1l6-3.4l2.6,6c0.2,0.4,0.5,0.6,0.9,0.6v1c0,1.1,0.9,2,2,2h27c1.1,0,2-0.9,2-2V12L39,3
		z M39,5.8l6.2,6.2h-4.7c-0.8,0-1.5-0.7-1.5-1.5V5.8z M17,29c-2.8-0.3-5-2.6-5-5.5c0-2.9,2.2-5.2,5-5.5V29z M14.9,33.6L14.9,33.6
		c0,0,0-0.1-0.1-0.1c-0.3-0.5-0.9-0.6-1.4-0.4l-6.3,3.6l-1.9-1.9l3.5-5.3c0,0,0,0,0-0.1c0,0,0-0.1,0.1-0.1c0,0,0-0.1,0-0.1
		c0-0.1,0-0.1,0-0.2C9,29,9,29,9,28.9c0-0.1,0-0.1,0-0.2c0-0.1,0-0.1-0.1-0.2c0-0.1-0.1-0.1-0.1-0.2c0-0.1-0.1-0.1-0.1-0.1
		c0,0,0-0.1-0.1-0.1c0,0-0.1,0-0.1,0c0,0,0,0-0.1-0.1L2,25.3v-2.7l6.4-2.7c0,0,0,0,0,0c0,0,0,0,0.1,0c0,0,0.1-0.1,0.1-0.1
		c0.1,0,0.1-0.1,0.1-0.1c0,0,0.1-0.1,0.1-0.2c0-0.1,0.1-0.1,0.1-0.2c0-0.1,0-0.1,0-0.2c0-0.1,0-0.1,0-0.2c0-0.1,0-0.1,0-0.2
		c0,0,0-0.1,0-0.1c0,0,0,0,0,0c0,0,0,0,0-0.1l-3.6-6.3l1.9-1.9l6.3,3.6c0,0,0,0,0.1,0c0,0,0,0,0,0c0,0,0.1,0,0.1,0
		c0.1,0,0.1,0,0.2,0c0,0,0,0,0.1,0c0.1,0,0.1,0,0.2,0c0,0,0,0,0.1,0c0.1,0,0.2-0.1,0.3-0.2c0,0,0,0,0.1-0.1c0.1-0.1,0.1-0.1,0.2-0.2
		c0,0,0,0,0,0c0,0,0,0,0,0c0,0,0,0,0-0.1L17,8.5V17c-3.4,0.3-6,3.1-6,6.5s2.6,6.2,6,6.5v8.5L14.9,33.6z M46,43H19V6c0,0,0,0,0,0
		s0,0,0,0V5h19v5.5c0,1.4,1.1,2.5,2.5,2.5H46V43z"/>
	<path class="st0" d="M23,20h17c0.3,0,0.5-0.2,0.5-0.5S40.3,19,40,19H23c-0.3,0-0.5,0.2-0.5,0.5S22.7,20,23,20z"/>
	<path class="st0" d="M23,25h17c0.3,0,0.5-0.2,0.5-0.5S40.3,24,40,24H23c-0.3,0-0.5,0.2-0.5,0.5S22.7,25,23,25z"/>
	<path class="st0" d="M30,29h-7c-0.3,0-0.5,0.2-0.5,0.5S22.7,30,23,30h7c0.3,0,0.5-0.2,0.5-0.5S30.3,29,30,29z"/>
	<path class="st0" d="M31.4,34.6c-0.2-0.2-0.5-0.2-0.7,0s-0.2,0.5,0,0.7l3,3c0.1,0.1,0.2,0.1,0.4,0.1c0,0,0,0,0,0
		c0.1,0,0.3-0.1,0.4-0.2l7-8c0.2-0.2,0.2-0.5,0-0.7c-0.2-0.2-0.5-0.2-0.7,0L34,37.3L31.4,34.6z"/>
</g>
</svg>
