<?xml version="1.0" encoding="utf-8"?>
<!-- Generator: Adobe Illustrator 19.1.0, SVG Export Plug-In . SVG Version: 6.00 Build 0)  -->
<svg version="1.1" id="Layer_1" xmlns="http://www.w3.org/2000/svg" xmlns:xlink="http://www.w3.org/1999/xlink" x="0px" y="0px"
	 width="48px" height="48px" viewBox="0 0 48 48" style="enable-background:new 0 0 48 48;" xml:space="preserve">
<style type="text/css">
	.st0{fill:#A14944;}
	.st1{fill:none;stroke:#A14944;stroke-width:2;stroke-linecap:round;stroke-linejoin:round;stroke-miterlimit:10;}
</style>
<g>
	<path class="st0" d="M7,16c2.8,0,5,2.2,5,5s-2.2,5-5,5s-5-2.2-5-5S4.2,16,7,16 M7,14c-3.9,0-7,3.1-7,7s3.1,7,7,7s7-3.1,7-7
		S10.9,14,7,14L7,14z"/>
</g>
<g>
	<path class="st0" d="M24,30c2.8,0,5,2.2,5,5s-2.2,5-5,5s-5-2.2-5-5S21.2,30,24,30 M24,28c-3.9,0-7,3.1-7,7s3.1,7,7,7s7-3.1,7-7
		S27.9,28,24,28L24,28z"/>
</g>
<g>
	<path class="st0" d="M41,8c2.8,0,5,2.2,5,5s-2.2,5-5,5s-5-2.2-5-5S38.2,8,41,8 M41,6c-3.9,0-7,3.1-7,7s3.1,7,7,7s7-3.1,7-7
		S44.9,6,41,6L41,6z"/>
</g>
<line class="st1" x1="7" y1="14" x2="7" y2="1"/>
<line class="st1" x1="7" y1="28" x2="7" y2="47"/>
<line class="st1" x1="24" y1="28" x2="24" y2="1"/>
<line class="st1" x1="24" y1="42" x2="24" y2="47"/>
<line class="st1" x1="41" y1="6" x2="41" y2="1"/>
<line class="st1" x1="41" y1="20" x2="41" y2="47"/>
</svg>
