<?xml version="1.0" encoding="utf-8"?>
<!-- Generator: Adobe Illustrator 19.1.0, SVG Export Plug-In . SVG Version: 6.00 Build 0)  -->
<svg version="1.1" id="Layer_1" xmlns="http://www.w3.org/2000/svg" xmlns:xlink="http://www.w3.org/1999/xlink" x="0px" y="0px"
	 width="32px" height="32px" viewBox="0 0 32 32" style="enable-background:new 0 0 32 32;" xml:space="preserve">
<style type="text/css">
	.st0{fill:#A14944;}
</style>
<g>
	<path class="st0" d="M4,11c-2.2,0-4,1.8-4,4c0,2.2,1.8,4,4,4s4-1.8,4-4C8,12.8,6.2,11,4,11z M4,18c-1.7,0-3-1.3-3-3
		c0-1.7,1.3-3,3-3s3,1.3,3,3C7,16.7,5.7,18,4,18z"/>
	<path class="st0" d="M28,7c-2.2,0-4,1.8-4,4c0,2.2,1.8,4,4,4s4-1.8,4-4C32,8.8,30.2,7,28,7z M28,14c-1.7,0-3-1.3-3-3
		c0-1.7,1.3-3,3-3s3,1.3,3,3C31,12.7,29.7,14,28,14z"/>
	<path class="st0" d="M16,18c-2.2,0-4,1.8-4,4c0,2.2,1.8,4,4,4s4-1.8,4-4C20,19.8,18.2,18,16,18z M16,25c-1.7,0-3-1.3-3-3
		c0-1.7,1.3-3,3-3s3,1.3,3,3C19,23.7,17.7,25,16,25z"/>
	<path class="st0" d="M4,10c0.6,0,1-0.4,1-1V1c0-0.6-0.4-1-1-1S3,0.4,3,1v8C3,9.6,3.4,10,4,10z"/>
	<path class="st0" d="M4,20c-0.6,0-1,0.4-1,1v10c0,0.6,0.4,1,1,1s1-0.4,1-1V21C5,20.4,4.6,20,4,20z"/>
	<path class="st0" d="M16,27c-0.6,0-1,0.4-1,1v3c0,0.6,0.4,1,1,1s1-0.4,1-1v-3C17,27.4,16.6,27,16,27z"/>
	<path class="st0" d="M16,17c0.6,0,1-0.4,1-1V1c0-0.6-0.4-1-1-1s-1,0.4-1,1v15C15,16.6,15.4,17,16,17z"/>
	<path class="st0" d="M28,6c0.6,0,1-0.4,1-1V1c0-0.6-0.4-1-1-1s-1,0.4-1,1v4C27,5.6,27.4,6,28,6z"/>
	<path class="st0" d="M28,16c-0.6,0-1,0.4-1,1v14c0,0.6,0.4,1,1,1s1-0.4,1-1V17C29,16.4,28.6,16,28,16z"/>
</g>
</svg>
