<?xml version="1.0" encoding="utf-8"?>
<!-- Generator: Adobe Illustrator 19.1.0, SVG Export Plug-In . SVG Version: 6.00 Build 0)  -->
<svg version="1.1" id="Layer_1" xmlns="http://www.w3.org/2000/svg" xmlns:xlink="http://www.w3.org/1999/xlink" x="0px" y="0px"
	 width="32px" height="32px" viewBox="0 0 32 32" style="enable-background:new 0 0 32 32;" xml:space="preserve">
<style type="text/css">
	.st0{fill:#A14944;}
</style>
<path class="st0" d="M25.5,22c-1.4,0-2.6,0.6-3.4,1.6c0,0,0,0,0,0l-5.8-3.9c0.5-1,0.7-2,0.7-3.2c0-1.1-0.3-2.2-0.7-3.2l6.1-4.4
	c0,0,0.1-0.1,0.1-0.1c0.8,0.7,1.8,1.2,3,1.2C28,10,30,8,30,5.5S28,1,25.5,1S21,3,21,5.5c0,0.6,0.1,1.2,0.4,1.8c0,0-0.1,0-0.1,0
	l-6.1,4.3C13.8,10,11.8,9,9.5,9C5.4,9,2,12.4,2,16.5S5.4,24,9.5,24c2.3,0,4.3-1,5.7-2.6c0,0,5.9,4,6,4c-0.1,0.4-0.2,0.8-0.2,1.2
	c0,2.5,2,4.5,4.5,4.5s4.5-2,4.5-4.5S28,22,25.5,22z M25.5,2C27.4,2,29,3.6,29,5.5C29,7.4,27.4,9,25.5,9S22,7.4,22,5.5
	C22,3.6,23.6,2,25.5,2z M9.5,22c-3,0-5.5-2.5-5.5-5.5S6.5,11,9.5,11s5.5,2.5,5.5,5.5S12.5,22,9.5,22z M25.5,30
	c-1.9,0-3.5-1.6-3.5-3.5c0-1.9,1.6-3.5,3.5-3.5s3.5,1.6,3.5,3.5C29,28.4,27.4,30,25.5,30z"/>
</svg>
