<?xml version="1.0" encoding="utf-8"?>
<!-- Generator: Adobe Illustrator 19.1.0, SVG Export Plug-In . SVG Version: 6.00 Build 0)  -->
<svg version="1.1" id="Layer_1" xmlns="http://www.w3.org/2000/svg" xmlns:xlink="http://www.w3.org/1999/xlink" x="0px" y="0px"
	 width="48px" height="48px" viewBox="0 0 48 48" style="enable-background:new 0 0 48 48;" xml:space="preserve">
<style type="text/css">
	.st0{fill:#A14944;}
</style>
<g>
	<path class="st0" d="M24,0C10.7,0,0,10.7,0,24s10.7,24,24,24s24-10.7,24-24S37.3,0,24,0z M24,46C11.9,46,2,36.1,2,24S11.9,2,24,2
		s22,9.9,22,22S36.1,46,24,46z"/>
	<path class="st0" d="M35.7,37.7C32.4,40.5,28.3,42,24,42c-4.3,0-8.4-1.5-11.7-4.3c-0.2-0.2-0.5-0.2-0.7,0.1s-0.2,0.5,0.1,0.7
		C15.1,41.4,19.5,43,24,43c4.5,0,8.9-1.6,12.3-4.5c0.2-0.2,0.2-0.5,0.1-0.7C36.2,37.5,35.9,37.5,35.7,37.7z"/>
	<path class="st0" d="M11.3,11.3C14.7,7.9,19.2,6,24,6c5,0,9.7,2.1,13.1,5.7c0.1,0.1,0.2,0.2,0.4,0.2c0.1,0,0.2,0,0.3-0.1
		c0.2-0.2,0.2-0.5,0-0.7C34.3,7.2,29.2,5,24,5c-5.1,0-9.8,2-13.4,5.6c-0.2,0.2-0.2,0.5,0,0.7S11.1,11.5,11.3,11.3z"/>
	<path class="st0" d="M37,16c-3,0-5.4,2.2-5.9,5c-0.2,0-0.4,0-0.6,0s-0.4,0-0.6,0c-0.5-2.8-2.9-5-5.9-5s-5.4,2.2-5.9,5
		c-0.2,0-0.4,0-0.6,0s-0.4,0-0.6,0c-0.5-2.8-2.9-5-5.9-5c-3.3,0-6,2.7-6,6s2.7,6,6,6c0.2,0,0.4,0,0.6,0c0.5,2.8,2.9,5,5.9,5
		s5.4-2.2,5.9-5c0.2,0,0.4,0,0.6,0s0.4,0,0.6,0c0.5,2.8,2.9,5,5.9,5s5.4-2.2,5.9-5c0.2,0,0.4,0,0.6,0c3.3,0,6-2.7,6-6S40.3,16,37,16
		z M6,22c0-2.8,2.2-5,5-5c2.5,0,4.5,1.8,4.9,4.2c-2.5,0.7-4.4,3-4.4,5.7C11.3,27,11.2,27,11,27C8.2,27,6,24.8,6,22z M16,22.3
		c-0.1,2.1-1.5,3.8-3.4,4.5C12.6,24.6,14,22.9,16,22.3z M17.5,32c-2.5,0-4.5-1.8-4.9-4.2c2.5-0.7,4.4-3,4.4-5.7
		c0.2,0,0.3-0.1,0.5-0.1s0.3,0,0.5,0.1c0,2.7,1.9,5,4.4,5.7C22,30.2,20,32,17.5,32z M19,22.3c1.9,0.6,3.3,2.4,3.4,4.5
		C20.5,26.1,19.1,24.4,19,22.3z M23.5,26.9c0-2.7-1.9-5-4.4-5.7c0.4-2.4,2.4-4.2,4.9-4.2s4.5,1.8,4.9,4.2c-2.5,0.7-4.4,3-4.4,5.7
		C24.3,27,24.2,27,24,27S23.7,27,23.5,26.9z M29,22.3c-0.1,2.1-1.5,3.8-3.4,4.5C25.6,24.6,27,22.9,29,22.3z M30.5,32
		c-2.5,0-4.5-1.8-4.9-4.2c2.5-0.7,4.4-3,4.4-5.7c0.2,0,0.3-0.1,0.5-0.1s0.3,0,0.5,0.1c0,2.7,1.9,5,4.4,5.7C35,30.2,33,32,30.5,32z
		 M32,22.3c1.9,0.6,3.3,2.4,3.4,4.5C33.5,26.1,32.1,24.4,32,22.3z M37,27c-0.2,0-0.3,0-0.5-0.1c0-2.7-1.9-5-4.4-5.7
		c0.4-2.4,2.4-4.2,4.9-4.2c2.8,0,5,2.2,5,5S39.8,27,37,27z"/>
</g>
</svg>
