<?xml version="1.0" encoding="utf-8"?>
<!-- Generator: Adobe Illustrator 19.1.0, SVG Export Plug-In . SVG Version: 6.00 Build 0)  -->
<svg version="1.1" id="Layer_1" xmlns="http://www.w3.org/2000/svg" xmlns:xlink="http://www.w3.org/1999/xlink" x="0px" y="0px"
	 width="48px" height="48px" viewBox="0 0 48 48" style="enable-background:new 0 0 48 48;" xml:space="preserve">
<style type="text/css">
	.st0{fill:#A14944;}
</style>
<g>
	<path class="st0" d="M44,11.6h-6.8c0-0.1-0.1-0.3-0.2-0.4l-9.9-9.9c-1.1-1.1-3.1-1.1-4.2,0L12.7,11.5c0,0-0.1,0.1-0.1,0.1H4
		c-2.2,0-4,1.8-4,4v27c0,2.2,1.8,4,4,4h40c2.2,0,4-1.8,4-4v-27C48,13.4,46.2,11.6,44,11.6z M24.3,2.7c0.4-0.4,1-0.4,1.4,0l8.8,8.9
		h-2.8l-6.4-6.4c-0.2-0.2-0.5-0.2-0.7,0l-6.4,6.4h-2.9L24.3,2.7z M30.3,11.6H19.7L25,6.3L30.3,11.6z M44,44.6v-11h-1v11H4
		c-1.1,0-2-0.9-2-2v-27c0-1.1,0.9-2,2-2h40c1.1,0,2,0.9,2,2v7h-2v-9h-1v9h-2v-4.5c0-1.4-1.1-2.5-2.5-2.5h-32c-1.4,0-2.5,1.1-2.5,2.5
		v22c0,1.4,1.1,2.5,2.5,2.5h32c1.4,0,2.5-1.1,2.5-2.5v-6.5h-1v6.5c0,0.8-0.7,1.5-1.5,1.5h-32c-0.8,0-1.5-0.7-1.5-1.5v-22
		c0-0.8,0.7-1.5,1.5-1.5h32c0.8,0,1.5,0.7,1.5,1.5v4.5h-4c-2.2,0-4,1.8-4,4v3c0,2.2,1.8,4,4,4h10v9C46,43.7,45.1,44.6,44,44.6z
		 M46,32.6H36c-1.7,0-3-1.3-3-3v-3c0-1.7,1.3-3,3-3h10V32.6z"/>
	<path class="st0" d="M35,28.1c0,1.4,1.1,2.5,2.5,2.5s2.5-1.1,2.5-2.5c0-1.4-1.1-2.5-2.5-2.5S35,26.7,35,28.1z M37.5,26.6
		c0.8,0,1.5,0.7,1.5,1.5c0,0.8-0.7,1.5-1.5,1.5S36,28.9,36,28.1C36,27.3,36.7,26.6,37.5,26.6z"/>
</g>
</svg>
