<?xml version="1.0" encoding="utf-8"?>
<!-- Generator: Adobe Illustrator 19.1.0, SVG Export Plug-In . SVG Version: 6.00 Build 0)  -->
<svg version="1.1" id="Layer_1" xmlns="http://www.w3.org/2000/svg" xmlns:xlink="http://www.w3.org/1999/xlink" x="0px" y="0px"
	 width="32px" height="32px" viewBox="0 0 32 32" style="enable-background:new 0 0 32 32;" xml:space="preserve">
<style type="text/css">
	.st0{fill:#A14944;}
</style>
<g>
	<path class="st0" d="M24.5,12V8c0-4.4-3.6-8-8-8s-8,3.6-8,8c0,0.6,0.4,1,1,1s1-0.4,1-1c0-3.3,2.7-6,6-6s6,2.7,6,6v4h-15
		c-2.2,0-4,1.8-4,4v10c0,3.3,2.7,6,6,6h13c3.3,0,6-2.7,6-6V16C28.5,13.8,26.7,12,24.5,12z M26.5,26c0,2.2-1.8,4-4,4h-13
		c-2.2,0-4-1.8-4-4V16c0-1.1,0.9-2,2-2h17c1.1,0,2,0.9,2,2V26z"/>
	<path class="st0" d="M17.8,22.5c1-0.6,1.7-1.7,1.7-3c0-1.9-1.6-3.5-3.5-3.5s-3.5,1.6-3.5,3.5c0,1.3,0.7,2.4,1.7,3l-2,4
		c-0.3,0.7,0.2,1.4,0.9,1.4h5.8c0.7,0,1.2-0.8,0.9-1.4L17.8,22.5z M13.1,27l2-4l0.4-0.8l-0.8-0.5c-0.8-0.5-1.2-1.3-1.2-2.1
		c0-1.4,1.1-2.5,2.5-2.5s2.5,1.1,2.5,2.5c0,0.9-0.5,1.7-1.2,2.1l-0.8,0.5l0.4,0.8l2,4H13.1z"/>
</g>
</svg>
