<?xml version="1.0" encoding="utf-8"?>
<!-- Generator: Adobe Illustrator 19.1.0, SVG Export Plug-In . SVG Version: 6.00 Build 0)  -->
<svg version="1.1" id="Layer_1" xmlns="http://www.w3.org/2000/svg" xmlns:xlink="http://www.w3.org/1999/xlink" x="0px" y="0px"
	 width="48px" height="48px" viewBox="0 0 48 48" style="enable-background:new 0 0 48 48;" xml:space="preserve">
<style type="text/css">
	.st0{fill:#A14944;}
</style>
<g>
	<path class="st0" d="M38,0H10C7.2,0,5,2.2,5,5v41c0,1.1,0.9,2,2,2h34c1.1,0,2-0.9,2-2V5C43,2.2,40.8,0,38,0z M41,46H7V5
		c0-1.7,1.3-3,3-3h28c1.7,0,3,1.3,3,3V46z"/>
	<path class="st0" d="M15,28c0,5,4,9,9,9s9-4,9-9c0-5-4-9-9-9S15,23,15,28z M17,28c0-3.9,3.1-7,7-7c1.5,0,2.9,0.5,4.1,1.3
		c-2.4,0.8-4.1,3-4.1,5.7s1.7,4.9,4.1,5.7C26.9,34.5,25.5,35,24,35C20.1,35,17,31.9,17,28z M31,28c0,1.9-0.8,3.6-2,4.9
		c-2.3-0.5-4-2.5-4-4.9s1.7-4.4,4-4.9C30.2,24.4,31,26.1,31,28z"/>
	<path class="st0" d="M12,28c0,6.6,5.4,12,12,12s12-5.4,12-12c0-6.6-5.4-12-12-12S12,21.4,12,28z M35,28c0,6.1-4.9,11-11,11
		s-11-4.9-11-11s4.9-11,11-11S35,21.9,35,28z"/>
	<path class="st0" d="M9,14v30h30V14c0,0-4.1-3-15-3S9,14,9,14z M38,43H10V14.6c1.3-0.7,5.5-2.6,14-2.6c8.5,0,12.8,1.9,14,2.6V43z"
		/>
	<path class="st0" d="M11,8.5c0.8,0,1.5-0.7,1.5-1.5S11.8,5.5,11,5.5S9.5,6.2,9.5,7S10.2,8.5,11,8.5z M11,6.5c0.3,0,0.5,0.2,0.5,0.5
		S11.3,7.5,11,7.5S10.5,7.3,10.5,7S10.7,6.5,11,6.5z"/>
	<path class="st0" d="M15,8.5c0.8,0,1.5-0.7,1.5-1.5S15.8,5.5,15,5.5S13.5,6.2,13.5,7S14.2,8.5,15,8.5z M15,6.5
		c0.3,0,0.5,0.2,0.5,0.5S15.3,7.5,15,7.5S14.5,7.3,14.5,7S14.7,6.5,15,6.5z"/>
	<path class="st0" d="M35,10c1.7,0,3-1.3,3-3s-1.3-3-3-3s-3,1.3-3,3S33.3,10,35,10z M35,5c1.1,0,2,0.9,2,2c0,1.1-0.9,2-2,2
		s-2-0.9-2-2C33,5.9,33.9,5,35,5z"/>
	<path class="st0" d="M21,10h7c1.1,0,2-0.9,2-2V6c0-1.1-0.9-2-2-2h-7c-1.1,0-2,0.9-2,2v2C19,9.1,19.9,10,21,10z M20,6
		c0-0.6,0.4-1,1-1h7c0.6,0,1,0.4,1,1v2c0,0.6-0.4,1-1,1h-7c-0.6,0-1-0.4-1-1V6z"/>
</g>
</svg>
