<svg xmlns="http://www.w3.org/2000/svg" xmlns:xlink="http://www.w3.org/1999/xlink" version="1.1" id="Layer_1" x="0px" y="0px" width="120.344px" height="43.658px" viewBox="0 0 120.344 43.658" enable-background="new 0 0 120.344 43.658" xml:space="preserve">
<path fill="#bcbcbc" d="M46.181,14.605c-1.986,0-3.667,0.296-5.286,0.93c-3.1,1.214-5.589,3.514-9.356,6.995c-0.598,0.552-1.231,1.136-1.902,1.75  c-0.072,0.066-0.108,0.152-0.166,0.227c-3.737,3.449-5.433,4.905-8.823,4.905c-3.695,0-6.702-3.074-6.702-6.855  c0-1.931,0.804-3.782,2.204-5.081c0.659-0.612,0.709-1.655,0.11-2.33c-0.599-0.675-1.618-0.725-2.278-0.114  c-2.071,1.922-3.26,4.665-3.26,7.524c0,5.599,4.452,10.154,9.926,10.154c4.756,0,7.11-2.175,11.385-6.124l1.438-1.324  c0.071-0.066,0.108-0.151,0.164-0.225c0.021-0.019,0.045-0.041,0.065-0.06c3.499-3.233,5.809-5.369,8.348-6.362  c1.24-0.486,2.553-0.712,4.133-0.712c5.147,0,9.335,4.283,9.335,9.549c0,5.266-4.187,9.55-9.335,9.55  c-1.872,0-3.677-0.565-5.222-1.631c-0.734-0.509-1.739-0.313-2.238,0.442c-0.499,0.755-0.306,1.78,0.433,2.291  c2.079,1.438,4.508,2.198,7.027,2.198c6.925,0,12.558-5.765,12.558-12.849C58.739,20.368,53.105,14.605,46.181,14.605z"/>
<path fill="#bcbcbc" d="M22.305,21.129c-0.661,0.61-0.714,1.653-0.118,2.33c0.318,0.361,0.758,0.545,1.198,0.545c0.385,0,0.772-0.14,1.08-0.425  l1.051-0.97c8.706-8.044,12.678-11.715,20.872-11.715c2.514,0,4.92,0.575,7.152,1.709c0.799,0.404,1.767,0.074,2.161-0.743  c0.396-0.816,0.071-1.806-0.727-2.211c-2.681-1.363-5.57-2.054-8.587-2.054c-9.433,0-14.264,4.463-23.034,12.565L22.305,21.129z"/>
<path fill="#bcbcbc" d="M39.806,29.15c0.812-0.75,1.669-1.542,2.583-2.376c0.664-0.606,0.722-1.65,0.128-2.329  c-0.593-0.678-1.611-0.738-2.277-0.131c-0.918,0.838-1.779,1.635-2.596,2.389c-7.25,6.698-10.559,9.755-17.33,9.755  c-7.305,0-13.248-6.079-13.248-13.552c0-7.472,5.943-13.551,13.248-13.551c2.041,0,3.998,0.461,5.815,1.371  c0.802,0.402,1.766,0.063,2.158-0.756c0.391-0.818,0.06-1.806-0.739-2.206c-2.263-1.133-4.697-1.708-7.234-1.708  c-9.083,0-16.472,7.56-16.472,16.85c0,9.292,7.389,16.852,16.472,16.852C28.327,39.756,32.405,35.989,39.806,29.15z"/>
</svg>