<?xml version="1.0" encoding="utf-8"?>
<!-- Generator: Adobe Illustrator 19.1.0, SVG Export Plug-In . SVG Version: 6.00 Build 0)  -->
<svg version="1.1" id="Layer_1" xmlns="http://www.w3.org/2000/svg" xmlns:xlink="http://www.w3.org/1999/xlink" x="0px" y="0px"
	 width="24px" height="24px" viewBox="0 0 24 24" style="enable-background:new 0 0 24 24;" xml:space="preserve">
<style type="text/css">
	.st0{fill:#A14944;}
</style>
<g>
	<path class="st0" d="M12,0C5.4,0,0,5.4,0,12c0,6.6,5.4,12,12,12c6.6,0,12-5.4,12-12C24,5.4,18.6,0,12,0z M12,22C6.5,22,2,17.5,2,12
		C2,6.5,6.5,2,12,2c5.5,0,10,4.5,10,10C22,17.5,17.5,22,12,22z"/>
	<path class="st0" d="M17.7,6.6l-11,10c-0.2,0.2-0.2,0.5,0,0.7c0.1,0.1,0.2,0.2,0.4,0.2c0.1,0,0.2,0,0.3-0.1l11-10
		c0.2-0.2,0.2-0.5,0-0.7C18.2,6.5,17.9,6.4,17.7,6.6z"/>
	<path class="st0" d="M9,11c1.1,0,2-1.3,2-3s-0.9-3-2-3S7,6.3,7,8S7.9,11,9,11z M9,6c0.5,0,1,0.9,1,2s-0.5,2-1,2S8,9.1,8,8
		S8.5,6,9,6z"/>
	<path class="st0" d="M15,13c-1.1,0-2,1.3-2,3s0.9,3,2,3s2-1.3,2-3S16.1,13,15,13z M15,18c-0.5,0-1-0.9-1-2s0.5-2,1-2s1,0.9,1,2
		S15.5,18,15,18z"/>
</g>
</svg>
