<?xml version="1.0" encoding="utf-8"?>
<!-- Generator: Adobe Illustrator 19.1.0, SVG Export Plug-In . SVG Version: 6.00 Build 0)  -->
<svg version="1.1" id="Layer_1" xmlns="http://www.w3.org/2000/svg" xmlns:xlink="http://www.w3.org/1999/xlink" x="0px" y="0px"
	 width="16px" height="16px" viewBox="0 0 16 16" style="enable-background:new 0 0 16 16;" xml:space="preserve">
<style type="text/css">
	.st0{fill:#A14944;}
</style>
<g>
	<path class="st0" d="M4.2,6.8c-0.4-0.4-1-0.4-1.4,0s-0.4,1,0,1.4l4,4c0.2,0.2,0.4,0.3,0.7,0.3c0,0,0,0,0.1,0c0.3,0,0.6-0.2,0.7-0.4
		l7-9c0.3-0.4,0.3-1.1-0.2-1.4c-0.4-0.3-1.1-0.3-1.4,0.2L7.4,10L4.2,6.8z"/>
	<path class="st0" d="M15.8,6.4C15.8,6.1,15.5,6,15.3,6c-0.3,0.1-0.4,0.3-0.4,0.6C15,7.1,15,7.5,15,8c0,3.9-3.1,7-7,7
		c-3.9,0-7-3.1-7-7c0-3.9,3.1-7,7-7c1.2,0,2.4,0.3,3.4,0.9c0.2,0.1,0.5,0,0.7-0.2c0.1-0.2,0-0.5-0.2-0.7C10.7,0.3,9.4,0,8,0
		C3.6,0,0,3.6,0,8s3.6,8,8,8s8-3.6,8-8C16,7.5,15.9,6.9,15.8,6.4z"/>
</g>
</svg>
