<?xml version="1.0" encoding="utf-8"?>
<!-- Generator: Adobe Illustrator 19.1.0, SVG Export Plug-In . SVG Version: 6.00 Build 0)  -->
<svg version="1.1" id="Layer_1" xmlns="http://www.w3.org/2000/svg" xmlns:xlink="http://www.w3.org/1999/xlink" x="0px" y="0px"
	 width="16px" height="16px" viewBox="0 0 16 16" style="enable-background:new 0 0 16 16;" xml:space="preserve">
<style type="text/css">
	.st0{fill:#A14944;}
</style>
<path class="st0" d="M14.6,1.6l-0.2-0.2C14,1,13.5,0.8,13,0.8S12,1,11.6,1.4L1,12l-1,4l4-1L14.6,4.4C15.4,3.6,15.4,2.4,14.6,1.6z
	 M4.6,12.9l-1.6-1.6l7.8-7.8l1.6,1.6L4.6,12.9z M1.4,14.6l0.5-2.1l0.5-0.5l1.6,1.6l-0.5,0.5L1.4,14.6z M13.9,3.7l-0.7,0.7l-1.6-1.6
	l0.7-0.7c0.2-0.2,0.4-0.3,0.7-0.3s0.5,0.1,0.7,0.3l0.2,0.2C14.3,2.7,14.3,3.3,13.9,3.7z"/>
</svg>
