<?xml version="1.0" encoding="utf-8"?>
<!-- Generator: Adobe Illustrator 19.1.0, SVG Export Plug-In . SVG Version: 6.00 Build 0)  -->
<svg version="1.1" id="Layer_1" xmlns="http://www.w3.org/2000/svg" xmlns:xlink="http://www.w3.org/1999/xlink" x="0px" y="0px"
	 width="16px" height="16px" viewBox="0 0 16 16" style="enable-background:new 0 0 16 16;" xml:space="preserve">
<style type="text/css">
	.st0{fill:#A14944;}
</style>
<g>
	<path class="st0" d="M15,8c-0.6,0-1,0.4-1,1v3c0,0.6-0.4,1-1,1H3c-0.6,0-1-0.4-1-1V9.1c0-0.6-0.4-1-1-1s-1,0.4-1,1V12
		c0,1.7,1.3,3,3,3h10c1.7,0,3-1.3,3-3V9C16,8.4,15.6,8,15,8z"/>
	<path class="st0" d="M4.6,6.8L7,5v6c0,0.6,0.4,1,1,1s1-0.4,1-1V5l2.4,1.8C11.6,6.9,11.8,7,12,7c0.3,0,0.6-0.1,0.8-0.4
		c0.3-0.4,0.2-1.1-0.2-1.4l-4-3c0,0-0.1,0-0.1-0.1c0,0-0.1,0-0.1-0.1C8.2,2,8.1,2,8,2c0,0,0,0,0,0s0,0,0,0C7.9,2,7.8,2,7.6,2.1
		c0,0-0.1,0-0.1,0.1c0,0-0.1,0-0.1,0.1l-4,3C3,5.5,2.9,6.2,3.2,6.6S4.2,7.1,4.6,6.8z"/>
</g>
</svg>
