<?xml version="1.0" encoding="utf-8"?>
<!-- Generator: Adobe Illustrator 19.1.0, SVG Export Plug-In . SVG Version: 6.00 Build 0)  -->
<svg version="1.1" id="Layer_1" xmlns="http://www.w3.org/2000/svg" xmlns:xlink="http://www.w3.org/1999/xlink" x="0px" y="0px"
	 width="16px" height="16px" viewBox="0 0 16 16" style="enable-background:new 0 0 16 16;" xml:space="preserve">
<style type="text/css">
	.st0{fill:#A14944;}
</style>
<g>
	<path class="st0" d="M14.8,7.2c0,0-0.8-1.1-0.8-3.2c0-2.9-2.9-4-4.2-4H5C4,0,4,1,4,1H2C0.9,1,0,1.9,0,3v4c0,1.1,0.9,2,2,2h2
		l2.7,2.7C6.9,11.9,7,12.1,7,12.4V15c0,0.6,0.4,1,1,1c1.7,0,3-1.3,3-3v-2c0-0.6,0.4-1,1-1h1C14.4,10,15.4,8.5,14.8,7.2z M2,8
		C1.4,8,1,7.6,1,7V3c0-0.6,0.4-1,1-1h1v6H2z M13.8,8.6C13.6,8.8,13.3,9,13,9h-1c-1.1,0-2,0.9-2,2v2c0,1.1-0.9,2-2,2v-2.6
		c0-0.5-0.2-1-0.6-1.4L4.7,8.3L4.4,8H4V2h1l0-1c0,0,0,0,0,0h4.8C10.6,1,13,1.7,13,4c0,2,0.7,3.3,0.9,3.7C14,8,14,8.3,13.8,8.6z"/>
	<path class="st0" d="M11.7,7.1c0,0-0.6-0.3-0.6-1.8c0-2.1-1.3-3.1-1.3-3.1C9.6,1.9,9.3,2,9.1,2.2C8.9,2.4,9,2.7,9.2,2.9
		c0,0,0.9,0.7,0.9,2.4c0,2.1,1.1,2.7,1.2,2.7c0.1,0,0.1,0,0.2,0c0.2,0,0.4-0.1,0.4-0.3C12.1,7.5,12,7.2,11.7,7.1z"/>
</g>
</svg>
