<?xml version="1.0" encoding="utf-8"?>
<!-- Generator: Adobe Illustrator 19.1.0, SVG Export Plug-In . SVG Version: 6.00 Build 0)  -->
<svg version="1.1" id="Layer_1" xmlns="http://www.w3.org/2000/svg" xmlns:xlink="http://www.w3.org/1999/xlink" x="0px" y="0px"
	 width="16px" height="16px" viewBox="0 0 16 16" style="enable-background:new 0 0 16 16;" xml:space="preserve">
<style type="text/css">
	.st0{fill:#A14944;}
</style>
<g>
	<path class="st0" d="M13,6h-1V4c0-2.2-1.8-4-4-4H7C4.3,0,3,1,3,3c0,0.6,0.4,1,1,1s1-0.4,1-1c0-0.5,0-1,2-1h1c1.1,0,2,0.9,2,2v2H2
		C1.4,6,1,6.4,1,7v5c0,2.2,1.8,4,4,4h5c2.2,0,4-1.8,4-4V7C14,6.4,13.6,6,13,6z M12,12c0,1.1-0.9,2-2,2H5c-1.1,0-2-0.9-2-2V8h9V12z"
		/>
	<path class="st0" d="M7.5,13C8.3,13,9,12.1,9,11c0-1.1-0.7-2-1.5-2S6,9.9,6,11C6,12.1,6.7,13,7.5,13z M7.5,10C7.7,10,8,10.4,8,11
		c0,0.6-0.3,1-0.5,1S7,11.6,7,11C7,10.4,7.3,10,7.5,10z"/>
</g>
</svg>
