<?xml version="1.0" encoding="utf-8"?>
<!-- Generator: Adobe Illustrator 19.1.0, SVG Export Plug-In . SVG Version: 6.00 Build 0)  -->
<svg version="1.1" id="Layer_1" xmlns="http://www.w3.org/2000/svg" xmlns:xlink="http://www.w3.org/1999/xlink" x="0px" y="0px"
	 width="16px" height="16px" viewBox="0 0 16 16" style="enable-background:new 0 0 16 16;" xml:space="preserve">
<style type="text/css">
	.st0{fill:#A14944;}
</style>
<g>
	<path class="st0" d="M14.9,0H1.1C0.2,0-0.2,1,0.3,1.6L7,10v5c0,0.6,0.4,1,1,1s1-0.4,1-1v-5l6.7-8.4C16.2,1,15.8,0,14.9,0z M8,8
		L3.2,2h9.7L8,8z"/>
	<path class="st0" d="M6,4h4c0.3,0,0.5-0.2,0.5-0.5S10.3,3,10,3H6C5.7,3,5.5,3.2,5.5,3.5S5.7,4,6,4z"/>
</g>
</svg>
