<?xml version="1.0" encoding="utf-8"?>
<!-- Generator: Adobe Illustrator 19.1.0, SVG Export Plug-In . SVG Version: 6.00 Build 0)  -->
<svg version="1.1" id="Layer_1" xmlns="http://www.w3.org/2000/svg" xmlns:xlink="http://www.w3.org/1999/xlink" x="0px" y="0px"
	 width="16px" height="16px" viewBox="0 0 16 16" style="enable-background:new 0 0 16 16;" xml:space="preserve">
<style type="text/css">
	.st0{fill:#A14944;}
</style>
<g>
	<path class="st0" d="M15.6,12.9l-4.3-4.3C11.8,7.9,12,7,12,6c0-3.3-2.7-6-6-6S0,2.7,0,6s2.7,6,6,6c1,0,1.9-0.2,2.7-0.6l4.2,4.3
		c0.4,0.4,0.9,0.6,1.4,0.6c0.5,0,1-0.2,1.3-0.5c0.4-0.4,0.6-0.8,0.6-1.4C16.2,13.8,16,13.3,15.6,12.9z M1,6c0-2.8,2.2-5,5-5
		s5,2.2,5,5s-2.2,5-5,5S1,8.8,1,6z M14.9,14.9c-0.4,0.4-0.9,0.4-1.3,0l-4.1-4.1c0.5-0.4,0.9-0.8,1.3-1.3l4.1,4.1
		c0.2,0.2,0.3,0.4,0.3,0.7S15.1,14.8,14.9,14.9z"/>
	<path class="st0" d="M5.5,3C4.1,3,3,4.1,3,5.5C3,5.8,3.2,6,3.5,6S4,5.8,4,5.5C4,4.7,4.7,4,5.5,4C5.8,4,6,3.8,6,3.5S5.8,3,5.5,3z"/>
</g>
</svg>
