<?xml version="1.0" encoding="utf-8"?>
<!-- Generator: Adobe Illustrator 19.1.0, SVG Export Plug-In . SVG Version: 6.00 Build 0)  -->
<svg version="1.1" id="Layer_1" xmlns="http://www.w3.org/2000/svg" xmlns:xlink="http://www.w3.org/1999/xlink" x="0px" y="0px"
	 width="16px" height="16px" viewBox="0 0 16 16" style="enable-background:new 0 0 16 16;" xml:space="preserve">
<style type="text/css">
	.st0{fill:#A14944;}
</style>
<g>
	<path class="st0" d="M14,2h-1v0.5C13,3.3,12.3,4,11.5,4S10,3.3,10,2.5V2H6v0.5C6,3.3,5.3,4,4.5,4S3,3.3,3,2.5V2H2C0.9,2,0,2.9,0,4
		v11c0,0.6,0.4,1,1,1h14c0.6,0,1-0.4,1-1V4C16,2.9,15.1,2,14,2z M15,9h-2V7h2V9z M12,9h-2V7h2V9z M9,9H7V7h2V9z M6,9H4V7h2V9z M3,9
		H1V7h2V9z M1,10h2v2H1V10z M4,10h2v2H4V10z M7,10h2v2H7V10z M10,10h2v2h-2V10z M13,10h2v2h-2V10z M1,4c0-0.6,0.4-1,1-1h0.1
		c0.2,1.1,1.2,2,2.4,2s2.2-0.9,2.4-2h2.1c0.2,1.1,1.2,2,2.4,2s2.2-0.9,2.4-2H14c0.6,0,1,0.4,1,1v2H1V4z M1,15v-2h2v2H1z M4,15v-2h2
		v2H4z M7,15v-2h2v2H7z M10,15v-2h2v2H10z M15,15h-2v-2h2V15z"/>
	<path class="st0" d="M4.5,2.5C4.8,2.5,5,2.3,5,2V1c0-0.3-0.2-0.5-0.5-0.5S4,0.7,4,1v1C4,2.3,4.2,2.5,4.5,2.5z"/>
	<path class="st0" d="M11.5,2.5C11.8,2.5,12,2.3,12,2V1c0-0.3-0.2-0.5-0.5-0.5S11,0.7,11,1v1C11,2.3,11.2,2.5,11.5,2.5z"/>
</g>
</svg>
