<?xml version="1.0" encoding="utf-8"?>
<!-- Generator: Adobe Illustrator 19.1.0, SVG Export Plug-In . SVG Version: 6.00 Build 0)  -->
<svg version="1.1" id="Layer_1" xmlns="http://www.w3.org/2000/svg" xmlns:xlink="http://www.w3.org/1999/xlink" x="0px" y="0px"
	 width="24px" height="24px" viewBox="0 0 24 24" style="enable-background:new 0 0 24 24;" xml:space="preserve">
<style type="text/css">
	.st0{fill:#A14944;}
</style>
<g>
	<path class="st0" d="M22,6h-3.3L12-0.2L5.3,6H2C0.9,6,0,6.9,0,8v14c0,1.1,0.9,2,2,2h20c1.1,0,2-0.9,2-2V8C24,6.9,23.1,6,22,6z
		 M12,1.2L17.2,6h-1.5L12,2.8L8.3,6H6.8L12,1.2z M14.1,6H9.9L12,4.2L14.1,6z M2,23c-0.6,0-1-0.4-1-1V8c0-0.6,0.4-1,1-1h19v3h-1V8H2
		v14h18v-4h1v5H2z M17.5,18H19v3H3V9h16v1h-1.5c-1.9,0-3.5,1.6-3.5,3.5v1C14,16.4,15.6,18,17.5,18z M23,22c0,0.6-0.4,1-1,1v-5h1V22z
		 M23,17h-5.5c-1.4,0-2.5-1.1-2.5-2.5v-1c0-1.4,1.1-2.5,2.5-2.5H23V17z M23,10h-1V7c0.6,0,1,0.4,1,1V10z"/>
	<path class="st0" d="M16,14c0,1.1,0.9,2,2,2s2-0.9,2-2c0-1.1-0.9-2-2-2S16,12.9,16,14z M18,13c0.6,0,1,0.4,1,1s-0.4,1-1,1
		s-1-0.4-1-1S17.4,13,18,13z"/>
</g>
</svg>
