<?xml version="1.0" encoding="utf-8"?>
<!-- Generator: Adobe Illustrator 19.1.0, SVG Export Plug-In . SVG Version: 6.00 Build 0)  -->
<svg version="1.1" id="Layer_1" xmlns="http://www.w3.org/2000/svg" xmlns:xlink="http://www.w3.org/1999/xlink" x="0px" y="0px"
	 width="24px" height="24px" viewBox="0 0 24 24" style="enable-background:new 0 0 24 24;" xml:space="preserve">
<style type="text/css">
	.st0{fill:#A14944;}
</style>
<g>
	<path class="st0" d="M19.5,0C18.7,0,18,0.7,18,1.5V2c0,0.6-0.4,1-1,1s-1-0.4-1-1V1.5C16,0.7,15.3,0,14.5,0S13,0.7,13,1.5V2
		c0,0.6-0.4,1-1,1s-1-0.4-1-1V1.5C11,0.7,10.3,0,9.5,0S8,0.7,8,1.5V2c0,0.6-0.4,1-1,1S6,2.6,6,2V1.5C6,0.7,5.3,0,4.5,0S3,0.7,3,1.5
		V15c0,5,4,9,9,9s9-4,9-9V1.5C21,0.7,20.3,0,19.5,0z M20,15c0,4.4-3.6,8-8,8s-8-3.6-8-8V1.5C4,1.2,4.2,1,4.5,1S5,1.2,5,1.5V2
		c0,1.1,0.9,2,2,2s2-0.9,2-2V1.5C9,1.2,9.2,1,9.5,1S10,1.2,10,1.5V2c0,1.1,0.9,2,2,2s2-0.9,2-2V1.5C14,1.2,14.2,1,14.5,1
		S15,1.2,15,1.5V2c0,1.1,0.9,2,2,2s2-0.9,2-2V1.5C19,1.2,19.2,1,19.5,1S20,1.2,20,1.5V15z"/>
	<path class="st0" d="M17,7c-1,0-1.9-2-2.5-2C13,5,13,7,12,7s-1.9-2-2.5-2C8.1,5,7.9,7,7,7S5,5,5,5c0,1.6,0,9,0,9c0,3.9,3.1,7,7,7
		s7-3.1,7-7V8V5.8V5C18,5,18,7,17,7z M18,14c0,3.3-2.7,6-6,6s-6-2.7-6-6v-3h12V14z M18,8v2H6V7.7C6.3,7.9,6.6,8,7,8
		c0.9,0,1.4-0.7,1.8-1.3C9,6.3,9.2,6.1,9.3,6.1c0.1,0.1,0.2,0.3,0.3,0.4C10.2,7.1,11,8,12,8c1,0,1.5-0.8,1.8-1.3
		C14,6.3,14.2,6.1,14.3,6c0.1,0.1,0.2,0.3,0.3,0.4C15.2,7.1,16,8,17,8c0.4,0,0.7-0.1,1-0.3V8z"/>
</g>
</svg>
