<?xml version="1.0" encoding="utf-8"?>
<!-- Generator: Adobe Illustrator 19.1.0, SVG Export Plug-In . SVG Version: 6.00 Build 0)  -->
<svg version="1.1" id="Layer_1" xmlns="http://www.w3.org/2000/svg" xmlns:xlink="http://www.w3.org/1999/xlink" x="0px" y="0px"
	 width="24px" height="24px" viewBox="0 0 24 24" style="enable-background:new 0 0 24 24;" xml:space="preserve">
<style type="text/css">
	.st0{fill:#A14944;}
</style>
<g>
	<path class="st0" d="M12,0C5.4,0,0,5.4,0,12c0,6.6,5.4,12,12,12s12-5.4,12-12C24,5.4,18.6,0,12,0z M12,23C5.9,23,1,18.1,1,12
		S5.9,1,12,1s11,4.9,11,11S18.1,23,12,23z"/>
	<path class="st0" d="M6,6.5c0.1,0,0.3,0,0.4-0.1C7.9,4.8,9.9,4,12,4c2.1,0,4.1,0.8,5.6,2.3c0.2,0.2,0.5,0.2,0.7,0
		c0.2-0.2,0.2-0.5,0-0.7C16.7,3.9,14.4,3,12,3C9.6,3,7.3,3.9,5.6,5.6c-0.2,0.2-0.2,0.5,0,0.7C5.7,6.4,5.9,6.5,6,6.5z"/>
	<path class="st0" d="M14.8,19.5c-1.8,0.7-3.8,0.7-5.6,0c-0.3-0.1-0.5,0-0.6,0.3s0,0.5,0.3,0.6c1,0.4,2.1,0.6,3.2,0.6
		s2.2-0.2,3.2-0.6c0.3-0.1,0.4-0.4,0.3-0.6C15.4,19.5,15.1,19.4,14.8,19.5z"/>
	<path class="st0" d="M18,8c-1.7,0-3,1.3-3,3c0-1.7-1.3-3-3-3s-3,1.3-3,3c0-1.7-1.3-3-3-3s-3,1.3-3,3s1.3,3,3,3c0,1.7,1.3,3,3,3
		s3-1.3,3-3c0,1.7,1.3,3,3,3s3-1.3,3-3c1.7,0,3-1.3,3-3S19.7,8,18,8z M6,13c-1.1,0-2-0.9-2-2c0-1.1,0.9-2,2-2s2,0.9,2,2
		c0,0.1,0,0.1,0,0.2c-0.8,0.3-1.5,1-1.8,1.8C6.1,13,6.1,13,6,13z M11,14c0,1.1-0.9,2-2,2s-2-0.9-2-2c0-0.1,0-0.1,0-0.2
		c0.8-0.3,1.5-1,1.8-1.8c0.1,0,0.1,0,0.2,0s0.1,0,0.2,0c0.3,0.8,1,1.5,1.8,1.8C11,13.9,11,13.9,11,14z M12,13c-0.1,0-0.1,0-0.2,0
		c-0.3-0.8-1-1.5-1.8-1.8c0-0.1,0-0.1,0-0.2c0-1.1,0.9-2,2-2s2,0.9,2,2c0,0.1,0,0.1,0,0.2c-0.8,0.3-1.5,1-1.8,1.8
		C12.1,13,12.1,13,12,13z M17,14c0,1.1-0.9,2-2,2s-2-0.9-2-2c0-0.1,0-0.1,0-0.2c0.8-0.3,1.5-1,1.8-1.8c0.1,0,0.1,0,0.2,0
		s0.1,0,0.2,0c0.3,0.8,1,1.5,1.8,1.8C17,13.9,17,13.9,17,14z M18,13c-0.1,0-0.1,0-0.2,0c-0.3-0.8-1-1.5-1.8-1.8c0-0.1,0-0.1,0-0.2
		c0-1.1,0.9-2,2-2s2,0.9,2,2C20,12.1,19.1,13,18,13z"/>
</g>
</svg>
