<?xml version="1.0" encoding="utf-8"?>
<!-- Generator: Adobe Illustrator 19.1.0, SVG Export Plug-In . SVG Version: 6.00 Build 0)  -->
<svg version="1.1" id="Layer_1" xmlns="http://www.w3.org/2000/svg" xmlns:xlink="http://www.w3.org/1999/xlink" x="0px" y="0px"
	 width="24px" height="24px" viewBox="0 0 24 24" style="enable-background:new 0 0 24 24;" xml:space="preserve">
<style type="text/css">
	.st0{fill:#A14944;}
</style>
<path class="st0" d="M23.5,0.1C23-0.1,22.4,0,22.1,0.5l-0.8,1.3c0,0.1-0.1,0.1-0.1,0.2H15c-0.6,0-1,0.4-1,1s0.4,1,1,1h5.2l-6.6,11
	c-0.1,0.1-0.1,0.2-0.1,0.3c-0.9-1.9-2.8-3.3-5-3.3c-0.3,0-0.6,0-0.9,0.1L3.9,7.5C4,7.4,4,7.2,4,7h4c0.6,0,1-0.4,1-1c0-1.1-0.9-2-2-2
	H3C1.3,4,0,5.3,0,7c0,1.1,0.9,2,2,2c0.2,0,0.3,0,0.5-0.1l3.1,3.9C4,13.8,3,15.5,3,17.5c0,0.4,0,0.8,0.1,1.2C3.1,18.8,3,18.9,3,19
	v3.5C3,23.3,3.7,24,4.5,24h16c1.4,0,2.5-1.1,2.5-2.5v-0.2c0-1-0.6-1.9-1.4-2.3l-6.2-2.9c0,0,0,0,0-0.1l7.5-12.5C23,3.4,23,3.2,23,3
	c0.1-0.1,0.1-0.2,0.2-0.3l0.7-1.2C24.1,1,24,0.4,23.5,0.1z M1,7c0-1.1,0.9-2,2-2h4c0.6,0,1,0.4,1,1H4C3.4,6,3,6.4,3,7
	c0,0.6-0.4,1-1,1S1,7.6,1,7z M8.5,13c2.5,0,4.5,2,4.5,4.5c0,0.5-0.1,0.9-0.2,1.3l-2-1.3c0.1-0.3,0.2-0.7,0.2-1
	c0-1.4-1.1-2.5-2.5-2.5S6,15.1,6,16.5C6,17.9,7.1,19,8.5,19c0.6,0,1.2-0.3,1.7-0.7l2.2,1.4c-0.8,1.3-2.2,2.3-3.9,2.3
	C6,22,4,20,4,17.5S6,13,8.5,13z M9.3,16.6c-0.2-0.1-0.5-0.1-0.7,0.2c-0.1,0.2-0.1,0.5,0.2,0.7l0.6,0.4C9.1,17.9,8.8,18,8.5,18
	C7.7,18,7,17.3,7,16.5S7.7,15,8.5,15s1.5,0.7,1.5,1.5c0,0.2,0,0.3-0.1,0.5L9.3,16.6z M22,21.3v0.2c0,0.8-0.7,1.5-1.5,1.5h-12h-4
	C4.2,23,4,22.8,4,22.5v-1.8C5,22.1,6.6,23,8.5,23c2,0,3.8-1.1,4.7-2.7l1.1,0.7H17c0.3,0,0.5-0.2,0.5-0.5S17.3,20,17,20h-2.4l-1-0.6
	c0.2-0.6,0.3-1.2,0.3-1.9c0-0.3,0-0.7-0.1-1l7.2,3.4C21.7,20.2,22,20.7,22,21.3z"/>
</svg>
