<?xml version="1.0" encoding="utf-8"?>
<!-- Generator: Adobe Illustrator 19.1.0, SVG Export Plug-In . SVG Version: 6.00 Build 0)  -->
<svg version="1.1" id="Layer_1" xmlns="http://www.w3.org/2000/svg" xmlns:xlink="http://www.w3.org/1999/xlink" x="0px" y="0px"
	 width="24px" height="24px" viewBox="0 0 24 24" style="enable-background:new 0 0 24 24;" xml:space="preserve">
<style type="text/css">
	.st0{fill:#A14944;}
</style>
<g>
	<path class="st0" d="M16.5,9C12.4,9,9,12.4,9,16.5s3.4,7.5,7.5,7.5s7.5-3.4,7.5-7.5S20.6,9,16.5,9z M16.5,22c-3,0-5.5-2.5-5.5-5.5
		s2.5-5.5,5.5-5.5s5.5,2.5,5.5,5.5S19.5,22,16.5,22z"/>
	<path class="st0" d="M19.1,14.1l-3.2,3.2l-2.2-1.3c-0.2-0.1-0.5-0.1-0.7,0.2c-0.1,0.2-0.1,0.5,0.2,0.7l2.5,1.5
		c0.1,0,0.2,0.1,0.3,0.1c0.1,0,0.3,0,0.4-0.1l3.5-3.5c0.2-0.2,0.2-0.5,0-0.7S19.3,14,19.1,14.1z"/>
	<path class="st0" d="M8,21H3v-9.5C3,11.2,2.8,11,2.5,11H1.7l1.1-1.1C2.9,9.8,3,9.6,3,9.5v-6C3,3.2,3.2,3,3.5,3h1C4.8,3,5,3.2,5,3.5
		v3C5,6.7,5.1,6.9,5.3,7C5.5,7,5.7,7,5.9,6.9L10,2.7l4.6,4.6c0.2,0.2,0.5,0.2,0.7,0s0.2-0.5,0-0.7l-5-5c-0.2-0.2-0.5-0.2-0.7,0
		L6,5.3V3.5C6,2.7,5.3,2,4.5,2h-1C2.7,2,2,2.7,2,3.5v5.8l-1.9,1.9C0,11.3,0,11.5,0,11.7C0.1,11.9,0.3,12,0.5,12H2v9.5
		C2,21.8,2.2,22,2.5,22H8c0.3,0,0.5-0.2,0.5-0.5S8.3,21,8,21z"/>
	<path class="st0" d="M7.5,13C7.8,13,8,12.8,8,12.5S7.8,12,7.5,12h-2C5.2,12,5,12.2,5,12.5v5C5,17.8,5.2,18,5.5,18H7
		c0.3,0,0.5-0.2,0.5-0.5S7.3,17,7,17H6v-4H7.5z"/>
</g>
</svg>
