<?xml version="1.0" encoding="utf-8"?>
<!-- Generator: Adobe Illustrator 19.1.0, SVG Export Plug-In . SVG Version: 6.00 Build 0)  -->
<svg version="1.1" id="Layer_1" xmlns="http://www.w3.org/2000/svg" xmlns:xlink="http://www.w3.org/1999/xlink" x="0px" y="0px"
	 width="24px" height="24px" viewBox="0 0 24 24" style="enable-background:new 0 0 24 24;" xml:space="preserve">
<style type="text/css">
	.st0{fill:#A14944;}
</style>
<g>
	<path class="st0" d="M2,0C0.9,0,0,0.9,0,2v20c0,1.1,0.9,2,2,2h14c1.1,0,2-0.9,2-2V6l-7-6H2z M1,20h16v1H1V20z M12,2.2L16.5,6h-4
		C12.2,6,12,5.8,12,5.5V2.2z M1,2c0-0.6,0.4-1,1-1h8.6L11,1.3v4.2C11,6.3,11.7,7,12.5,7H17v12H1V2z M16,23H2c-0.6,0-1-0.4-1-1h16
		C17,22.6,16.6,23,16,23z"/>
	<path class="st0" d="M14,9H4C3.7,9,3.5,9.2,3.5,9.5S3.7,10,4,10h10c0.3,0,0.5-0.2,0.5-0.5S14.3,9,14,9z"/>
	<path class="st0" d="M14,11H4c-0.3,0-0.5,0.2-0.5,0.5S3.7,12,4,12h10c0.3,0,0.5-0.2,0.5-0.5S14.3,11,14,11z"/>
	<path class="st0" d="M9,14H4c-0.3,0-0.5,0.2-0.5,0.5S3.7,15,4,15h5c0.3,0,0.5-0.2,0.5-0.5S9.3,14,9,14z"/>
	<path class="st0" d="M22,0c-1.1,0-2,0.9-2,2v19l1.1,2.2c0.2,0.4,0.5,0.6,0.9,0.6s0.7-0.2,0.9-0.6L24,21V2C24,0.9,23.1,0,22,0z
		 M21,5h2v14h-2V5z M21,2c0-0.6,0.4-1,1-1s1,0.4,1,1v2h-2V2z M23,20.8l-1,2l-1-2V20h2V20.8z"/>
</g>
</svg>
