<?xml version="1.0" encoding="utf-8"?>
<!-- Generator: Adobe Illustrator 19.1.0, SVG Export Plug-In . SVG Version: 6.00 Build 0)  -->
<svg version="1.1" id="Layer_1" xmlns="http://www.w3.org/2000/svg" xmlns:xlink="http://www.w3.org/1999/xlink" x="0px" y="0px"
	 width="24px" height="24px" viewBox="0 0 24 24" style="enable-background:new 0 0 24 24;" xml:space="preserve">
<style type="text/css">
	.st0{fill:#A14944;}
</style>
<g>
	<path class="st0" d="M16,7.1V6.5c0-0.9-0.5-1.7-1.3-2.2C14.9,4,15,3.5,15,3c0-1.9-1.1-3-3-3S9,1.1,9,3c0,0.5,0.1,1,0.3,1.3
		C8.5,4.8,8,5.6,8,6.5v0.6C7.4,7.3,7,7.8,7,8.5v11C7,22,9,24,11.5,24h1c2.5,0,4.5-2,4.5-4.5v-11C17,7.8,16.6,7.3,16,7.1z M9,6.5
		C9,5.8,9.5,5.2,10.2,5c0.3-0.1,0.4-0.3,0.4-0.6c0-0.2-0.1-0.3-0.3-0.3C10.1,3.9,10,3.5,10,3c0-1.4,0.6-2,2-2c1.4,0,2,0.6,2,2
		c0,0.5-0.1,0.9-0.3,1.1c-0.1,0.1-0.3,0.2-0.3,0.4C13.4,4.7,13.5,5,13.8,5C14.5,5.2,15,5.8,15,6.5V7h-1h-4H9V6.5z M16,19.5
		c0,1.9-1.6,3.5-3.5,3.5h-1C9.6,23,8,21.4,8,19.5v-11C8,8.2,8.2,8,8.5,8H10h4h1.5C15.8,8,16,8.2,16,8.5V19.5z"/>
	<path class="st0" d="M12,10c0.3,0,0.5-0.2,0.5-0.5S12.3,9,12,9H9.5C9.2,9,9,9.2,9,9.5V18c0,1.7,1.3,3,3,3c0.3,0,0.5-0.2,0.5-0.5
		S12.3,20,12,20c-1.1,0-2-0.9-2-2h2c0.3,0,0.5-0.2,0.5-0.5S12.3,17,12,17h-2v-1h2c0.3,0,0.5-0.2,0.5-0.5S12.3,15,12,15h-2v-1h2
		c0.3,0,0.5-0.2,0.5-0.5S12.3,13,12,13h-2v-1h2c0.3,0,0.5-0.2,0.5-0.5S12.3,11,12,11h-2v-1H12z"/>
</g>
</svg>
