<?xml version="1.0" encoding="utf-8"?>
<!-- Generator: Adobe Illustrator 19.1.0, SVG Export Plug-In . SVG Version: 6.00 Build 0)  -->
<svg version="1.1" id="Layer_1" xmlns="http://www.w3.org/2000/svg" xmlns:xlink="http://www.w3.org/1999/xlink" x="0px" y="0px"
	 width="24px" height="24px" viewBox="0 0 24 24" style="enable-background:new 0 0 24 24;" xml:space="preserve">
<style type="text/css">
	.st0{fill:#A14944;}
</style>
<g>
	<path class="st0" d="M12,12c6.2,0,10-2.5,10-3.5S19.9,6,18,6s-2-6-4-6c-1,0-1,2-2.5,2S10,0,9,0C7,0,7.9,6,6,6S2,7.6,2,8.5
		C2,9.4,5.8,12,12,12z M6,7h12c0.4,0,0.8,0.1,1.1,0.2C17.9,7.5,15.2,8,11.5,8C7.9,8,5.8,7.5,4.8,7.2C5.2,7.1,5.6,7,6,7z M8.4,3.2
		C8.5,2.6,8.7,1.5,9,1.1C9,1.2,9.1,1.3,9.1,1.4C9.5,2,10.1,3,11.5,3s2-1,2.4-1.6c0.1-0.1,0.1-0.2,0.2-0.3c0.3,0.3,0.8,1.6,1,2.3
		c0.3,0.9,0.7,1.9,1.2,2.7H7.6C8.1,5.2,8.3,4.2,8.4,3.2z M3.7,7.9c0,0,0.1,0.1,0.1,0.1c0.1,0,2.4,1,7.7,1c5.3,0,8.5-1,8.6-1
		c0.1,0,0.2-0.1,0.2-0.1c0.3,0.2,0.5,0.4,0.6,0.6c-0.5,0.7-3.6,2.6-9,2.6c-5.2,0-8.3-1.9-8.9-2.6C3.2,8.3,3.4,8.1,3.7,7.9z"/>
	<path class="st0" d="M15,18c-2.6,0-3-4-4-4c-3.3,0-2.8,3-4,3c-0.5,0-1-0.4-1.3-0.8C5.1,15.5,4.3,15,3.3,15H3c-0.6,0-1,0.4-1,1v6
		c0,0.6,0.4,1,1,1h3c1,0,0.1-1,2-1c3,0,3,1,5,1s4.8,0,6,0s3-1.1,3-2C22,20.1,20.9,18,15,18z M3,16h0.3c0.6,0,1.2,0.3,1.6,0.8
		C5.6,17.6,6.2,18,7,18c1.1,0,1.5-0.9,1.8-1.5c0.4-0.8,0.7-1.4,1.9-1.5c0.1,0.2,0.3,0.5,0.4,0.8C11.8,17,12.8,19,15,19
		c2.8,0,4.4,0.5,5.2,1H14c-1.5,0-2.1-0.3-2.8-0.5C10.7,19.2,10.1,19,9,19H3V16z M19,22h-6c-0.7,0-1.1-0.1-1.6-0.4
		C10.7,21.4,9.8,21,8,21c-1.4,0-1.9,0.5-2.2,1H3v-2h6c0.9,0,1.3,0.2,1.9,0.4c0.7,0.3,1.5,0.6,3.1,0.6h7C20.7,21.4,19.7,22,19,22z"/>
</g>
</svg>
