<?xml version="1.0" encoding="utf-8"?>
<!-- Generator: Adobe Illustrator 19.1.0, SVG Export Plug-In . SVG Version: 6.00 Build 0)  -->
<svg version="1.1" id="Layer_1" xmlns="http://www.w3.org/2000/svg" xmlns:xlink="http://www.w3.org/1999/xlink" x="0px" y="0px"
	 width="24px" height="24px" viewBox="0 0 24 24" style="enable-background:new 0 0 24 24;" xml:space="preserve">
<style type="text/css">
	.st0{fill:#A14944;}
</style>
<g>
	<path class="st0" d="M17,1H9C8.4,1,8,1.4,8,2v0.5c-0.2,0-0.4,0.1-0.5,0.4L6.7,5.6L4.8,4.1C4.6,4,4.3,4,4.1,4.1l-2,2
		C2,6.3,2,6.6,2.1,6.8l1.7,2.5l-3.4,1.4C0.1,10.8,0,11,0,11.2v1.9c0,0.2,0.1,0.4,0.3,0.5l3.5,1.7l-1.7,3c-0.1,0.2-0.1,0.5,0.1,0.6
		l2,1.5c0.2,0.1,0.5,0.1,0.7,0l1.9-1.9l0.8,2.7c0.1,0.2,0.3,0.4,0.5,0.4c0,0,0,0,0,0V22c0,0.6,0.4,1,1,1h14c0.6,0,1-0.4,1-1V7L17,1z
		 M8,14.2c-0.6-0.6-1-1.4-1-2.2c0-0.9,0.4-1.7,1-2.2V14.2z M8,8.5c-1.2,0.7-2,2-2,3.5c0,1.4,0.8,2.7,2,3.5v3.7l-0.5-1.8
		c0-0.2-0.2-0.3-0.4-0.3c-0.2,0-0.4,0-0.5,0.1l-2.2,2.2l-1.3-1l1.8-3.1C5,15.1,5,15,5,14.9c0-0.1-0.1-0.2-0.3-0.3L1,12.8v-1.3
		L4.7,10C4.8,9.9,4.9,9.8,5,9.6s0-0.3-0.1-0.4L3.1,6.6l1.4-1.4l2.2,1.7C6.8,7,7,7,7.2,7c0.2-0.1,0.3-0.2,0.3-0.3L8,4.8V8.5z M18,3.2
		L22.5,7h-4C18.2,7,18,6.8,18,6.5V3.2z M23,22H9V2h7.6L17,2.3v4.2C17,7.3,17.7,8,18.5,8H23V22z"/>
	<path class="st0" d="M11.5,9.5c0,0.3,0.2,0.5,0.5,0.5h7c0.3,0,0.5-0.2,0.5-0.5S19.3,9,19,9h-7C11.7,9,11.5,9.2,11.5,9.5z"/>
	<path class="st0" d="M12,13h7c0.3,0,0.5-0.2,0.5-0.5S19.3,12,19,12h-7c-0.3,0-0.5,0.2-0.5,0.5S11.7,13,12,13z"/>
	<path class="st0" d="M15,15h-3c-0.3,0-0.5,0.2-0.5,0.5S11.7,16,12,16h3c0.3,0,0.5-0.2,0.5-0.5S15.3,15,15,15z"/>
	<path class="st0" d="M16.4,17.6c-0.2-0.2-0.5-0.2-0.7,0s-0.2,0.5,0,0.7l2,2c0.1,0.1,0.2,0.1,0.4,0.1c0,0,0,0,0.1,0
		c0.2,0,0.3-0.1,0.4-0.2l3-5c0.1-0.2,0.1-0.5-0.2-0.7c-0.2-0.1-0.5-0.1-0.7,0.2l-2.7,4.5L16.4,17.6z"/>
</g>
</svg>
