<?xml version="1.0" encoding="utf-8"?>
<!-- Generator: Adobe Illustrator 19.1.0, SVG Export Plug-In . SVG Version: 6.00 Build 0)  -->
<svg version="1.1" id="Layer_1" xmlns="http://www.w3.org/2000/svg" xmlns:xlink="http://www.w3.org/1999/xlink" x="0px" y="0px"
	 width="24px" height="24px" viewBox="0 0 24 24" style="enable-background:new 0 0 24 24;" xml:space="preserve">
<style type="text/css">
	.st0{fill:#A14944;}
</style>
<path class="st0" d="M23.6,13.4l-0.4-0.4c-1.2-1.2-2.9-1.9-4.6-1.9h-0.8L16,9.6c-1.2-1-2.7-1.6-4.2-1.6H8c0,0-2.8,0.1-3.5,0.9
	L2.8,11H2.5C1.1,11,0,12.1,0,13.5v2C0,16.3,0.7,17,1.5,17H2c0.1,0,0.1,0,0.2,0c0.4,1.2,1.5,2,2.8,2s2.4-0.9,2.8-2c0.1,0,0.1,0,0.2,0
	h7.7c0.4,1.2,1.5,2,2.8,2s2.4-0.8,2.8-2h1.2c0.8,0,1.5-0.7,1.5-1.5v-1.1C24,14,23.8,13.6,23.6,13.4z M16.7,11.5
	C16.1,11.7,14.9,12,12,12V9c1.2,0,2.4,0.5,3.4,1.3L16.7,11.5z M5.3,9.5C5.5,9.3,7.3,9,8,9h3v3c-4,0-6.2-0.5-7.2-0.7L5.3,9.5z M5,18
	c-1.1,0-2-0.9-2-2s0.9-2,2-2s2,0.9,2,2S6.1,18,5,18z M8,16c0-1.7-1.3-3-3-3s-3,1.3-3,3H1.5C1.2,16,1,15.8,1,15.5v-2
	C1,12.7,1.7,12,2.5,12h0.4c0.5,0.2,2.8,1,8.1,1v3H8z M18.5,18c-1.1,0-2-0.9-2-2s0.9-2,2-2s2,0.9,2,2S19.6,18,18.5,18z M23,15.5
	c0,0.3-0.2,0.5-0.5,0.5h-1c0-1.7-1.3-3-3-3s-3,1.3-3,3H12v-3c3.7-0.1,5-0.4,5.7-1h0.8c1.5,0,2.8,0.6,3.9,1.6l0.4,0.4
	c0.1,0.1,0.1,0.2,0.1,0.4V15.5z"/>
</svg>
