<?xml version="1.0" encoding="utf-8"?>
<!-- Generator: Adobe Illustrator 19.1.0, SVG Export Plug-In . SVG Version: 6.00 Build 0)  -->
<svg version="1.1" id="Layer_1" xmlns="http://www.w3.org/2000/svg" xmlns:xlink="http://www.w3.org/1999/xlink" x="0px" y="0px"
	 width="24px" height="24px" viewBox="0 0 24 24" style="enable-background:new 0 0 24 24;" xml:space="preserve">
<style type="text/css">
	.st0{fill:#A14944;}
</style>
<path class="st0" d="M23.5,0H18c-0.3,0-0.5,0.2-0.5,0.5S17.7,1,18,1h4.3l-8.2,9.2l-2.7-4.4c-0.1-0.1-0.2-0.2-0.4-0.2
	c-0.2,0-0.3,0.1-0.4,0.2l-4.7,6.5L2.4,8.6C3.4,5.4,6.4,3,10,3c2.2,0,4.4,0.9,5.9,2.6c0.2,0.2,0.5,0.2,0.7,0c0.2-0.2,0.2-0.5,0-0.7
	C14.9,3,12.5,2,10,2c-5,0-9,4-9,9c0,5,4,9,9,9c2,0,3.9-0.7,5.4-1.8l4.7,4.7c0.4,0.4,1,0.8,1.5,0.8c0.3,0,0.5-0.1,0.7-0.3l1-1
	c0.2-0.2,0.3-0.4,0.3-0.7c0-0.6-0.6-1.3-0.8-1.5l-4.9-4.9C18.6,14,19,12.5,19,11c0-0.3,0-0.6-0.1-1c0-0.3-0.3-0.5-0.5-0.4
	c-0.3,0-0.5,0.3-0.4,0.5c0,0.3,0,0.6,0,0.9c0,4.4-3.6,8-8,8s-8-3.6-8-8c0-0.4,0-0.8,0.1-1.2l3.5,3.5c0.1,0.1,0.2,0.1,0.4,0.1
	c0,0,0,0,0,0c0.1,0,0.3-0.1,0.4-0.2L11,6.9l2.6,4.3c0.1,0.1,0.2,0.2,0.4,0.2s0.3,0,0.4-0.2L23,1.7V6c0,0.3,0.2,0.5,0.5,0.5
	S24,6.3,24,6V0.5C24,0.2,23.8,0,23.5,0z M17.4,16.1l4.7,4.7c0.4,0.4,0.5,0.7,0.5,0.8l-1,1c-0.1,0-0.4-0.1-0.8-0.5l-4.6-4.6
	C16.7,17.1,17.1,16.6,17.4,16.1z"/>
</svg>
