<?xml version="1.0" encoding="utf-8"?>
<!-- Generator: Adobe Illustrator 19.1.0, SVG Export Plug-In . SVG Version: 6.00 Build 0)  -->
<svg version="1.1" id="Layer_1" xmlns="http://www.w3.org/2000/svg" xmlns:xlink="http://www.w3.org/1999/xlink" x="0px" y="0px"
	 width="16px" height="16px" viewBox="0 0 16 16" style="enable-background:new 0 0 16 16;" xml:space="preserve">
<style type="text/css">
	.st0{fill:#A14944;}
</style>
<path class="st0" d="M15.4,3.6L13.8,2c-0.7-0.7-1.5-1-2.5-1h-0.8c-0.8,0-1.5,0.7-1.5,1.5c0,0.3-0.2,0.5-0.5,0.5
	C8.2,2.9,7.8,3,7.5,3.2C7.6,3,7.6,2.8,7.4,2.6l-1-1c-0.7-0.7-2-0.7-2.7,0l-2,2C0.5,4.8,0.8,6.2,1.6,7.1v0.8c0,0.2,0.1,0.4,0.3,0.5
	C1.3,9,1.3,10.1,2,10.8l3.2,3.2c0.3,0.3,0.8,0.5,1.2,0.5c0.4,0,0.9-0.2,1.2-0.5c0,0.1,0.1,0.2,0.3,0.3l0.7,0.4
	C8.9,14.9,9.3,15,9.7,15c0.6,0,1.3-0.3,1.8-0.7l2.3-2.3c0.6-0.6,0.6-1.5,0-2.1l-0.3-0.3l-0.2-0.2c0.1,0,0.1-0.1,0.2-0.1l0.9-0.9h0.3
	c0.8,0,1.5-0.7,1.5-1.5l0-1C16.1,5.2,16.1,4.2,15.4,3.6z M2.4,4.3l2-2c0.3-0.3,0.9-0.3,1.3,0l1,1C6.8,3.4,7,3.4,7.1,3.4
	C6.9,3.6,6.7,3.8,6.6,4c0,0,0,0,0,0c0-0.3-0.2-0.5-0.5-0.5H4.9L2.1,6.2C1.9,5.7,1.7,5,2.4,4.3z M7.1,12.9c0,0.1,0,0.1,0,0.2
	c-0.1,0.4-0.4,0.5-0.6,0.5c-0.1,0-0.3,0-0.5-0.2l-3.2-3.2C2.4,9.9,2.4,9.5,2.5,9.3C2.5,9.2,2.7,9,2.9,9c0.1,0,0.1,0,0.2,0h0.3
	c0.8,0,1.6,0.3,2.1,0.9l0.7,0.7c0.6,0.6,0.9,1.3,0.9,2.1V12.9z M13,11.3l-2.3,2.3C10.3,14,9.6,14.1,9,13.8l-0.7-0.4
	c-0.1-0.1-0.2-0.1-0.3,0c0-0.1,0.1-0.1,0.1-0.2c0-0.1,0-0.2,0-0.3v-0.3c0-1.1-0.4-2.1-1.2-2.8L6.3,9.1C5.5,8.4,4.5,7.9,3.4,7.9H3.1
	c-0.1,0-0.2,0-0.3,0C2.7,8,2.6,8,2.6,8c0,0,0-0.1,0-0.1V7.1l2.7-2.7h0.8c0.1,0,0.2,0,0.3-0.1C6.2,4.7,6.1,5,6.1,5.4v2
	c0,0.8,0.7,1.5,1.5,1.5s1.5-0.7,1.5-1.5V6.9h0.5c0,0.1,0,0.3,0.1,0.4l3,3l0.3,0.3C13.2,10.8,13.2,11.1,13,11.3z M10.8,6.9
	c0.2-0.1,0.3-0.3,0.3-0.5c0-0.3-0.2-0.5-0.5-0.5H8.1v1.5c0,0.3-0.2,0.5-0.5,0.5S7.1,7.7,7.1,7.4v-2c0-0.8,0.7-1.5,1.5-1.5
	c0.2,0,0.4-0.1,0.6-0.2c0,0,0,0,0,0l4.1,4.1l-0.6,0.6c-0.1,0.1-0.1,0.1-0.1,0.2L10.8,6.9z M15.1,6.9c0,0.3-0.2,0.5-0.5,0.5h-0.3
	L9.9,3.1c0,0,0,0,0,0c0.1-0.2,0.2-0.4,0.2-0.6c0-0.3,0.2-0.5,0.5-0.5h0.8c0.7,0,1.3,0.3,1.8,0.7l1.6,1.6c0.4,0.4,0.4,1,0.4,1.7
	L15.1,6.9z"/>
</svg>
