<?xml version="1.0" encoding="utf-8"?>
<!-- Generator: Adobe Illustrator 19.1.0, SVG Export Plug-In . SVG Version: 6.00 Build 0)  -->
<svg version="1.1" id="Layer_1" xmlns="http://www.w3.org/2000/svg" xmlns:xlink="http://www.w3.org/1999/xlink" x="0px" y="0px"
	 width="16px" height="16px" viewBox="0 0 16 16" style="enable-background:new 0 0 16 16;" xml:space="preserve">
<style type="text/css">
	.st0{fill:#A14944;}
</style>
<g>
	<path class="st0" d="M2,5C0.9,5,0,5.9,0,7c0,1.1,0.9,2,2,2s2-0.9,2-2C4,5.9,3.1,5,2,5z M2,8C1.4,8,1,7.6,1,7s0.4-1,1-1s1,0.4,1,1
		S2.6,8,2,8z"/>
	<path class="st0" d="M8,8c-1.1,0-2,0.9-2,2c0,1.1,0.9,2,2,2s2-0.9,2-2C10,8.9,9.1,8,8,8z M8,11c-0.6,0-1-0.4-1-1s0.4-1,1-1
		s1,0.4,1,1S8.6,11,8,11z"/>
	<path class="st0" d="M14,4c-1.1,0-2,0.9-2,2c0,1.1,0.9,2,2,2s2-0.9,2-2C16,4.9,15.1,4,14,4z M14,7c-0.6,0-1-0.4-1-1s0.4-1,1-1
		s1,0.4,1,1S14.6,7,14,7z"/>
	<path class="st0" d="M2,4c0.6,0,1-0.4,1-1V1c0-0.6-0.4-1-1-1S1,0.4,1,1v2C1,3.6,1.4,4,2,4z"/>
	<path class="st0" d="M2,10c-0.6,0-1,0.4-1,1v4c0,0.6,0.4,1,1,1s1-0.4,1-1v-4C3,10.4,2.6,10,2,10z"/>
	<path class="st0" d="M8,7c0.6,0,1-0.4,1-1V1c0-0.6-0.4-1-1-1S7,0.4,7,1v5C7,6.6,7.4,7,8,7z"/>
	<path class="st0" d="M8,13c-0.6,0-1,0.4-1,1v1c0,0.6,0.4,1,1,1s1-0.4,1-1v-1C9,13.4,8.6,13,8,13z"/>
	<path class="st0" d="M14,3c0.6,0,1-0.4,1-1V1c0-0.6-0.4-1-1-1s-1,0.4-1,1v1C13,2.6,13.4,3,14,3z"/>
	<path class="st0" d="M14,9c-0.6,0-1,0.4-1,1v5c0,0.6,0.4,1,1,1s1-0.4,1-1v-5C15,9.4,14.6,9,14,9z"/>
</g>
</svg>
