<?xml version="1.0" encoding="utf-8"?>
<!-- Generator: Adobe Illustrator 19.1.0, SVG Export Plug-In . SVG Version: 6.00 Build 0)  -->
<svg version="1.1" id="Layer_1" xmlns="http://www.w3.org/2000/svg" xmlns:xlink="http://www.w3.org/1999/xlink" x="0px" y="0px"
	 width="16px" height="16px" viewBox="0 0 16 16" style="enable-background:new 0 0 16 16;" xml:space="preserve">
<style type="text/css">
	.st0{fill:#A14944;}
</style>
<path class="st0" d="M13.5,11c-0.8,0-1.5,0.4-2,1l-4-2.2C7.8,9.2,8,8.6,8,8c0-0.6-0.2-1.2-0.4-1.8l4-2.2c0.5,0.6,1.2,1,2,1
	C14.9,5,16,3.9,16,2.5C16,1.1,14.9,0,13.5,0S11,1.1,11,2.5c0,0.2,0,0.4,0.1,0.7L7,5.4C6.3,4.6,5.2,4,4,4C1.8,4,0,5.8,0,8
	c0,2.2,1.8,4,4,4c1.2,0,2.3-0.6,3-1.4l4.1,2.3C11,13.1,11,13.3,11,13.5c0,1.4,1.1,2.5,2.5,2.5s2.5-1.1,2.5-2.5
	C16,12.1,14.9,11,13.5,11z M13.5,1C14.3,1,15,1.7,15,2.5S14.3,4,13.5,4S12,3.3,12,2.5S12.7,1,13.5,1z M4,10c-1.1,0-2-0.9-2-2
	c0-1.1,0.9-2,2-2s2,0.9,2,2C6,9.1,5.1,10,4,10z M13.5,15c-0.8,0-1.5-0.7-1.5-1.5s0.7-1.5,1.5-1.5s1.5,0.7,1.5,1.5S14.3,15,13.5,15z"
	/>
</svg>
