<?xml version="1.0" encoding="utf-8"?>
<!-- Generator: Adobe Illustrator 19.1.0, SVG Export Plug-In . SVG Version: 6.00 Build 0)  -->
<svg version="1.1" id="Layer_1" xmlns="http://www.w3.org/2000/svg" xmlns:xlink="http://www.w3.org/1999/xlink" x="0px" y="0px"
	 width="16px" height="16px" viewBox="0 0 16 16" style="enable-background:new 0 0 16 16;" xml:space="preserve">
<style type="text/css">
	.st0{fill:#A14944;}
</style>
<path class="st0" d="M14,3H2C0.9,3,0,3.9,0,5v7c0,1.1,0.9,2,2,2h12c1.1,0,2-0.9,2-2V5C16,3.9,15.1,3,14,3z M14,4c0.1,0,0.2,0,0.2,0
	L8,10.3L1.8,4C1.8,4,1.9,4,2,4H14z M1.1,12.1c0,0-0.1,0.1-0.1,0.1C1,12.2,1,12.1,1,12V5c0-0.1,0-0.2,0-0.2l3.8,3.8
	c-0.1,0-0.1,0.1-0.2,0.1L1.1,12.1z M2,13c-0.1,0-0.2,0-0.3-0.1c0,0,0.1,0,0.1-0.1l3.5-3.5c0.1-0.1,0.1-0.1,0.1-0.2L8,11.7l2.5-2.5
	c0,0.1,0.1,0.1,0.1,0.2l3.5,3.5c0,0,0.1,0.1,0.1,0.1C14.2,13,14.1,13,14,13H2z M15,12c0,0.1,0,0.2-0.1,0.3c0,0,0-0.1-0.1-0.1
	l-3.5-3.5c-0.1-0.1-0.1-0.1-0.2-0.1L15,4.8c0,0.1,0,0.2,0,0.2V12z"/>
</svg>
