<?xml version="1.0" encoding="utf-8"?>
<!-- Generator: Adobe Illustrator 19.1.0, SVG Export Plug-In . SVG Version: 6.00 Build 0)  -->
<svg version="1.1" id="Layer_1" xmlns="http://www.w3.org/2000/svg" xmlns:xlink="http://www.w3.org/1999/xlink" x="0px" y="0px"
	 width="16px" height="16px" viewBox="0 0 16 16" style="enable-background:new 0 0 16 16;" xml:space="preserve">
<style type="text/css">
	.st0{fill:#A14944;}
</style>
<g>
	<path class="st0" d="M14,3h-2l-1.4-1.4C10.2,1.2,9.7,1,9.2,1H7.8c-0.5,0-1,0.2-1.4,0.6L5,3H2C0.9,3,0,3.9,0,5v8c0,1.1,0.9,2,2,2h12
		c1.1,0,2-0.9,2-2V5C16,3.9,15.1,3,14,3z M15,13c0,0.6-0.4,1-1,1H2c-0.6,0-1-0.4-1-1V5c0-0.6,0.4-1,1-1h3h0.4l0.3-0.3l1.4-1.4
		C7.3,2.1,7.6,2,7.8,2h1.3c0.3,0,0.5,0.1,0.7,0.3l1.4,1.4L11.6,4H12h2c0.6,0,1,0.4,1,1V13z"/>
	<path class="st0" d="M7.5,5C5.6,5,4,6.6,4,8.5C4,10.4,5.6,12,7.5,12S11,10.4,11,8.5C11,6.6,9.4,5,7.5,5z M7.5,11
		C6.1,11,5,9.9,5,8.5C5,7.1,6.1,6,7.5,6S10,7.1,10,8.5C10,9.9,8.9,11,7.5,11z"/>
	<circle class="st0" cx="12.5" cy="6.5" r="0.5"/>
</g>
</svg>
