<?xml version="1.0" encoding="utf-8"?>
<!-- Generator: Adobe Illustrator 19.1.0, SVG Export Plug-In . SVG Version: 6.00 Build 0)  -->
<svg version="1.1" id="Layer_1" xmlns="http://www.w3.org/2000/svg" xmlns:xlink="http://www.w3.org/1999/xlink" x="0px" y="0px"
	 width="16px" height="16px" viewBox="0 0 16 16" style="enable-background:new 0 0 16 16;" xml:space="preserve">
<style type="text/css">
	.st0{fill:#A14944;}
</style>
<g>
	<path class="st0" d="M8,0C3.6,0,0,3.6,0,8s3.6,8,8,8s8-3.6,8-8S12.4,0,8,0z M8,15c-3.9,0-7-3.1-7-7s3.1-7,7-7s7,3.1,7,7
		S11.9,15,8,15z"/>
	<path class="st0" d="M8.5,7.8L8,3c0-0.3-0.3-0.5-0.5-0.4C7.2,2.5,7,2.8,7,3l0.5,5.2l3.1,3.1c0.1,0.1,0.2,0.1,0.4,0.1s0.3,0,0.4-0.1
		c0.2-0.2,0.2-0.5,0-0.7L8.5,7.8z"/>
	<path class="st0" d="M9,12.5c-2.8,0-5-2.2-5-5c0-1.2,0.4-2.4,1.2-3.3c0.2-0.2,0.2-0.5,0-0.7C5,3.3,4.7,3.4,4.5,3.6
		C3.5,4.7,3,6.1,3,7.5c0,3.3,2.7,6,6,6c0.3,0,0.5-0.2,0.5-0.5S9.3,12.5,9,12.5z"/>
</g>
</svg>
