<?xml version="1.0" encoding="utf-8"?>
<!-- Generator: Adobe Illustrator 19.1.0, SVG Export Plug-In . SVG Version: 6.00 Build 0)  -->
<svg version="1.1" id="Layer_1" xmlns="http://www.w3.org/2000/svg" xmlns:xlink="http://www.w3.org/1999/xlink" x="0px" y="0px"
	 width="16px" height="16px" viewBox="0 0 16 16" style="enable-background:new 0 0 16 16;" xml:space="preserve">
<style type="text/css">
	.st0{fill:#A14944;}
</style>
<g>
	<path class="st0" d="M9,0H3C2.4,0,2,0.4,2,1v14c0,0.6,0.4,1,1,1h10c0.6,0,1-0.4,1-1V5L9,0z M12.6,5H9.5C9.2,5,9,4.8,9,4.5V1.4
		L12.6,5z M13,15H3V1h5v3.5C8,5.3,8.7,6,9.5,6H13V15z"/>
	<path class="st0" d="M4.5,7.5C4.5,7.8,4.7,8,5,8h6c0.3,0,0.5-0.2,0.5-0.5S11.3,7,11,7H5C4.7,7,4.5,7.2,4.5,7.5z"/>
	<path class="st0" d="M11,9H5C4.7,9,4.5,9.2,4.5,9.5S4.7,10,5,10h6c0.3,0,0.5-0.2,0.5-0.5S11.3,9,11,9z"/>
	<path class="st0" d="M11,11H5c-0.3,0-0.5,0.2-0.5,0.5S4.7,12,5,12h6c0.3,0,0.5-0.2,0.5-0.5S11.3,11,11,11z"/>
</g>
</svg>
