<?xml version="1.0" encoding="utf-8"?>
<!-- Generator: Adobe Illustrator 19.1.0, SVG Export Plug-In . SVG Version: 6.00 Build 0)  -->
<svg version="1.1" id="Layer_1" xmlns="http://www.w3.org/2000/svg" xmlns:xlink="http://www.w3.org/1999/xlink" x="0px" y="0px"
	 width="16px" height="16px" viewBox="0 0 16 16" style="enable-background:new 0 0 16 16;" xml:space="preserve">
<style type="text/css">
	.st0{fill:#A14944;}
</style>
<g>
	<path class="st0" d="M15,8c-0.6,0-1,0.4-1,1v3c0,0.6-0.4,1-1,1H3c-0.6,0-1-0.4-1-1V9.1c0-0.6-0.4-1-1-1s-1,0.4-1,1V12
		c0,1.7,1.3,3,3,3h10c1.7,0,3-1.3,3-3V9C16,8.4,15.6,8,15,8z"/>
	<path class="st0" d="M7.4,11.8c0,0,0.1,0,0.1,0.1c0,0,0.1,0,0.1,0.1C7.8,12,7.9,12,8,12s0.2,0,0.4-0.1c0,0,0.1,0,0.1-0.1
		c0,0,0.1,0,0.1-0.1l4-3c0.4-0.3,0.5-1,0.2-1.4c-0.3-0.4-1-0.5-1.4-0.2L9,9V3c0-0.6-0.4-1-1-1S7,2.4,7,3v6L4.6,7.2
		C4.2,6.9,3.5,7,3.2,7.4C2.9,7.8,3,8.5,3.4,8.8L7.4,11.8z"/>
</g>
</svg>
