<?xml version="1.0" encoding="utf-8"?>
<!-- Generator: Adobe Illustrator 19.1.0, SVG Export Plug-In . SVG Version: 6.00 Build 0)  -->
<svg version="1.1" id="Layer_1" xmlns="http://www.w3.org/2000/svg" xmlns:xlink="http://www.w3.org/1999/xlink" x="0px" y="0px"
	 width="16px" height="16px" viewBox="0 0 16 16" style="enable-background:new 0 0 16 16;" xml:space="preserve">
<style type="text/css">
	.st0{fill:#A14944;}
</style>
<g>
	<path class="st0" d="M13,6h-1c-0.6,0-1-0.4-1-1V3c0-1.7-1.3-3-3-3C7.4,0,7,0.4,7,1v2.6c0,0.3-0.1,0.5-0.3,0.7L4,7H2
		C0.9,7,0,7.9,0,9v4c0,1.1,0.9,2,2,2h2c0,0,0,1,1,1h4.8c1.3,0,4.2-1.1,4.2-4c0-2.1,0.8-3.2,0.8-3.2C15.4,7.5,14.4,6,13,6z M2,14
		c-0.6,0-1-0.4-1-1V9c0-0.6,0.4-1,1-1h1v6H2z M13.9,8.3C13.7,8.7,13,10,13,12c0,2.3-2.4,3-3.2,3L5,15c0,0,0,0,0,0l0-1H4V8h0.4
		l0.3-0.3L7.4,5C7.8,4.6,8,4.1,8,3.6L8,1l0,0c1.1,0,2,0.9,2,2v2c0,1.1,0.9,2,2,2h1c0.3,0,0.6,0.2,0.8,0.4C14,7.7,14,8,13.9,8.3z"/>
	<path class="st0" d="M11.3,8c-0.1,0.1-1.2,0.6-1.2,2.7c0,1.6-0.9,2.3-0.9,2.4c-0.2,0.2-0.3,0.5-0.1,0.7C9.2,13.9,9.4,14,9.5,14
		c0.1,0,0.2,0,0.3-0.1c0.1,0,1.3-1.1,1.3-3.1c0-1.5,0.6-1.8,0.6-1.8C12,8.8,12.1,8.6,12,8.3C11.8,8,11.6,7.9,11.3,8z"/>
</g>
</svg>
