<?xml version="1.0" encoding="utf-8"?>
<!-- Generator: Adobe Illustrator 19.1.0, SVG Export Plug-In . SVG Version: 6.00 Build 0)  -->
<svg version="1.1" id="Layer_1" xmlns="http://www.w3.org/2000/svg" xmlns:xlink="http://www.w3.org/1999/xlink" x="0px" y="0px"
	 width="24px" height="24px" viewBox="0 0 24 24" style="enable-background:new 0 0 24 24;" xml:space="preserve">
<style type="text/css">
	.st0{fill:#A14944;}
</style>
<g>
	<path class="st0" d="M18.9,13.3l4.9-4.6V8.5c0-1.4-1.1-2.5-2.5-2.5H19V4h2c0.6,0,1-0.4,1-1V2c0-1.1-0.9-2-2-2H4C2.9,0,2,0.9,2,2v1
		c0,0.6,0.4,1,1,1h2v2H2.8C1.4,6,0.3,7.1,0.3,8.5v0.2l4.9,4.6c0.6,3,3,5.3,6.1,5.6c-0.1,0.2-0.2,0.3-0.2,0.6V22H7.3
		c-0.6,0-1,0.4-1,1s0.4,1,1,1h9.6c0.6,0,1-0.4,1-1s-0.4-1-1-1H13v-2.5c0-0.2-0.1-0.4-0.2-0.6C15.9,18.6,18.3,16.3,18.9,13.3z
		 M21.3,7c0.8,0,1.4,0.6,1.5,1.3L19,11.8V7H21.3z M3,3V2c0-0.6,0.4-1,1-1h16c0.6,0,1,0.4,1,1v1h-2h-0.8H18H6.3C6.2,3,6.1,3,6,3.1V3
		H5H3z M2.8,7H5v4.8L1.3,8.3C1.4,7.6,2,7,2.8,7z M12,18c-3.3,0-6-2.7-6-6V4V3.9C6.1,4,6.2,4,6.3,4H18v8C18,15.3,15.3,18,12,18z"/>
	<path class="st0" d="M12.3,15H12c-1.7,0-3-1.3-3-3V6c0-0.3-0.2-0.5-0.5-0.5S8,5.7,8,6v6c0,2.2,1.8,4,4,4h0.3c0.3,0,0.5-0.2,0.5-0.5
		S12.5,15,12.3,15z"/>
</g>
</svg>
