<?xml version="1.0" encoding="utf-8"?>
<!-- Generator: Adobe Illustrator 19.1.0, SVG Export Plug-In . SVG Version: 6.00 Build 0)  -->
<svg version="1.1" id="Layer_1" xmlns="http://www.w3.org/2000/svg" xmlns:xlink="http://www.w3.org/1999/xlink" x="0px" y="0px"
	 width="24px" height="24px" viewBox="0 0 24 24" style="enable-background:new 0 0 24 24;" xml:space="preserve">
<style type="text/css">
	.st0{fill:#A14944;}
</style>
<g>
	<path class="st0" d="M22,8v13c0,0.6-0.4,1-1,1H3c-0.6,0-1-0.4-1-1V8H0v13c0,1.7,1.3,3,3,3h18c1.7,0,3-1.3,3-3V8H22z"/>
	<path class="st0" d="M21.8,21.1L14,15.7l7.9-6.9l-0.7-0.8L21,8.3V0H3v8.2L2.8,8.1L2.2,8.9l19,13L21.8,21.1z M4,1h16v8h0.2l-7,6.1
		l0.2,0.2L4,8.9V1z"/>
	<path class="st0" d="M6,4h12c0.3,0,0.5-0.2,0.5-0.5S18.3,3,18,3H6C5.7,3,5.5,3.2,5.5,3.5S5.7,4,6,4z"/>
	<path class="st0" d="M6,7h12c0.3,0,0.5-0.2,0.5-0.5S18.3,6,18,6H6C5.7,6,5.5,6.2,5.5,6.5S5.7,7,6,7z"/>
	<path class="st0" d="M18.5,9.5C18.5,9.2,18.3,9,18,9H6C5.7,9,5.5,9.2,5.5,9.5S5.7,10,6,10h12C18.3,10,18.5,9.8,18.5,9.5z"/>
</g>
</svg>
