<?xml version="1.0" encoding="utf-8"?>
<!-- Generator: Adobe Illustrator 19.1.0, SVG Export Plug-In . SVG Version: 6.00 Build 0)  -->
<svg version="1.1" id="Layer_1" xmlns="http://www.w3.org/2000/svg" xmlns:xlink="http://www.w3.org/1999/xlink" x="0px" y="0px"
	 width="48px" height="48px" viewBox="0 0 48 48" style="enable-background:new 0 0 48 48;" xml:space="preserve">
<style type="text/css">
	.st0{fill:#A14944;}
</style>
<path class="st0" d="M41.5,4.7C42.3,7.4,43,13.5,43,18c0,10.8-0.8,14.5-1.3,15.7c-0.5-0.4-1.1-1-1.7-1.6C36.7,28.7,31.2,23,20,23
	c-2.5,0-3.5,1.1-3.8,2c-0.1,0-0.1,0-0.2,0c-0.9,0-3,0.4-3,4c0,0.5,0.1,1.4,0.7,2c-0.4,0.5-0.7,1.2-0.7,2c0,1.4,2.5,6.7,5.1,7.8
	c-0.7,0.7-1.5,1.6-2.1,2c-1.3-1.3-3.3-5.9-4.2-8C10.1,31.1,9.6,30,8,30c0,0,0,0,0,0c-0.2,0-0.7-0.2-1-0.5V27c0-1.8-1.2-3-3-3
	c0-2.1-1.4-2.9-2-3.2V17c0-0.2,0-0.4,0-0.5c0,0,0.1,0,0.1,0C3.4,16,4,15.1,4,14c0-0.1,0-0.2,0-0.3c0-0.2,0-0.4,0-0.6
	c0.1,0,0.4-0.1,1-0.1h11c0,1.4,1,3,4,3c9.4,0,16.5-6.6,20.3-10.2C40.7,5.5,41.1,5.1,41.5,4.7 M42,2c-1.9,0-10,12-22,12
	c-0.9,0-2-0.2-2-1s0-2-2-2c-4.1,0-9.1,0-11,0c-3.3,0-3,2-3,3s-2,0.1-2,3c0,2,0,2,0,4s2,1.1,2,3s1.2,2,2,2s1,0.4,1,1s0,1,0,3
	c0,0.9,1.9,2,3,2c0.9,0,5.1,13,8,13c1,0,5-4.1,5-5s-0.9-1-2-1s-4-4.9-4-6c0-0.9,0.7-1,0.9-1c0,0,0.1,0,0.1,0c0.5,0,1,0,1-1
	c0-1.9-2-0.1-2-2c0-0.9,0.1-2,1-2c0.8,0,2-0.2,2-1s1-1,2-1c15,0,19,11,22,11s3-13.1,3-18S43.9,2,42,2L42,2z"/>
<path class="st0" d="M39.5,33.1l-1-0.2c0-0.1,1.5-9.7,1.5-14.9c0-5.2-1.5-11.8-1.5-11.9l1-0.2C39.5,6,41,12.7,41,18
	C41,23.3,39.5,33,39.5,33.1z"/>
<rect x="16" y="13" class="st0" width="1" height="12"/>
<rect x="19" y="14" class="st0" width="1" height="11"/>
<rect x="3" y="14" class="st0" width="1" height="11"/>
<rect x="6" y="25" class="st0" width="10" height="1"/>
<path class="st0" d="M12,17v4H6v-4H12 M12,16H6c-0.6,0-1,0.4-1,1v4c0,0.6,0.4,1,1,1h6c0.6,0,1-0.4,1-1v-4C13,16.4,12.6,16,12,16
	L12,16z"/>
<path class="st0" d="M14,14c-0.6,0-1,0.4-1,1s0.4,1,1,1s1-0.4,1-1S14.6,14,14,14L14,14z"/>
<path class="st0" d="M44.5,23v-1c1.4,0,2.5-1.6,2.5-3.5S45.9,15,44.5,15v-1c1.9,0,3.5,2,3.5,4.5S46.4,23,44.5,23z"/>
<rect x="10.6" y="26.1" transform="matrix(0.3885 0.9215 -0.9215 0.3885 33.7124 7.6691)" class="st0" width="1" height="6.3"/>
</svg>
