<?xml version="1.0" encoding="utf-8"?>
<!-- Generator: Adobe Illustrator 19.1.0, SVG Export Plug-In . SVG Version: 6.00 Build 0)  -->
<svg version="1.1" id="Layer_1" xmlns="http://www.w3.org/2000/svg" xmlns:xlink="http://www.w3.org/1999/xlink" x="0px" y="0px"
	 width="48px" height="48px" viewBox="0 0 48 48" style="enable-background:new 0 0 48 48;" xml:space="preserve">
<style type="text/css">
	.st0{fill:#A14944;}
</style>
<path class="st0" d="M21,7c4.7,0,8.5,2.5,11.1,4.2c1.7,1.1,2.7,1.8,3.9,1.8c0.4,0,1,0,1,2v2h1.5c0.2,0.5,0.5,1.8,0.5,5
	c0,5.9,3.3,7.9,5.6,9c-0.8,0-1.7,0-2.6,0c-2.8,0-3.9-0.3-5.3-0.7c-2-0.6-4.3-1.3-10.7-1.3H4c-2,0-2-0.4-2-1.9c0,0,0-0.1,0-0.1h1v-2
	C3,22,3.9,7,21,7 M21,5C1.9,5,1,22.1,1,25c-0.9,0-1,1-1,2.1C0,28.9,0.3,31,4,31c1.9,0,16.9,0,22,0c10.9,0,9.1,2,16,2
	c3.9,0,5.9,0,5.9-2c0-2.2-6.9-1-6.9-9c0-2.4-0.1-7-2-7c0-0.9-0.1-4-3-4C34.2,11,28.9,5,21,5L21,5z"/>
<rect x="3" y="26" class="st0" width="38" height="1"/>
<path class="st0" d="M40,23h-2.5C35,23,33,21,33,18.5c0-1.4,1.1-2.5,2.5-2.5H38v1h-2.5c-0.8,0-1.5,0.7-1.5,1.5
	c0,1.9,1.6,3.5,3.5,3.5H40V23z"/>
<path class="st0" d="M6,39.6c-0.5,0-1-0.2-1.4-0.6L2,36.4c-0.8-0.8-0.8-2,0-2.8l4.3-4.3l1.4,1.4L3.4,35L6,37.6l8.3-8.3l1.4,1.4
	L7.4,39C7,39.4,6.5,39.6,6,39.6z"/>
<path class="st0" d="M23.5,17.5c-0.3,0-0.5-0.2-0.5-0.5v-0.5c0-1.9-1.6-3.5-3.5-3.5h-4c-1.9,0-3.5,1.6-3.5,3.5V17
	c0,0.3-0.2,0.5-0.5,0.5S11,17.3,11,17v-0.5c0-2.5,2-4.5,4.5-4.5h4c2.5,0,4.5,2,4.5,4.5V17C24,17.3,23.8,17.5,23.5,17.5z"/>
<path class="st0" d="M23,26h-1v-3.5c0-0.8-0.7-1.5-1.5-1.5h-6c-0.8,0-1.5,0.7-1.5,1.5V26h-1v-3.5c0-1.4,1.1-2.5,2.5-2.5h6
	c1.4,0,2.5,1.1,2.5,2.5V26z"/>
<path class="st0" d="M10,26H9v-4.5C9,21.2,8.8,21,8.5,21h-1C7.2,21,7,21.2,7,21.5V26H6v-4.5C6,20.7,6.7,20,7.5,20h1
	c0.8,0,1.5,0.7,1.5,1.5V26z"/>
<path class="st0" d="M29,26h-1v-4.5c0-0.3-0.2-0.5-0.5-0.5h-1c-0.3,0-0.5,0.2-0.5,0.5V26h-1v-4.5c0-0.8,0.7-1.5,1.5-1.5h1
	c0.8,0,1.5,0.7,1.5,1.5V26z"/>
</svg>
