<?xml version="1.0" encoding="utf-8"?>
<!-- Generator: Adobe Illustrator 19.1.0, SVG Export Plug-In . SVG Version: 6.00 Build 0)  -->
<svg version="1.1" id="Layer_1" xmlns="http://www.w3.org/2000/svg" xmlns:xlink="http://www.w3.org/1999/xlink" x="0px" y="0px"
	 width="48px" height="48px" viewBox="0 0 48 48" style="enable-background:new 0 0 48 48;" xml:space="preserve">
<style type="text/css">
	.st0{fill:#A14944;}
</style>
<path class="st0" d="M9.5,28c1.4,0,2.5,1.1,2.5,2.5S10.8,33,9.5,33S7,31.9,7,30.5S8.1,28,9.5,28 M9.5,26C7,26,5,28,5,30.5
	S7,35,9.5,35s4.5-2,4.5-4.5S12,26,9.5,26L9.5,26z"/>
<path class="st0" d="M38.5,28c1.4,0,2.5,1.1,2.5,2.5S39.8,33,38.5,33S36,31.9,36,30.5S37.1,28,38.5,28 M38.5,26C36,26,34,28,34,30.5
	s2,4.5,4.5,4.5s4.5-2,4.5-4.5S41,26,38.5,26L38.5,26z"/>
<path class="st0" d="M6,32H3c-1.7,0-3-1.3-3-3v-6c0-1.7,1.3-3,3-3h0.8l1-0.5c4.6-2.3,9.7-3.5,14.8-3.5h2.6c2,0,4,0.5,5.8,1.5
	l4.2,2.3c1.4,0.8,3,1.3,4.6,1.5l3.8,0.4c2.6,0.3,4.8,1.7,6.1,4l1,1.7c0.4,0.8,0.5,1.7,0.2,2.5c-0.3,0.8-1,1.5-1.8,1.8l-0.3,0.1
	L42,32l-0.1-2l3.6-0.3c0.3-0.1,0.4-0.4,0.5-0.6c0.1-0.2,0.1-0.5-0.1-0.8l-1-1.7c-1-1.7-2.7-2.8-4.6-3l-3.8-0.4
	c-1.9-0.2-3.7-0.8-5.4-1.7L27,19.3c-1.5-0.8-3.2-1.3-4.9-1.3h-2.6c-4.8,0-9.6,1.1-13.9,3.3L4.2,22H3c-0.6,0-1,0.4-1,1v6
	c0,0.6,0.4,1,1,1h3V32z"/>
<rect x="13" y="30" class="st0" width="22" height="2"/>
<rect x="22" y="18" class="st0" width="1" height="5"/>
<rect x="22" y="23" class="st0" width="1" height="7"/>
<path class="st0" d="M28.6,24h-5.4c-0.2,0-8.6-0.8-13.6-1.2c-1.8-0.2-3.2-1.7-3.2-3.5V19h1v0.3c0,1.3,1,2.4,2.3,2.5
	c4.5,0.4,13.2,1.2,13.5,1.2l5.4,0c1.5,0,2.9-0.3,4.2-1l0.9-0.4l0.4,0.9l-0.9,0.4C31.9,23.6,30.2,24,28.6,24z"/>
<path class="st0" d="M2.5,25H2v-1h0.5C3.8,24,5,22.9,5,21.5V21h1v0.5C6,23.4,4.4,25,2.5,25z"/>
<path class="st0" d="M44.9,26.5c-0.3,0-3.3-0.2-4.3-1.1c-0.3-0.3-0.8-0.5-1.3-0.7c-0.8-0.3-1.8-0.7-1.8-1.6h1c0,0.2,0.7,0.5,1.1,0.7
	c0.6,0.2,1.2,0.5,1.7,0.9c0.5,0.5,2.5,0.8,3.7,0.9L44.9,26.5z"/>
</svg>
