<?xml version="1.0" encoding="utf-8"?>
<!-- Generator: Adobe Illustrator 19.1.0, SVG Export Plug-In . SVG Version: 6.00 Build 0)  -->
<svg version="1.1" id="Layer_1" xmlns="http://www.w3.org/2000/svg" xmlns:xlink="http://www.w3.org/1999/xlink" x="0px" y="0px"
	 width="48px" height="48px" viewBox="0 0 48 48" style="enable-background:new 0 0 48 48;" xml:space="preserve">
<style type="text/css">
	.st0{fill:#A14944;}
</style>
<path class="st0" d="M12,18.5c-0.6,0-1-0.4-1-1C11,12.6,14.1,1,19,1c2.9,0,3.9,1.4,4.5,2.4C24.1,2.4,25.1,1,28,1c5,0,8,11.4,8,16.4
	c0,0.6-0.4,1-1,1s-1-0.4-1-1c0-5-3.1-14.4-6-14.4c-2,0-2.5,0.9-2.9,1.7C24.8,5.2,24.4,6,23.5,6s-1.3-0.8-1.6-1.3C21.5,3.9,21,3,19,3
	c-2.8,0-6,9.4-6,14.5C13,18,12.6,18.5,12,18.5z"/>
<path class="st0" d="M23.5,20c-5.9,0-11.6-1.5-11.6-1.5c-0.3-0.1-0.4-0.3-0.4-0.6c0.1-0.3,0.3-0.4,0.6-0.4c0.1,0,5.6,1.5,11.4,1.5
	c5.8,0,11.3-1.5,11.4-1.5c0.3-0.1,0.5,0.1,0.6,0.4c0.1,0.3-0.1,0.5-0.4,0.6C35.1,18.5,29.4,20,23.5,20z"/>
<path class="st0" d="M23.5,14c-5.9,0-10.5-1.5-10.7-1.5l0.3-1c0,0,4.6,1.5,10.3,1.5c5.8,0,10.3-1.5,10.3-1.5l0.3,1
	C34,12.5,29.4,14,23.5,14z"/>
<path class="st0" d="M23.5,24C13.8,24,4,21.9,4,18c0-2.7,4.2-4.1,7.8-4.9l0.4,2C7.7,16,6,17.4,6,18c0,1.4,6.2,4,17.5,4
	S41,19.4,41,18c0-0.6-1.7-2-6.2-2.9l0.4-2c3.6,0.8,7.8,2.2,7.8,4.9C43,21.9,33.2,24,23.5,24z"/>
<path class="st0" d="M31,45c-8.5,0-10.9-1.5-12.5-2.4c-0.6-0.3-0.9-0.5-1.3-0.6c-0.1,0.1-0.2,0.4-0.3,0.6C16.5,43.5,15.8,45,14,45H7
	c-1.2-0.1-3-0.9-3-3l0-0.3c0-2.3,0-4,0.7-5C4.3,36.1,4,35.2,4,33c0-2.5,1.5-4,4-4c1.5,0,1.8,0.9,2,1.3c0.1,0.3,0.3,0.7,2,0.7
	c2.4,0,3.8-1.1,5.2-2.2c1.1-0.9,2.3-1.8,3.8-1.8c1.7,0,3.4,1.6,5.4,3.4c1.8,1.7,3.9,3.6,5.6,3.6c6.8,0,10.2,2,10.9,4.2
	c0.6,0.3,1.1,1.1,1.1,2.8C44,43.1,37.9,45,31,45z M6.3,38C6,38.7,6,40.8,6,41.7L6,42c0,0.8,0.8,1,1.1,1l6.9,0c0.4,0,0.7-0.4,1.1-1.3
	C15.5,40.9,16,40,17,40c1.1,0,1.8,0.4,2.5,0.9C20.9,41.7,23.1,43,31,43c6.7,0,10.3-1.6,11-2.2c0-0.4-0.1-0.7-0.1-0.8l-0.8,0L41,39
	c0-1.2-2.9-3-9-3c-2.5,0-4.8-2.1-7-4.2c-1.4-1.3-3.1-2.8-4-2.8c-0.9,0-1.6,0.6-2.6,1.4C17,31.5,15.2,33,12,33
	c-2.5,0-3.3-0.8-3.8-1.9c0,0,0-0.1,0-0.1c0,0-0.1,0-0.1,0c-1.3,0-2,0.7-2,2c0,2.3,0.3,2.6,0.5,2.7C6.6,35.9,7,36.3,7,37v1H6.3z"/>
<path class="st0" d="M32,41c-4.5,0-6.9-0.8-9.2-1.5C20.6,38.7,18.4,38,14,38H6v-1h8c4.5,0,6.9,0.8,9.2,1.5c2.3,0.8,4.5,1.5,8.8,1.5
	c7.6,0,9.8-0.9,9.8-1l0.4,0.9C42.1,40,39.9,41,32,41z"/>
<path class="st0" d="M12,37h-1c0-0.6-0.3-0.8-1.1-1.2C8.7,35.2,7,34.5,7,31h1c0,2.8,1.2,3.4,2.3,3.9C11.1,35.3,12,35.7,12,37z"/>
<path class="st0" d="M16,38h-1c0-1.9,1.4-5,5-5c1.4,0,2.9,1,4.4,1.9c1.2,0.8,2.5,1.6,3,1.3c0.2-0.1,0.6-0.6,0.6-2.3h1
	c0,1.8-0.3,2.8-1.1,3.2c-1.1,0.6-2.5-0.3-4.1-1.4C22.6,34.9,21.1,34,20,34C16.7,34,16,36.9,16,38z"/>
</svg>
