<?xml version="1.0" encoding="utf-8"?>
<!-- Generator: Adobe Illustrator 19.1.0, SVG Export Plug-In . SVG Version: 6.00 Build 0)  -->
<svg version="1.1" id="Layer_1" xmlns="http://www.w3.org/2000/svg" xmlns:xlink="http://www.w3.org/1999/xlink" x="0px" y="0px"
	 width="48px" height="48px" viewBox="0 0 48 48" style="enable-background:new 0 0 48 48;" xml:space="preserve">
<style type="text/css">
	.st0{fill:#A14944;}
</style>
<path class="st0" d="M19.5,37C10.4,37,3,29.6,3,20.5C3,11.4,10.4,4,19.5,4c4.5,0,8.7,1.8,11.8,5c0.4,0.4,0.4,1,0,1.4
	c-0.4,0.4-1,0.4-1.4,0C27.1,7.6,23.4,6,19.5,6C11.5,6,5,12.5,5,20.5S11.5,35,19.5,35S34,28.5,34,20.5c0-1.1-0.1-2.2-0.4-3.2
	c-0.1-0.5,0.2-1.1,0.8-1.2c0.5-0.1,1.1,0.2,1.2,0.8c0.3,1.2,0.4,2.4,0.4,3.7C36,29.6,28.6,37,19.5,37z"/>
<path class="st0" d="M41,46.8c-1,0-2-0.4-2.7-1.1l-11-11c-0.4-0.4-0.4-1,0-1.4s1-0.4,1.4,0l11,11c0.7,0.7,1.9,0.7,2.6,0
	s0.7-1.9,0-2.6l-11-11c-0.4-0.4-0.4-1,0-1.4s1-0.4,1.4,0l11,11c1.5,1.5,1.5,3.9,0,5.4C43,46.5,42,46.8,41,46.8z"/>
<path class="st0" d="M31,36.5c-0.1,0-0.3,0-0.4-0.1c-0.2-0.2-0.2-0.5,0-0.7l3-3c0.2-0.2,0.5-0.2,0.7,0s0.2,0.5,0,0.7l-3,3
	C31.3,36.5,31.1,36.5,31,36.5z"/>
<path class="st0" d="M37,43.5c-0.1,0-0.3,0-0.4-0.1c-0.2-0.2-0.2-0.5,0-0.7l4-4c0.2-0.2,0.5-0.2,0.7,0s0.2,0.5,0,0.7l-4,4
	C37.3,43.5,37.1,43.5,37,43.5z"/>
<path class="st0" d="M11.1,23.1c-0.3,0-0.7-0.1-1-0.3l-6.5-5.4c-0.2-0.2-0.2-0.5-0.1-0.7c0.2-0.2,0.5-0.2,0.7-0.1l6.5,5.4
	c0.1,0.1,0.3,0.1,0.4,0.1c0.1,0,0.3-0.1,0.3-0.2l6-9.7c0.2-0.4,0.7-0.7,1.2-0.8c0.5-0.1,1,0.2,1.3,0.6l5.6,6.8
	c0.1,0.1,0.2,0.2,0.4,0.2c0.1,0,0.3,0,0.4-0.1L43.4,1.9c0.2-0.2,0.5-0.2,0.7,0s0.2,0.5,0,0.7L27.2,19.6C26.9,19.9,26.4,20,26,20
	c-0.4,0-0.8-0.2-1.1-0.6l-5.6-6.8c-0.1-0.1-0.3-0.2-0.5-0.2c-0.2,0-0.3,0.1-0.4,0.3l-6.1,9.8c-0.2,0.4-0.6,0.6-1,0.7
	C11.3,23.1,11.2,23.1,11.1,23.1z"/>
<path class="st0" d="M44.5,11.5c-0.3,0-0.5-0.2-0.5-0.5V3.5C44,2.7,43.3,2,42.5,2H35c-0.3,0-0.5-0.2-0.5-0.5S34.7,1,35,1h7.5
	C43.9,1,45,2.1,45,3.5V11C45,11.3,44.8,11.5,44.5,11.5z"/>
</svg>
