<?xml version="1.0" encoding="utf-8"?>
<!-- Generator: Adobe Illustrator 19.1.0, SVG Export Plug-In . SVG Version: 6.00 Build 0)  -->
<svg version="1.1" id="Layer_1" xmlns="http://www.w3.org/2000/svg" xmlns:xlink="http://www.w3.org/1999/xlink" x="0px" y="0px"
	 width="48px" height="48px" viewBox="0 0 48 48" style="enable-background:new 0 0 48 48;" xml:space="preserve">
<style type="text/css">
	.st0{fill:#A14944;}
</style>
<path class="st0" d="M25.2,2L33,9.8V46H2V2H25.2 M26,0H2C0.9,0,0,0.9,0,2v44c0,1.1,0.9,2,2,2h31c1.1,0,2-0.9,2-2V9L26,0L26,0z"/>
<path class="st0" d="M33,10h-5.5C26.1,10,25,8.9,25,7.5V2h1v5.5C26,8.3,26.7,9,27.5,9H33V10z"/>
<path class="st0" d="M29,17H7c-0.3,0-0.5-0.2-0.5-0.5S6.7,16,7,16h22c0.3,0,0.5,0.2,0.5,0.5S29.3,17,29,17z"/>
<path class="st0" d="M29,20H7c-0.3,0-0.5-0.2-0.5-0.5S6.7,19,7,19h22c0.3,0,0.5,0.2,0.5,0.5S29.3,20,29,20z"/>
<path class="st0" d="M29,23H7c-0.3,0-0.5-0.2-0.5-0.5S6.7,22,7,22h22c0.3,0,0.5,0.2,0.5,0.5S29.3,23,29,23z"/>
<path class="st0" d="M29,26H7c-0.3,0-0.5-0.2-0.5-0.5S6.7,25,7,25h22c0.3,0,0.5,0.2,0.5,0.5S29.3,26,29,26z"/>
<path class="st0" d="M19,29H7c-0.3,0-0.5-0.2-0.5-0.5S6.7,28,7,28h12c0.3,0,0.5,0.2,0.5,0.5S19.3,29,19,29z"/>
<path class="st0" d="M33,41H2c-0.3,0-0.5-0.2-0.5-0.5S1.7,40,2,40h31c0.3,0,0.5,0.2,0.5,0.5S33.3,41,33,41z"/>
<path class="st0" d="M33,44H2c-0.3,0-0.5-0.2-0.5-0.5S1.7,43,2,43h31c0.3,0,0.5,0.2,0.5,0.5S33.3,44,33,44z"/>
<path class="st0" d="M44,47.8c-0.9,0-1.6-0.5-1.9-1.4L40,40.2V4c0-2.2,1.8-4,4-4s4,1.8,4,4v36.2l-2.1,6.3
	C45.7,47.3,44.9,47.8,44,47.8C44,47.8,44,47.8,44,47.8z M42,39.8l2,6l2-6V4c0-1.1-0.9-2-2-2s-2,0.9-2,2V39.8z"/>
<path class="st0" d="M46,9h-4c-0.3,0-0.5-0.2-0.5-0.5S41.7,8,42,8h4c0.3,0,0.5,0.2,0.5,0.5S46.3,9,46,9z"/>
<path class="st0" d="M46,12h-4c-0.3,0-0.5-0.2-0.5-0.5S41.7,11,42,11h4c0.3,0,0.5,0.2,0.5,0.5S46.3,12,46,12z"/>
<path class="st0" d="M46,40h-4c-0.3,0-0.5-0.2-0.5-0.5S41.7,39,42,39h4c0.3,0,0.5,0.2,0.5,0.5S46.3,40,46,40z"/>
</svg>
