<?xml version="1.0" encoding="utf-8"?>
<!-- Generator: Adobe Illustrator 19.1.0, SVG Export Plug-In . SVG Version: 6.00 Build 0)  -->
<svg version="1.1" id="Layer_1" xmlns="http://www.w3.org/2000/svg" xmlns:xlink="http://www.w3.org/1999/xlink" x="0px" y="0px"
	 width="48px" height="48px" viewBox="0 0 48 48" style="enable-background:new 0 0 48 48;" xml:space="preserve">
<style type="text/css">
	.st0{fill:#A14944;}
</style>
<path class="st0" d="M11.5,32C8.1,32,1,27.2,1,12.5C1,6.4,5.4,2,11.5,2S22,6.4,22,12.5C22,28.7,13.7,32,11.5,32z M11.5,4
	C6.5,4,3,7.5,3,12.5C3,26.9,9.8,30,11.5,30c2.3,0,8.5-4.1,8.5-17.5C20,7.5,16.5,4,11.5,4z"/>
<path class="st0" d="M10,47c-2.2,0-4-1.8-4-4c0-1.9,1.3-3.4,3-3.9V31h2v10h-1c-1.1,0-2,0.9-2,2s0.9,2,2,2c0.8,0,1.5-0.5,1.8-1.2
	l0.6-1.3l1,1c0.3,0.3,0.7,0.4,1.1,0.4c0.3,0,0.5,0,0.5-1.5c0-0.7-1-1.5-2-1.5h-1V31h2v8.1c1.6,0.4,3,1.7,3,3.4c0,1,0,3.5-2.5,3.5
	c-0.5,0-1.1-0.1-1.5-0.3C12.2,46.5,11.2,47,10,47z"/>
<path class="st0" d="M43.9,4.1c-0.4,4.3-2,5-3.5,5.6C39.1,10.2,37,11.1,37,14v0.5l0.2,0.4c0.8,1.6,1.7,3,2.4,4.2
	c1.9,3.1,3.3,5.3,3.3,9.9c0,8.2-5.3,14-7,14.9c-1.7-0.9-7-6.8-7-14.9c0-4.3,1.5-6.8,3.6-10.3c0.7-1.2,1.4-2.4,2.2-3.8l0.2-0.4V14
	c0-2.8-2.1-3.7-3.4-4.3c-1.6-0.7-3.2-1.4-3.5-5.6c4.2,0.3,5.3,1.4,5.8,1.9c0.4,0.4,1,1,2.1,1c1.1,0,1.7-0.7,2.1-1.1
	C38.6,5.4,39.6,4.3,43.9,4.1 M46,2c-9.1,0-9.1,3-10,3s-1-3-10-3c0,11.8,7,7.9,7,12c-2.9,5.5-6,8.6-6,15c0,9.9,7.1,17,9,17
	s9-7.1,9-17c0-7.1-3.2-9.4-6-15C39,9.8,46,13.9,46,2L46,2z"/>
<path class="st0" d="M33.5,37c0.3,0,0.5,0.2,0.5,0.5S33.8,38,33.5,38S33,37.8,33,37.5S33.2,37,33.5,37 M33.5,36
	c-0.8,0-1.5,0.7-1.5,1.5s0.7,1.5,1.5,1.5s1.5-0.7,1.5-1.5S34.3,36,33.5,36L33.5,36z"/>
<path class="st0" d="M42.6,34.6C41.2,32.4,38.7,31,36,31s-5.2,1.4-6.6,3.6l-0.9-0.5c1.5-2.5,4.3-4.1,7.4-4.1s5.9,1.6,7.4,4.1
	L42.6,34.6z"/>
</svg>
