<?xml version="1.0" encoding="utf-8"?>
<!-- Generator: Adobe Illustrator 19.1.0, SVG Export Plug-In . SVG Version: 6.00 Build 0)  -->
<svg version="1.1" id="Layer_1" xmlns="http://www.w3.org/2000/svg" xmlns:xlink="http://www.w3.org/1999/xlink" x="0px" y="0px"
	 width="48px" height="48px" viewBox="0 0 48 48" style="enable-background:new 0 0 48 48;" xml:space="preserve">
<style type="text/css">
	.st0{fill:#A14944;}
</style>
<path class="st0" d="M42,4c1.1,0,2,0.9,2,2v40H2V6c0-1.1,0.9-2,2-2H42 M42,2H4C1.8,2,0,3.8,0,6v40c0,1.1,0.9,2,2,2h42
	c1.1,0,2-0.9,2-2V6C46,3.8,44.2,2,42,2L42,2z"/>
<rect x="16" y="4" class="st0" width="2" height="42"/>
<rect x="18" y="27" class="st0" width="26" height="2"/>
<path class="st0" d="M13,34c-0.6,0-1-0.4-1-1V22c0-0.6,0.4-1,1-1s1,0.4,1,1v11C14,33.6,13.6,34,13,34z"/>
<path class="st0" d="M31.5,46.5c-0.3,0-0.5-0.2-0.5-0.5V29c0-0.3,0.2-0.5,0.5-0.5S32,28.7,32,29v17C32,46.3,31.8,46.5,31.5,46.5z"/>
<rect x="18" y="33" class="st0" width="26" height="1"/>
<rect x="18" y="38" class="st0" width="26" height="1"/>
<rect x="18" y="7" class="st0" width="26" height="2"/>
<rect x="25" y="9" class="st0" width="2" height="18"/>
<rect x="35" y="9" class="st0" width="2" height="18"/>
<path class="st0" d="M21.5,22.5c-0.3,0-0.5-0.2-0.5-0.5v-9c0-0.3,0.2-0.5,0.5-0.5S22,12.7,22,13v9C22,22.3,21.8,22.5,21.5,22.5z"/>
<path class="st0" d="M40.5,22.5c-0.3,0-0.5-0.2-0.5-0.5v-9c0-0.3,0.2-0.5,0.5-0.5S41,12.7,41,13v9C41,22.3,40.8,22.5,40.5,22.5z"/>
<path class="st0" d="M35,15h-8c-0.3,0-0.5-0.2-0.5-0.5S26.7,14,27,14h8c0.3,0,0.5,0.2,0.5,0.5S35.3,15,35,15z"/>
<path class="st0" d="M35,22h-8c-0.3,0-0.5-0.2-0.5-0.5S26.7,21,27,21h8c0.3,0,0.5,0.2,0.5,0.5S35.3,22,35,22z"/>
</svg>
