<?xml version="1.0" encoding="utf-8"?>
<!-- Generator: Adobe Illustrator 19.1.0, SVG Export Plug-In . SVG Version: 6.00 Build 0)  -->
<svg version="1.1" id="Layer_1" xmlns="http://www.w3.org/2000/svg" xmlns:xlink="http://www.w3.org/1999/xlink" x="0px" y="0px"
	 width="48px" height="48px" viewBox="0 0 48 48" style="enable-background:new 0 0 48 48;" xml:space="preserve">
<style type="text/css">
	.st0{fill:#A14944;}
</style>
<path class="st0" d="M41,9h-9c-0.6,0-1-0.4-1-1s0.4-1,1-1h9c1.4,0,3.6-0.9,4.1-1.8l1-3.4c0.2-0.5,0.7-0.8,1.2-0.7
	c0.5,0.2,0.8,0.7,0.7,1.2l-1,3.6C46.1,7.9,42.9,9,41,9z"/>
<path class="st0" d="M17,27c5,0,9,4,9,9s-4,9-9,9s-9-4-9-9S12,27,17,27 M17,25c-6.1,0-11,4.9-11,11s4.9,11,11,11s11-4.9,11-11
	S23.1,25,17,25L17,25z"/>
<path class="st0" d="M16,37c-2.2,0-4-1.8-4-4s1.8-4,4-4s4,1.8,4,4S18.2,37,16,37z M16,30c-1.7,0-3,1.3-3,3s1.3,3,3,3s3-1.3,3-3
	S17.7,30,16,30z"/>
<path class="st0" d="M22,42h-1c-3.1,0-5.3-6.7-6-8.7c-0.2-0.5,0.1-1.1,0.7-1.2c0.5-0.2,1.1,0.1,1.2,0.7c1.2,3.8,3.1,7.3,4,7.3h1
	c0.6,0,1,0.4,1,1S22.6,42,22,42z"/>
<path class="st0" d="M40,47H9c-1.7,0-3-1.3-3-3v-6c0-0.6,0.4-1,1-1s1,0.4,1,1v6c0,0.6,0.4,1,1,1h31c0.6,0,1-0.4,1-1v-3
	c0-1.9-2.5-3.6-3.5-4.1l-13-6c-0.5-0.2-0.7-0.8-0.5-1.3c0.2-0.5,0.8-0.7,1.3-0.5l13,6c0.2,0.1,4.6,2.4,4.6,5.9v3
	C43,45.7,41.7,47,40,47z"/>
<rect x="37.3" y="5.8" transform="matrix(0.8824 0.4705 -0.4705 0.8824 13.9737 -15.4091)" class="st0" width="1" height="28.9"/>
<rect x="35" y="6.7" transform="matrix(0.8762 0.482 -0.482 0.8762 14.126 -14.6111)" class="st0" width="1" height="27"/>
<path class="st0" d="M5,20c-3.8,0-4.9-2.5-5-3.8l0-0.1C0,12.6,3.1,11,6,11h5c3.2,0,6,1.4,6,3c0,0.5-0.2,0.9-0.5,1.2
	c-0.9,0.9-3,0.9-4.9,0.8c-0.2,0-0.4,0-0.5,0c-1.3,0-2,0.3-2,1C9,20,6.6,20,5,20z M2,16.1C2,16.5,2.4,18,5,18c2,0,2-0.2,2-1
	c0-1.9,1.5-3,4-3c0.1,0,0.4,0,0.6,0c1.7,0.1,2.6,0,3.1-0.1C14.1,13.5,12.8,13,11,13H6C5.6,13,2,13.1,2,16.1z"/>
<rect x="4.1" y="22" transform="matrix(0.4061 0.9138 -0.9138 0.4061 25.9055 5.1376)" class="st0" width="9.8" height="1"/>
<rect x="5.5" y="21" transform="matrix(0.4138 0.9104 -0.9104 0.4138 26.3141 2.134)" class="st0" width="12.1" height="1"/>
</svg>
