<?xml version="1.0" encoding="utf-8"?>
<!-- Generator: Adobe Illustrator 19.1.0, SVG Export Plug-In . SVG Version: 6.00 Build 0)  -->
<svg version="1.1" id="Layer_1" xmlns="http://www.w3.org/2000/svg" xmlns:xlink="http://www.w3.org/1999/xlink" x="0px" y="0px"
	 width="48px" height="48px" viewBox="0 0 48 48" style="enable-background:new 0 0 48 48;" xml:space="preserve">
<style type="text/css">
	.st0{fill:#A14944;}
</style>
<path class="st0" d="M29,7c1.1,0,2,0.9,2,2v1c0,1.1-0.9,2-2,2H5V7H29 M29,5H4C3.4,5,3,5.4,3,6v7c0,0.6,0.4,1,1,1h25c2.2,0,4-1.8,4-4
	V9C33,6.8,31.2,5,29,5L29,5z"/>
<path class="st0" d="M36,48C36,48,36,48,36,48l-13.1-0.1c-2.8,0-5-2.3-5-5L18,14l2,0l-0.1,28.9c0,1.7,1.3,3,3,3L36,46c0,0,0,0,0,0
	c0.8,0,1.5-0.3,2.1-0.9c0.6-0.6,0.9-1.3,0.9-2.1V19c0-0.6-0.4-1-1-1H26c-1.1,0-2-0.9-2-2v-2h2v2l12,0c1.7,0,3,1.3,3,3v24
	c0,1.3-0.5,2.6-1.5,3.5C38.6,47.5,37.3,48,36,48z"/>
<path class="st0" d="M38,14h-1c-1.7,0-3-1.3-3-3V8c0-0.6-0.4-1-1-1h-5V5h5c1.7,0,3,1.3,3,3v3c0,0.6,0.4,1,1,1h1c0.6,0,1-0.4,1-1V5
	c0-1.7-1.3-3-3-3H23c-1.7,0-3,1.3-3,3h-2c0-2.8,2.2-5,5-5h13c2.8,0,5,2.2,5,5v6C41,12.6,39.7,14,38,14z"/>
<path class="st0" d="M37,24H22c-0.3,0-0.5-0.2-0.5-0.5S21.7,23,22,23h15c0.3,0,0.5,0.2,0.5,0.5S37.3,24,37,24z"/>
<path class="st0" d="M37,27H22c-0.3,0-0.5-0.2-0.5-0.5S21.7,26,22,26h15c0.3,0,0.5,0.2,0.5,0.5S37.3,27,37,27z"/>
<path class="st0" d="M37,30H22c-0.3,0-0.5-0.2-0.5-0.5S21.7,29,22,29h15c0.3,0,0.5,0.2,0.5,0.5S37.3,30,37,30z"/>
</svg>
