<?xml version="1.0" encoding="utf-8"?>
<!-- Generator: Adobe Illustrator 19.1.0, SVG Export Plug-In . SVG Version: 6.00 Build 0)  -->
<svg version="1.1" id="Layer_1" xmlns="http://www.w3.org/2000/svg" xmlns:xlink="http://www.w3.org/1999/xlink" x="0px" y="0px"
	 width="48px" height="48px" viewBox="0 0 48 48" style="enable-background:new 0 0 48 48;" xml:space="preserve">
<style type="text/css">
	.st0{fill:#A14944;}
</style>
<path class="st0" d="M46,6v27c0,1.1-0.9,2-2,2H4c-1.1,0-2-0.9-2-2V6H46 M46,4H2C0.9,4,0,4.9,0,6v27c0,2.2,1.8,4,4,4h40
	c2.2,0,4-1.8,4-4V6C48,4.9,47.1,4,46,4L46,4z"/>
<path class="st0" d="M44,8v22H4V8H44 M45,7H3v24h42V7L45,7z"/>
<path class="st0" d="M33,44H15c-0.6,0-1-0.4-1-1s0.4-1,1-1h18c0.6,0,1,0.4,1,1S33.6,44,33,44z"/>
<path class="st0" d="M18,43c-0.1,0-0.2,0-0.4-0.1c-0.5-0.2-0.8-0.8-0.6-1.3l2-5c0.2-0.5,0.8-0.8,1.3-0.6c0.5,0.2,0.8,0.8,0.6,1.3
	l-2,5C18.8,42.8,18.4,43,18,43z"/>
<path class="st0" d="M30,43c-0.4,0-0.8-0.2-0.9-0.6l-2-5c-0.2-0.5,0-1.1,0.6-1.3c0.5-0.2,1.1,0,1.3,0.6l2,5c0.2,0.5,0,1.1-0.6,1.3
	C30.3,43,30.1,43,30,43z"/>
<path class="st0" d="M31,24.5c-0.1,0-0.3,0-0.4-0.1c-0.2-0.2-0.2-0.5,0-0.7l4.3-4.3c0.2-0.2,0.2-0.5,0-0.7l-4.3-4.3
	c-0.2-0.2-0.2-0.5,0-0.7s0.5-0.2,0.7,0l4.3,4.3c0.3,0.3,0.4,0.7,0.4,1.1s-0.2,0.8-0.4,1.1l-4.3,4.3C31.3,24.5,31.1,24.5,31,24.5z"/>
<path class="st0" d="M17,24.5c-0.1,0-0.3,0-0.4-0.1l-4.3-4.3c-0.3-0.3-0.4-0.7-0.4-1.1s0.2-0.8,0.4-1.1l4.3-4.3
	c0.2-0.2,0.5-0.2,0.7,0s0.2,0.5,0,0.7l-4.3,4.3c-0.2,0.2-0.2,0.5,0,0.7l4.3,4.3c0.2,0.2,0.2,0.5,0,0.7C17.3,24.5,17.1,24.5,17,24.5z
	"/>
<path class="st0" d="M20,27.5c-0.1,0-0.2,0-0.2-0.1c-0.2-0.1-0.3-0.4-0.2-0.7l8-16c0.1-0.2,0.4-0.3,0.7-0.2c0.2,0.1,0.3,0.4,0.2,0.7
	l-8,16C20.4,27.4,20.2,27.5,20,27.5z"/>
</svg>
