<?xml version="1.0" encoding="utf-8"?>
<!-- Generator: Adobe Illustrator 19.1.0, SVG Export Plug-In . SVG Version: 6.00 Build 0)  -->
<svg version="1.1" id="Layer_1" xmlns="http://www.w3.org/2000/svg" xmlns:xlink="http://www.w3.org/1999/xlink" x="0px" y="0px"
	 width="48px" height="48px" viewBox="0 0 48 48" style="enable-background:new 0 0 48 48;" xml:space="preserve">
<style type="text/css">
	.st0{fill:#A14944;}
</style>
<path class="st0" d="M24,4.1l11.4,3.8l0.6,0.2l0.6-0.1L44,6.1v35.1c-1.7,0.9-6.5,2.5-7.9,2.8c-1.3-0.4-6.6-2.2-11.4-3.9L24,39.9
	l-0.7,0.2c-4.7,1.7-10,3.5-11.3,3.9c-1.5-0.3-6.3-1.9-8-2.8V6.1l7.5,1.9l0.6,0.1l0.6-0.2L24,4.1 M24,2L12,6L4,4C2.9,4,2,4.9,2,6v36
	c0,1.1,9.3,4,10,4c0,0,0,0,0,0c0.8,0,12-4,12-4s11.2,4,12,4c0,0,0,0,0,0c0.8,0,10-2.9,10-4V6c0-1.1-0.9-2-2-2l-8,2L24,2L24,2z"/>
<path class="st0" d="M15,18c-0.3,0-0.5-0.1-0.7-0.3l-6-6c-0.4-0.4-0.4-1,0-1.4s1-0.4,1.4,0l6,6c0.4,0.4,0.4,1,0,1.4
	C15.5,17.9,15.3,18,15,18z"/>
<path class="st0" d="M9,18c-0.3,0-0.5-0.1-0.7-0.3c-0.4-0.4-0.4-1,0-1.4l6-6c0.4-0.4,1-0.4,1.4,0s0.4,1,0,1.4l-6,6
	C9.5,17.9,9.3,18,9,18z"/>
<path class="st0" d="M36,32c1.1,0,2,0.9,2,2s-0.9,2-2,2s-2-0.9-2-2S34.9,32,36,32 M36,30c-2.2,0-4,1.8-4,4s1.8,4,4,4s4-1.8,4-4
	S38.2,30,36,30L36,30z"/>
<path class="st0" d="M34.4,27.5c-0.2,0-0.4-0.1-0.4-0.3c-3.2-6.2-8.2-10.1-15.1-11.9c-0.3-0.1-0.4-0.3-0.4-0.6
	c0.1-0.3,0.3-0.4,0.6-0.4c7.1,1.8,12.4,6,15.8,12.4c0.1,0.2,0,0.5-0.2,0.7C34.6,27.5,34.5,27.5,34.4,27.5z"/>
<path class="st0" d="M33.9,27.7c-0.1,0-0.2,0-0.3,0l-0.1,0l-4.4-1.8c-0.3-0.1-0.4-0.4-0.3-0.7c0.1-0.3,0.4-0.4,0.7-0.3l4.4,1.8
	c0.1,0,0.2,0,0.3-0.1c0.1-0.1,0.2-0.2,0.2-0.3l0.8-4.4c0-0.3,0.3-0.5,0.6-0.4c0.3,0,0.5,0.3,0.4,0.6l-0.8,4.4
	c-0.1,0.4-0.3,0.7-0.6,1C34.5,27.7,34.2,27.7,33.9,27.7z"/>
</svg>
