<?xml version="1.0" encoding="utf-8"?>
<!-- Generator: Adobe Illustrator 19.1.0, SVG Export Plug-In . SVG Version: 6.00 Build 0)  -->
<svg version="1.1" id="Layer_1" xmlns="http://www.w3.org/2000/svg" xmlns:xlink="http://www.w3.org/1999/xlink" x="0px" y="0px"
	 width="48px" height="48px" viewBox="0 0 48 48" style="enable-background:new 0 0 48 48;" xml:space="preserve">
<style type="text/css">
	.st0{fill:#A14944;}
</style>
<path class="st0" d="M39,29H28v-2h11c3.9,0,7-3.1,7-7v-4c0-1.7-1.3-3-3-3H5c-1.7,0-3,1.3-3,3v4c0,3.9,3.1,7,7,7h10v2H9c-5,0-9-4-9-9
	v-4c0-2.8,2.2-5,5-5h38c2.8,0,5,2.2,5,5v4C48,25,44,29,39,29z"/>
<path class="st0" d="M26,23c0.6,0,1,0.4,1,1v5c0,1.7-1.3,3-3,3h-1c-1.7,0-3-1.3-3-3v-5c0-0.6,0.4-1,1-1H26 M26,22h-5
	c-1.1,0-2,0.9-2,2v5c0,2.2,1.8,4,4,4h1c2.2,0,4-1.8,4-4v-5C28,22.9,27.1,22,26,22L26,22z"/>
<path class="st0" d="M43,45H5c-1.7,0-3-1.3-3-3V25h2v17c0,0.6,0.4,1,1,1h38c0.6,0,1-0.4,1-1V25h2v17C46,43.7,44.7,45,43,45z"/>
<path class="st0" d="M19,11h-2c0-0.6-0.4-1-1-1h-2c-0.6,0-1,0.4-1,1h-2c0-1.7,1.3-3,3-3h2C17.7,8,19,9.3,19,11z"/>
<path class="st0" d="M37,11h-2c0-0.6-0.4-1-1-1h-2c-0.6,0-1,0.4-1,1h-2c0-1.7,1.3-3,3-3h2C35.7,8,37,9.3,37,11z"/>
<rect x="2" y="15" class="st0" width="44" height="1"/>
<rect x="9" y="29" class="st0" width="1" height="14"/>
<rect x="12" y="29" class="st0" width="1" height="14"/>
<rect x="35" y="29" class="st0" width="1" height="14"/>
<rect x="38" y="29" class="st0" width="1" height="14"/>
<path class="st0" d="M34,8h-2c0-1.7-1.3-3-3-3H19c-1.7,0-3,1.3-3,3h-2c0-2.8,2.2-5,5-5h10C31.8,3,34,5.2,34,8z"/>
</svg>
