<?xml version="1.0" encoding="utf-8"?>
<!-- Generator: Adobe Illustrator 19.1.0, SVG Export Plug-In . SVG Version: 6.00 Build 0)  -->
<svg version="1.1" id="Layer_1" xmlns="http://www.w3.org/2000/svg" xmlns:xlink="http://www.w3.org/1999/xlink" x="0px" y="0px"
	 width="48px" height="48px" viewBox="0 0 48 48" style="enable-background:new 0 0 48 48;" xml:space="preserve">
<style type="text/css">
	.st0{fill:#A14944;}
</style>
<path class="st0" d="M42.7,9L30.5,21.9c-0.8,0.8-1.3,1.7-1.7,2.8c-0.4-1-1-2-1.8-2.8L14.1,9H42.7 M28.8,43.4l0.5,0.3l3.8,2.3h-8.6
	l3.8-2.3L28.8,43.4 M45,7H11.7c-0.9,0-1.3,1.1-0.7,1.7l14.5,14.5c1.1,1.1,1.8,2.7,1.8,4.2V42l-6.9,4.1c-0.9,0.5-0.5,1.9,0.5,1.9
	h15.8c1,0,1.4-1.3,0.5-1.9L30.3,42V27.4c0-1.5,0.6-3,1.6-4.1L45.7,8.7C46.3,8,45.9,7,45,7L45,7z"/>
<path class="st0" d="M12.3,22c-6.1,0-11-4.9-11-11s4.9-11,11-11c4.8,0,9,3.1,10.5,7.7l-1.9,0.6C19.7,4.5,16.3,2,12.3,2c-5,0-9,4-9,9
	s4,9,9,9c2.9,0,5.5-1.3,7.2-3.6l1.6,1.2C19,20.4,15.8,22,12.3,22z"/>
<path class="st0" d="M33.3,11.5L33.3,11.5c0.3,0,0.8,0.1,1.1,0.4c0.3,0.3,0.5,0.8,0.4,1.3c-0.1,0.6-0.4,1.2-0.9,1.7
	c-0.6,0.6-1.3,0.9-2,0.9c-0.3,0-0.8-0.1-1.1-0.4c-0.3-0.3-0.5-0.8-0.4-1.3c0.1-0.6,0.4-1.2,0.9-1.7C31.9,11.8,32.6,11.5,33.3,11.5
	 M33.3,10.5c-0.9,0-1.9,0.4-2.7,1.2c-1.4,1.4-1.6,3.4-0.5,4.5c0.5,0.5,1.1,0.7,1.8,0.7c0.9,0,1.9-0.4,2.7-1.2
	c1.4-1.4,1.6-3.4,0.5-4.5C34.6,10.7,34,10.5,33.3,10.5L33.3,10.5z"/>
<path class="st0" d="M34.8,12c-0.1,0-0.3,0-0.4-0.1c-0.2-0.2-0.2-0.5,0-0.7L42,3.6c0.2-0.2,0.5-0.2,0.7,0s0.2,0.5,0,0.7l-7.5,7.5
	C35.1,12,34.9,12,34.8,12z"/>
<path class="st0" d="M28.3,18.5c-0.1,0-0.3,0-0.4-0.1c-0.2-0.2-0.2-0.5,0-0.7l2-2c0.2-0.2,0.5-0.2,0.7,0s0.2,0.5,0,0.7l-2,2
	C28.6,18.5,28.4,18.5,28.3,18.5z"/>
<path class="st0" d="M28.8,21.7L20.1,13h17.4L28.8,21.7z M22.5,14l6.3,6.3l6.3-6.3H22.5z"/>
<path class="st0" d="M12.3,18c-3.9,0-7-3.1-7-7s3.1-7,7-7c2.6,0,5,1.4,6.2,3.7l-0.9,0.5c-1-2-3.1-3.2-5.3-3.2c-3.3,0-6,2.7-6,6
	s2.7,6,6,6c2.2,0,4.2-1.2,5.2-3.1l0.9,0.5C17.2,16.6,14.8,18,12.3,18z"/>
</svg>
