<?xml version="1.0" encoding="utf-8"?>
<!-- Generator: Adobe Illustrator 19.1.0, SVG Export Plug-In . SVG Version: 6.00 Build 0)  -->
<svg version="1.1" id="Layer_1" xmlns="http://www.w3.org/2000/svg" xmlns:xlink="http://www.w3.org/1999/xlink" x="0px" y="0px"
	 width="48px" height="48px" viewBox="0 0 48 48" style="enable-background:new 0 0 48 48;" xml:space="preserve">
<style type="text/css">
	.st0{fill:#A14944;}
</style>
<path class="st0" d="M34.2,8l5.4,5.4l0.6,0.6H41h3c1.1,0,2,0.9,2,2v23c0,1.1-0.9,2-2,2H6c-2.2,0-4-1.8-4-4V18c0-2.2,1.8-4,4-4h11
	h0.8l0.6-0.6L23.8,8H34.2 M35,6H23l-6,6H6c-3.3,0-6,2.7-6,6v19c0,3.3,2.7,6,6,6h38c2.2,0,4-1.8,4-4V16c0-2.2-1.8-4-4-4h-3L35,6L35,6
	z"/>
<rect x="11" y="14" class="st0" width="1" height="27"/>
<path class="st0" d="M29,16c5.5,0,10,4.5,10,10s-4.5,10-10,10s-10-4.5-10-10S23.5,16,29,16 M29,14c-6.6,0-12,5.4-12,12s5.4,12,12,12
	s12-5.4,12-12S35.6,14,29,14L29,14z"/>
<path class="st0" d="M29,19c3.9,0,7,3.1,7,7s-3.1,7-7,7s-7-3.1-7-7S25.1,19,29,19 M29,18c-4.4,0-8,3.6-8,8s3.6,8,8,8s8-3.6,8-8
	S33.4,18,29,18L29,18z"/>
<path class="st0" d="M42.5,17c0.3,0,0.5,0.2,0.5,0.5S42.8,18,42.5,18S42,17.8,42,17.5S42.2,17,42.5,17 M42.5,16
	c-0.8,0-1.5,0.7-1.5,1.5s0.7,1.5,1.5,1.5s1.5-0.7,1.5-1.5S43.3,16,42.5,16L42.5,16z"/>
<path class="st0" d="M33,11h-7c-0.3,0-0.5-0.2-0.5-0.5S25.7,10,26,10h7c0.3,0,0.5,0.2,0.5,0.5S33.3,11,33,11z"/>
<path class="st0" d="M5.5,21H2v-1h3.5C6.3,20,7,19.3,7,18.5V14h1v4.5C8,19.9,6.9,21,5.5,21z"/>
</svg>
