<?xml version="1.0" encoding="utf-8"?>
<!-- Generator: Adobe Illustrator 19.1.0, SVG Export Plug-In . SVG Version: 6.00 Build 0)  -->
<svg version="1.1" id="Layer_1" xmlns="http://www.w3.org/2000/svg" xmlns:xlink="http://www.w3.org/1999/xlink" x="0px" y="0px"
	 width="48px" height="48px" viewBox="0 0 48 48" style="enable-background:new 0 0 48 48;" xml:space="preserve">
<style type="text/css">
	.st0{fill:#A14944;}
</style>
<path class="st0" d="M26,40c1.1,0,2,0.9,2,2v2c0,1.1-0.9,2-2,2H4c-1.1,0-2-0.9-2-2v-2c0-1.1,0.9-2,2-2H26 M26,38H4c-2.2,0-4,1.8-4,4
	v2c0,2.2,1.8,4,4,4h22c2.2,0,4-1.8,4-4v-2C30,39.8,28.2,38,26,38L26,38z"/>
<path class="st0" d="M6,42c0.6,0,1,0.4,1,1s-0.4,1-1,1s-1-0.4-1-1S5.4,42,6,42 M6,41c-1.1,0-2,0.9-2,2s0.9,2,2,2s2-0.9,2-2
	S7.1,41,6,41L6,41z"/>
<path class="st0" d="M12,42c0.6,0,1,0.4,1,1s-0.4,1-1,1s-1-0.4-1-1S11.4,42,12,42 M12,41c-1.1,0-2,0.9-2,2s0.9,2,2,2s2-0.9,2-2
	S13.1,41,12,41L12,41z"/>
<path class="st0" d="M18,42c0.6,0,1,0.4,1,1s-0.4,1-1,1s-1-0.4-1-1S17.4,42,18,42 M18,41c-1.1,0-2,0.9-2,2s0.9,2,2,2s2-0.9,2-2
	S19.1,41,18,41L18,41z"/>
<path class="st0" d="M24,42c0.6,0,1,0.4,1,1s-0.4,1-1,1s-1-0.4-1-1S23.4,42,24,42 M24,41c-1.1,0-2,0.9-2,2s0.9,2,2,2s2-0.9,2-2
	S25.1,41,24,41L24,41z"/>
<path class="st0" d="M41.4,39.9c-1.2,0-2.4-0.4-3.4-1.3L31.7,32h4.1l4.8-2.7c0.8-0.4,1.3-1.2,1.5-2.1c0.2-0.9,0.1-1.8-0.4-2.4
	l-8.2-13.3L26.1,24l1.9,3.7V31c0,1.3-0.8,2.4-2,2.8V34c0,1.7-1.3,3-3,3h-4v1h-2v-3h6c0.6,0,1-0.4,1-1v-2h1c0.6,0,1-0.4,1-1v-2.8
	L23.9,24l7.9-13.5c0.4-0.6,1-1,1.7-1c0,0,0,0,0,0c0.7,0,1.3,0.4,1.7,1l8.1,13.3c0.7,1.1,1,2.6,0.6,4c-0.4,1.4-1.3,2.7-2.5,3.4
	L36.3,34l3.1,3.2c1,0.9,2.5,1,3.6,0.2l2.5-1.7c0.3-0.2,0.4-0.5,0.4-0.8v-9.7L36.1,3.9c-0.5-1.1-1.4-1.8-2.3-1.8
	c-1-0.1-2,0.5-2.7,1.5L20.5,18H13c-1.7,0-3,1.3-3,3v6H6c-1.7,0-3,1.3-3,3v4c0,0.6,0.4,1,1,1h8v3h-2v-1H4c-1.7,0-3-1.3-3-3v-4
	c0-2.8,2.2-5,5-5h2v-4c0-2.8,2.2-5,5-5h6.5l10-13.6c1.1-1.6,2.8-2.5,4.5-2.4c1.6,0.1,3.1,1.2,3.9,3L48,24.8v10.2
	c0,1-0.5,1.9-1.3,2.5l-2.5,1.7C43.3,39.7,42.3,39.9,41.4,39.9z"/>
<rect x="12" y="35" class="st0" width="5" height="1"/>
<rect x="9" y="27" class="st0" width="1" height="8"/>
<path class="st0" d="M33.5,2C34.9,2,36,3.6,36,5.5S34.9,9,33.5,9S31,7.4,31,5.5S32.1,2,33.5,2 M33.5,1C31.6,1,30,3,30,5.5
	s1.6,4.5,3.5,4.5c1.9,0,3.5-2,3.5-4.5S35.4,1,33.5,1L33.5,1z"/>
<path class="st0" d="M45.1,26c0.5,0,0.9,0.4,0.9,1s-0.4,1-0.9,1s-0.9-0.4-0.9-1S44.6,26,45.1,26 M45.1,25c-1.1,0-1.9,0.9-1.9,2
	s0.9,2,1.9,2s1.9-0.9,1.9-2S46.1,25,45.1,25L45.1,25z"/>
<rect x="18" y="20.1" transform="matrix(0.5357 0.8444 -0.8444 0.5357 27.7608 -9.2045)" class="st0" width="8.4" height="1"/>
<path class="st0" d="M24,33h-6.5C15,33,13,31,13,28.5V18h1v10.5c0,1.9,1.6,3.5,3.5,3.5H24V33z"/>
<path class="st0" d="M16.5,32.5c-0.3,0-0.5-0.2-0.5-0.5V20c0-0.3,0.2-0.5,0.5-0.5S17,19.7,17,20v12C17,32.3,16.8,32.5,16.5,32.5z"/>
<path class="st0" d="M7,30v2H6v-2H7 M7,29H6c-0.6,0-1,0.4-1,1v2c0,0.6,0.4,1,1,1h1c0.6,0,1-0.4,1-1v-2C8,29.4,7.6,29,7,29L7,29z"/>
</svg>
