<?xml version="1.0" encoding="utf-8"?>
<!-- Generator: Adobe Illustrator 19.1.0, SVG Export Plug-In . SVG Version: 6.00 Build 0)  -->
<svg version="1.1" id="Layer_1" xmlns="http://www.w3.org/2000/svg" xmlns:xlink="http://www.w3.org/1999/xlink" x="0px" y="0px"
	 width="48px" height="48px" viewBox="0 0 48 48" style="enable-background:new 0 0 48 48;" xml:space="preserve">
<style type="text/css">
	.st0{fill:#A14944;}
</style>
<path class="st0" d="M32,19c7.2,0,13,5.8,13,13s-5.8,13-13,13s-13-5.8-13-13S24.8,19,32,19 M32,17c-8.3,0-15,6.7-15,15s6.7,15,15,15
	s15-6.7,15-15S40.3,17,32,17L32,17z"/>
<path class="st0" d="M32,22c5.5,0,10,4.5,10,10s-4.5,10-10,10s-10-4.5-10-10S26.5,22,32,22 M32,21c-6.1,0-11,4.9-11,11s4.9,11,11,11
	s11-4.9,11-11S38.1,21,32,21L32,21z"/>
<path class="st0" d="M31.8,34.2c-0.3,0-0.5-0.1-0.8-0.2l-4.3-2.6c-0.2-0.1-0.3-0.4-0.2-0.7c0.1-0.2,0.5-0.3,0.7-0.2l4.3,2.6
	c0.2,0.1,0.4,0.1,0.6-0.1l5.4-5.4c0.2-0.2,0.5-0.2,0.7,0s0.2,0.5,0,0.7l-5.4,5.4C32.6,34.1,32.2,34.2,31.8,34.2z"/>
<path class="st0" d="M15.6,42h-9c-1.1,0-2-0.9-2-2V23H3.4c-1.2,0-2.3-0.7-2.8-1.9c-0.5-1.1-0.2-2.4,0.7-3.3l3.3-3.3V5
	c0-1.1,0.9-2,2-2h5c1.1,0,2,0.9,2,2v0.6l3.9-3.9c1.2-1.2,3.1-1.2,4.2,0l9.6,9.6c0.4,0.4,0.4,1,0,1.4s-1,0.4-1.4,0l-9.6-9.6
	c-0.4-0.4-1-0.4-1.4,0l-7.3,7.3V5h-5v10.4l-3.9,3.9c-0.4,0.4-0.3,0.9-0.2,1.1C2.6,20.5,2.8,21,3.4,21h3.2v19h9c0.6,0,1,0.4,1,1
	S16.1,42,15.6,42z"/>
<path class="st0" d="M14.6,33h-1.5c-0.8,0-1.5-0.7-1.5-1.5v-8c0-0.8,0.7-1.5,1.5-1.5h3.5c0.3,0,0.5,0.2,0.5,0.5S16.9,23,16.6,23
	h-3.5c-0.3,0-0.5,0.2-0.5,0.5v8c0,0.3,0.2,0.5,0.5,0.5h1.5c0.3,0,0.5,0.2,0.5,0.5S14.9,33,14.6,33z"/>
</svg>
