<?xml version="1.0" encoding="utf-8"?>
<!-- Generator: Adobe Illustrator 19.1.0, SVG Export Plug-In . SVG Version: 6.00 Build 0)  -->
<svg version="1.1" id="Layer_1" xmlns="http://www.w3.org/2000/svg" xmlns:xlink="http://www.w3.org/1999/xlink" x="0px" y="0px"
	 width="48px" height="48px" viewBox="0 0 48 48" style="enable-background:new 0 0 48 48;" xml:space="preserve">
<style type="text/css">
	.st0{fill:#A14944;}
</style>
<path class="st0" d="M40,2v25c0,13.5-13.7,19-16,19c-1.4,0-16-4.6-16-19V2h2v2c0,2.2,1.8,4,4,4s4-1.8,4-4V2h2v2c0,2.2,1.8,4,4,4
	s4-1.8,4-4V2h2v2c0,2.2,1.8,4,4,4s4-1.8,4-4V2H40 M41,0h-4c-0.6,0-1,0.4-1,1v3c0,1.1-0.9,2-2,2s-2-0.9-2-2V1c0-0.6-0.4-1-1-1h-4
	c-0.6,0-1,0.4-1,1v3c0,1.1-0.9,2-2,2s-2-0.9-2-2V1c0-0.6-0.4-1-1-1h-4c-0.6,0-1,0.4-1,1v3c0,1.1-0.9,2-2,2s-2-0.9-2-2V1
	c0-0.6-0.4-1-1-1H7C6.4,0,6,0.4,6,1c0,0,0,12.9,0,26c0,15.1,15,21,18,21s18-5.9,18-21c0-14.1,0-26,0-26C42,0.4,41.6,0,41,0L41,0z"/>
<path class="st0" d="M37,20v7c0,11.2-10.9,15.6-13,16c-2.1-0.4-13-4.7-13-16v-7H37 M38,19c-3,0-20.1,0-28,0c0,4.3,0,8,0,8
	c0,12.3,12,16.7,14,17c2-0.3,14-4.8,14-17V19L38,19z"/>
<path class="st0" d="M29,8.9c1.3,1.3,3.1,2.1,5,2.1c1,0,2.1-0.2,3-0.7V16H11v-5.7c0.9,0.4,2,0.7,3,0.7c1.9,0,3.7-0.8,5-2.1
	c1.3,1.3,3.1,2.1,5,2.1S27.7,10.2,29,8.9 M29,7.3c-1.1,1.6-2.9,2.7-5,2.7s-3.9-1.1-5-2.7c-1.1,1.6-2.9,2.7-5,2.7
	c-1.5,0-2.9-0.6-4-1.5V17c7.8,0,19.1,0,28,0V8.5c-1.1,1-2.5,1.5-4,1.5C31.9,10,30.1,8.9,29,7.3L29,7.3z"/>
</svg>
