<?xml version="1.0" encoding="utf-8"?>
<!-- Generator: Adobe Illustrator 19.1.0, SVG Export Plug-In . SVG Version: 6.00 Build 0)  -->
<svg version="1.1" id="Layer_1" xmlns="http://www.w3.org/2000/svg" xmlns:xlink="http://www.w3.org/1999/xlink" x="0px" y="0px"
	 width="48px" height="48px" viewBox="0 0 48 48" style="enable-background:new 0 0 48 48;" xml:space="preserve">
<style type="text/css">
	.st0{fill:none;stroke:#A14944;stroke-width:2;stroke-linecap:round;stroke-miterlimit:10;}
	.st1{fill:#A14944;}
</style>
<g>
	<path class="st0" d="M7.5,20.6"/>
	<path class="st0" d="M8.3,18.8"/>
	<path class="st0" d="M13.3,13.8"/>
	<path class="st1" d="M14,14.6c-0.1,0-0.3,0-0.4-0.1c-0.5-0.2-0.7-0.8-0.5-1.3l3.3-7.6H18c0.6,0,1,0.4,1,1s-0.4,1-1,1h-0.3L14.9,14
		C14.8,14.4,14.4,14.6,14,14.6z"/>
	<polygon class="st1" points="18.5,42.6 16.3,42.6 13.1,35 14.9,34.2 17.7,40.6 18.5,40.6 	"/>
	<path class="st1" d="M8,30.6c-0.1,0-0.3,0-0.4-0.1L0,27.2v-5.3l7.6-3.3c0.5-0.2,1.1,0,1.3,0.5c0.2,0.5,0,1.1-0.5,1.3L2,23.2v2.7
		l6.4,2.7c0.5,0.2,0.7,0.8,0.5,1.3C8.8,30.4,8.4,30.6,8,30.6z"/>
	<path class="st1" d="M8,20.6c-0.3,0-0.7-0.2-0.9-0.5l-4.4-7.7l4.1-4.1l7.7,4.4c0.5,0.3,0.6,0.9,0.4,1.4c-0.3,0.5-0.9,0.6-1.4,0.4
		l-6.3-3.6l-1.9,1.9l3.6,6.3c0.3,0.5,0.1,1.1-0.4,1.4C8.3,20.5,8.2,20.6,8,20.6z"/>
	<path class="st1" d="M6.8,39.8l-4.1-4.1L7.2,29c0.3-0.5,0.9-0.6,1.4-0.3c0.5,0.3,0.6,0.9,0.3,1.4l-3.5,5.3l1.9,1.9l6.3-3.6
		c0.5-0.3,1.1-0.1,1.4,0.4s0.1,1.1-0.4,1.4L6.8,39.8z"/>
</g>
<path class="st1" d="M38.2,5.6l7.8,7.8v30.2H19v-38H38.2 M39,3.6H19c-1.1,0-2,0.9-2,2v38c0,1.1,0.9,2,2,2h27c1.1,0,2-0.9,2-2v-31
	L39,3.6L39,3.6z"/>
<path class="st1" d="M17.5,30.6c-3.6,0-6.5-2.9-6.5-6.5c0-3.6,2.9-6.5,6.5-6.5v1c-3,0-5.5,2.5-5.5,5.5s2.5,5.5,5.5,5.5V30.6z"/>
<path class="st1" d="M46,13.6h-5.5c-1.4,0-2.5-1.1-2.5-2.5V5.6h1v5.5c0,0.8,0.7,1.5,1.5,1.5H46V13.6z"/>
<path class="st1" d="M40,20.6H23c-0.3,0-0.5-0.2-0.5-0.5s0.2-0.5,0.5-0.5h17c0.3,0,0.5,0.2,0.5,0.5S40.3,20.6,40,20.6z"/>
<path class="st1" d="M40,25.6H23c-0.3,0-0.5-0.2-0.5-0.5s0.2-0.5,0.5-0.5h17c0.3,0,0.5,0.2,0.5,0.5S40.3,25.6,40,25.6z"/>
<path class="st1" d="M30,30.6h-7c-0.3,0-0.5-0.2-0.5-0.5s0.2-0.5,0.5-0.5h7c0.3,0,0.5,0.2,0.5,0.5S30.3,30.6,30,30.6z"/>
<path class="st1" d="M34,40.1C34,40.1,34,40.1,34,40.1c-0.2,0-0.3-0.1-0.4-0.2l-3-4c-0.2-0.2-0.1-0.5,0.1-0.7
	c0.2-0.2,0.5-0.1,0.7,0.1l2.6,3.5l6.6-8.5c0.2-0.2,0.5-0.3,0.7-0.1c0.2,0.2,0.3,0.5,0.1,0.7l-7,9C34.3,40,34.2,40.1,34,40.1z"/>
</svg>
