<?xml version="1.0" encoding="utf-8"?>
<!-- Generator: Adobe Illustrator 19.1.0, SVG Export Plug-In . SVG Version: 6.00 Build 0)  -->
<svg version="1.1" id="Layer_1" xmlns="http://www.w3.org/2000/svg" xmlns:xlink="http://www.w3.org/1999/xlink" x="0px" y="0px"
	 width="48px" height="48px" viewBox="0 0 48 48" style="enable-background:new 0 0 48 48;" xml:space="preserve">
<style type="text/css">
	.st0{fill:#A14944;}
</style>
<path class="st0" d="M40.5,32.5H19.4c-2.4,0-4.5-1.7-4.9-4.1l-6-22C8.4,5.8,8,5.5,7.5,5.5H5.3c-0.3,0-0.5,0.1-0.7,0.3L3.2,7.2
	c-0.4,0.4-1,0.4-1.4,0s-0.4-1,0-1.4l1.4-1.4c0.6-0.6,1.3-0.9,2.1-0.9h2.2c1.4,0,2.7,1,3,2.5l6,22c0.3,1.5,1.5,2.5,3,2.5h21.1
	c0.6,0,1,0.4,1,1S41.1,32.5,40.5,32.5z"/>
<path class="st0" d="M15.5,27.5c-0.5,0-0.9-0.4-1-0.9c-0.1-0.5,0.3-1.1,0.8-1.1l20.3-2.9c3.4-0.5,5.9-3.5,5.9-6.9v-5.2
	c0-0.6-0.4-1-1-1h-30c-0.6,0-1-0.4-1-1s0.4-1,1-1h30c1.7,0,3,1.3,3,3v5.2c0,4.4-3.2,8.2-7.6,8.9l-20.3,2.9
	C15.6,27.5,15.5,27.5,15.5,27.5z"/>
<path class="st0" d="M22,36.5c1.9,0,3.5,1.6,3.5,3.5s-1.6,3.5-3.5,3.5s-3.5-1.6-3.5-3.5S20.1,36.5,22,36.5 M22,34.5
	c-3,0-5.5,2.5-5.5,5.5s2.5,5.5,5.5,5.5s5.5-2.5,5.5-5.5S25,34.5,22,34.5L22,34.5z"/>
<path class="st0" d="M36,36.5c1.9,0,3.5,1.6,3.5,3.5s-1.6,3.5-3.5,3.5s-3.5-1.6-3.5-3.5S34.1,36.5,36,36.5 M36,34.5
	c-3,0-5.5,2.5-5.5,5.5s2.5,5.5,5.5,5.5s5.5-2.5,5.5-5.5S39,34.5,36,34.5L36,34.5z"/>
<rect x="11.5" y="12.5" class="st0" width="30" height="1"/>
</svg>
