<?xml version="1.0" encoding="utf-8"?>
<!-- Generator: Adobe Illustrator 19.1.0, SVG Export Plug-In . SVG Version: 6.00 Build 0)  -->
<svg version="1.1" id="Layer_1" xmlns="http://www.w3.org/2000/svg" xmlns:xlink="http://www.w3.org/1999/xlink" x="0px" y="0px"
	 width="48px" height="48px" viewBox="0 0 48 48" style="enable-background:new 0 0 48 48;" xml:space="preserve">
<style type="text/css">
	.st0{fill:#A14944;}
</style>
<path class="st0" d="M24,2c12.1,0,22,9.9,22,22s-9.9,22-22,22S2,36.1,2,24S11.9,2,24,2 M24,0C10.7,0,0,10.7,0,24s10.7,24,24,24
	s24-10.7,24-24S37.3,0,24,0L24,0z"/>
<path class="st0" d="M24,43c-4.5,0-8.9-1.6-12.3-4.5c-0.2-0.2-0.2-0.5-0.1-0.7s0.5-0.2,0.7-0.1C15.6,40.5,19.7,42,24,42
	c4.3,0,8.4-1.5,11.7-4.3c0.2-0.2,0.5-0.2,0.7,0.1c0.2,0.2,0.2,0.5-0.1,0.7C32.9,41.4,28.5,43,24,43z"/>
<path class="st0" d="M37.5,11.9c-0.1,0-0.3-0.1-0.4-0.2C33.7,8.1,29,6,24,6c-4.8,0-9.3,1.9-12.7,5.3c-0.2,0.2-0.5,0.2-0.7,0
	s-0.2-0.5,0-0.7C14.2,7,18.9,5,24,5c5.2,0,10.3,2.2,13.9,6c0.2,0.2,0.2,0.5,0,0.7C37.8,11.8,37.6,11.9,37.5,11.9z"/>
<g>
	<path class="st0" d="M11,28c-3.3,0-6-2.7-6-6s2.7-6,6-6s6,2.7,6,6S14.3,28,11,28z M11,17c-2.8,0-5,2.2-5,5s2.2,5,5,5s5-2.2,5-5
		S13.8,17,11,17z"/>
	<path class="st0" d="M24,28c-3.3,0-6-2.7-6-6s2.7-6,6-6s6,2.7,6,6S27.3,28,24,28z M24,17c-2.8,0-5,2.2-5,5s2.2,5,5,5s5-2.2,5-5
		S26.8,17,24,17z"/>
	<path class="st0" d="M30.5,33c-3.3,0-6-2.7-6-6s2.7-6,6-6s6,2.7,6,6S33.8,33,30.5,33z M30.5,22c-2.8,0-5,2.2-5,5s2.2,5,5,5
		s5-2.2,5-5S33.3,22,30.5,22z"/>
	<path class="st0" d="M17.5,33c-3.3,0-6-2.7-6-6s2.7-6,6-6s6,2.7,6,6S20.8,33,17.5,33z M17.5,22c-2.8,0-5,2.2-5,5s2.2,5,5,5
		s5-2.2,5-5S20.3,22,17.5,22z"/>
	<path class="st0" d="M37,28c-3.3,0-6-2.7-6-6s2.7-6,6-6s6,2.7,6,6S40.3,28,37,28z M37,17c-2.8,0-5,2.2-5,5s2.2,5,5,5s5-2.2,5-5
		S39.8,17,37,17z"/>
</g>
</svg>
