<?xml version="1.0" encoding="utf-8"?>
<!-- Generator: Adobe Illustrator 19.1.0, SVG Export Plug-In . SVG Version: 6.00 Build 0)  -->
<svg version="1.1" id="Layer_1" xmlns="http://www.w3.org/2000/svg" xmlns:xlink="http://www.w3.org/1999/xlink" x="0px" y="0px"
	 width="48px" height="48px" viewBox="0 0 48 48" style="enable-background:new 0 0 48 48;" xml:space="preserve">
<style type="text/css">
	.st0{fill:#A14944;}
</style>
<path class="st0" d="M44,13.3c1.1,0,2,0.9,2,2v27c0,1.1-0.9,2-2,2H4c-1.1,0-2-0.9-2-2v-27c0-1.1,0.9-2,2-2H44 M44,11.3H4
	c-2.2,0-4,1.8-4,4v27c0,2.2,1.8,4,4,4h40c2.2,0,4-1.8,4-4v-27C48,13,46.2,11.3,44,11.3L44,11.3z"/>
<path class="st0" d="M46,23.3v9H36c-1.7,0-3-1.3-3-3v-3c0-1.7,1.3-3,3-3H46 M47,22.3H36c-2.2,0-4,1.8-4,4v3c0,2.2,1.8,4,4,4h11V22.3
	L47,22.3z"/>
<path class="st0" d="M37.5,26.3c0.8,0,1.5,0.7,1.5,1.5s-0.7,1.5-1.5,1.5S36,28.6,36,27.8S36.7,26.3,37.5,26.3 M37.5,25.3
	c-1.4,0-2.5,1.1-2.5,2.5s1.1,2.5,2.5,2.5s2.5-1.1,2.5-2.5S38.9,25.3,37.5,25.3L37.5,25.3z"/>
<path class="st0" d="M38.5,42.3h-32c-1.4,0-2.5-1.1-2.5-2.5v-22c0-1.4,1.1-2.5,2.5-2.5h32c1.4,0,2.5,1.1,2.5,2.5v4.5h-1v-4.5
	c0-0.8-0.7-1.5-1.5-1.5h-32c-0.8,0-1.5,0.7-1.5,1.5v22c0,0.8,0.7,1.5,1.5,1.5h32c0.8,0,1.5-0.7,1.5-1.5v-6.5h1v6.5
	C41,41.1,39.9,42.3,38.5,42.3z"/>
<rect x="43" y="13.3" class="st0" width="1" height="9"/>
<rect x="43" y="33.3" class="st0" width="1" height="11"/>
<path class="st0" d="M13.5,12.8c-0.3,0-0.5-0.1-0.7-0.3c-0.4-0.4-0.4-1,0-1.4L22.9,1C24-0.2,26-0.2,27.1,1L37.2,11
	c0.4,0.4,0.4,1,0,1.4s-1,0.4-1.4,0L25.7,2.4c-0.4-0.4-1-0.4-1.4,0L14.2,12.5C14,12.7,13.7,12.8,13.5,12.8z"/>
<path class="st0" d="M31.4,12.2c-0.1,0-0.3,0-0.4-0.1L25,6l-6,6c-0.2,0.2-0.5,0.2-0.7,0s-0.2-0.5,0-0.7L25,4.5l6.8,6.8
	c0.2,0.2,0.2,0.5,0,0.7C31.7,12.1,31.6,12.2,31.4,12.2z"/>
</svg>
