<?xml version="1.0" encoding="utf-8"?>
<!-- Generator: Adobe Illustrator 19.1.0, SVG Export Plug-In . SVG Version: 6.00 Build 0)  -->
<svg version="1.1" id="Layer_1" xmlns="http://www.w3.org/2000/svg" xmlns:xlink="http://www.w3.org/1999/xlink" x="0px" y="0px"
	 width="48px" height="48px" viewBox="0 0 48 48" style="enable-background:new 0 0 48 48;" xml:space="preserve">
<style type="text/css">
	.st0{fill:#A14944;}
</style>
<path class="st0" d="M38,2c1.7,0,3,1.3,3,3v41H7V5c0-1.7,1.3-3,3-3H38 M38,0H10C7.2,0,5,2.2,5,5v41c0,1.1,0.9,2,2,2h34
	c1.1,0,2-0.9,2-2V5C43,2.2,40.8,0,38,0L38,0z"/>
<path class="st0" d="M30,34c-3.3,0-6-2.7-6-6s2.7-6,6-6v1c-2.8,0-5,2.2-5,5s2.2,5,5,5V34z"/>
<path class="st0" d="M24,21c3.9,0,7,3.1,7,7s-3.1,7-7,7s-7-3.1-7-7S20.1,21,24,21 M24,19c-5,0-9,4-9,9s4,9,9,9s9-4,9-9S29,19,24,19
	L24,19z"/>
<path class="st0" d="M24,17c6.1,0,11,4.9,11,11s-4.9,11-11,11s-11-4.9-11-11S17.9,17,24,17 M24,16c-6.6,0-12,5.4-12,12s5.4,12,12,12
	s12-5.4,12-12S30.6,16,24,16L24,16z"/>
<path class="st0" d="M24,12c8.5,0,12.8,1.9,14,2.6V43H10V14.6C11.3,13.9,15.5,12,24,12 M24,11c-10.9,0-15,3-15,3v30h30V14
	C39,14,34.9,11,24,11L24,11z"/>
<path class="st0" d="M11,8.5c-0.8,0-1.5-0.7-1.5-1.5s0.7-1.5,1.5-1.5s1.5,0.7,1.5,1.5S11.8,8.5,11,8.5z M11,6.5
	c-0.3,0-0.5,0.2-0.5,0.5s0.2,0.5,0.5,0.5s0.5-0.2,0.5-0.5S11.3,6.5,11,6.5z"/>
<path class="st0" d="M35,5c1.1,0,2,0.9,2,2s-0.9,2-2,2s-2-0.9-2-2S33.9,5,35,5 M35,4c-1.7,0-3,1.3-3,3s1.3,3,3,3s3-1.3,3-3
	S36.7,4,35,4L35,4z"/>
<path class="st0" d="M28,5c0.6,0,1,0.4,1,1v2c0,0.6-0.4,1-1,1H17c-0.6,0-1-0.4-1-1V6c0-0.6,0.4-1,1-1H28 M28,4H17c-1.1,0-2,0.9-2,2
	v2c0,1.1,0.9,2,2,2h11c1.1,0,2-0.9,2-2V6C30,4.9,29.1,4,28,4L28,4z"/>
</svg>
