<?xml version="1.0" encoding="utf-8"?>
<!-- Generator: Adobe Illustrator 19.1.0, SVG Export Plug-In . SVG Version: 6.00 Build 0)  -->
<svg version="1.1" id="Layer_1" xmlns="http://www.w3.org/2000/svg" xmlns:xlink="http://www.w3.org/1999/xlink" x="0px" y="0px"
	 width="24px" height="24px" viewBox="0 0 24 24" style="enable-background:new 0 0 24 24;" xml:space="preserve">
<style type="text/css">
	.st0{fill:#A14944;}
</style>
<g>
	<path class="st0" d="M21,0H3C1.9,0,1,0.9,1,2v21c0,0.6,0.4,1,1,1h20c0.6,0,1-0.4,1-1V2C23,0.9,22.1,0,21,0z M22,13h-4V4h4V13z
		 M22,16h-6v-2h6V16z M9,14h6v2H9V14z M17,10h-3V7h3V10z M14,11h3v2h-3V11z M17,6h-3V4h3V6z M13,13H9V4h4V13z M9,17h6v2H9V17z
		 M16,17h6v2h-6V17z M21,1c0.6,0,1,0.4,1,1v1H9V1H21z M2,23V2c0-0.6,0.4-1,1-1h5v22H2z M9,23v-3h6v3H9z M22,23h-6v-3h6V23z"/>
	<path class="st0" d="M6.5,10.5C6.2,10.5,6,10.7,6,11v5c0,0.3,0.2,0.5,0.5,0.5S7,16.3,7,16v-5C7,10.7,6.8,10.5,6.5,10.5z"/>
	<path class="st0" d="M11.5,11.5c0.3,0,0.5-0.2,0.5-0.5V6c0-0.3-0.2-0.5-0.5-0.5S11,5.7,11,6v5C11,11.3,11.2,11.5,11.5,11.5z"/>
	<path class="st0" d="M19.5,11.5c0.3,0,0.5-0.2,0.5-0.5V6c0-0.3-0.2-0.5-0.5-0.5S19,5.7,19,6v5C19,11.3,19.2,11.5,19.5,11.5z"/>
</g>
</svg>
