<?xml version="1.0" encoding="utf-8"?>
<!-- Generator: Adobe Illustrator 19.1.0, SVG Export Plug-In . SVG Version: 6.00 Build 0)  -->
<svg version="1.1" id="Layer_1" xmlns="http://www.w3.org/2000/svg" xmlns:xlink="http://www.w3.org/1999/xlink" x="0px" y="0px"
	 width="24px" height="24px" viewBox="0 0 24 24" style="enable-background:new 0 0 24 24;" xml:space="preserve">
<style type="text/css">
	.st0{fill:#A14944;}
</style>
<g>
	<path class="st0" d="M23,3H1C0.4,3,0,3.4,0,4v14c0,1.1,0.9,2,2,2h7.4l-0.9,1.8c0,0.1,0,0.1,0,0.2H7c-0.3,0-0.5,0.2-0.5,0.5
		S6.7,23,7,23h10c0.3,0,0.5-0.2,0.5-0.5S17.3,22,17,22h-1.5c0-0.1,0-0.2,0-0.2L14.6,20H22c1.1,0,2-0.9,2-2V4C24,3.4,23.6,3,23,3z
		 M13.6,20.2l0.9,1.8H9.6l0.9-1.8c0-0.1,0-0.1,0-0.2h3C13.5,20.1,13.5,20.2,13.6,20.2z M23,18c0,0.6-0.4,1-1,1H2c-0.6,0-1-0.4-1-1V4
		h22V18z"/>
	<path class="st0" d="M22,5H2v11h20V5z M21,15H3V6h18V15z"/>
	<path class="st0" d="M10.7,13.4c0.1,0,0.2,0.1,0.3,0.1c0.2,0,0.3-0.1,0.4-0.2l3-5c0.1-0.2,0.1-0.5-0.2-0.7
		c-0.2-0.1-0.5-0.1-0.7,0.2l-3,5C10.4,13,10.5,13.3,10.7,13.4z"/>
	<path class="st0" d="M16.7,13.4c0.1,0.1,0.2,0.1,0.3,0.1c0.1,0,0.3-0.1,0.4-0.2l2.3-2.8l-2.3-2.8c-0.2-0.2-0.5-0.2-0.7-0.1
		c-0.2,0.2-0.3,0.5-0.1,0.7l1.8,2.2l-1.8,2.2C16.4,12.9,16.5,13.2,16.7,13.4z"/>
	<path class="st0" d="M8,13.5c0.1,0,0.3-0.1,0.4-0.2c0.2-0.2,0.1-0.5-0.1-0.7l-2.5-2.1l2.5-2.1c0.2-0.2,0.2-0.5,0.1-0.7
		C8.2,7.5,7.9,7.4,7.7,7.6l-3.5,2.9l3.5,2.9C7.8,13.5,7.9,13.5,8,13.5z"/>
</g>
</svg>
