<?xml version="1.0" encoding="utf-8"?>
<!-- Generator: Adobe Illustrator 19.1.0, SVG Export Plug-In . SVG Version: 6.00 Build 0)  -->
<svg version="1.1" id="Layer_1" xmlns="http://www.w3.org/2000/svg" xmlns:xlink="http://www.w3.org/1999/xlink" x="0px" y="0px"
	 width="24px" height="24px" viewBox="0 0 24 24" style="enable-background:new 0 0 24 24;" xml:space="preserve">
<style type="text/css">
	.st0{fill:#A14944;}
</style>
<g>
	<circle class="st0" cx="6" cy="8" r="1"/>
	<path class="st0" d="M23.8,9c0-1.3-0.7-2.4-1.8-3.1V2c0,0-0.1-1-1-1s-4.1,6-9,6c-0.5,0-1.4,0-2,0C9.4,7,9,7,9,7c0-1.1-0.9-2-2-2H2
		C1.4,5,1,5.4,1,6v1H0v4c0,0,0.2,0,0.5,0c0.1,0,0.3,0,0.5,0c0,0.8,0.2,2,1,2c0,2,0,3,2,3c1.1,0,2,6,4,6s3.7-2.3,3-3
		c-0.7-0.7-3-1.1-3-3c0-1.1,0-3,0-3h1v-1c0,0,2.5,0,3,0c4.9,0,8,6,9,6s1-1,1-1v-4.9C23.1,11.5,23.8,10.3,23.8,9z M1.1,10
		C1.1,10,1,10,1.1,10L1,8c0.6,0,1-0.4,1-1V6h5c0.6,0,1,0.4,1,1c0,0.6,0.4,1,1,1v3c-0.6,0-1,0.4-1,1H2.1C2.1,11.9,2,11.5,2,11
		C2,10.5,1.6,10,1.1,10z M9.6,19.3c0.2,0.1,0.4,0.2,0.5,0.3C9.9,20.1,9,21,8,21c-0.5-0.1-1.3-2.2-1.7-3c-0.7-1.7-1.2-3-2.3-3
		c-1,0-1,0-1-2h4v3C7,18,8.6,18.8,9.6,19.3z M12,11h-2V8h2c3,0,5.3-1.9,7-3.6v10.2C17.3,12.9,15,11,12,11z M20.2,16
		c-0.1-0.1-0.1-0.2-0.2-0.2V3.4c0.1-0.1,0.3-0.3,0.4-0.4c0.2-0.2,0.4-0.5,0.6-0.7l0,14.6C20.8,16.6,20.5,16.3,20.2,16z M22,10.8V7.2
		c0.5,0.5,0.8,1.1,0.8,1.8C22.8,9.7,22.5,10.4,22,10.8z"/>
</g>
</svg>
