<?xml version="1.0" encoding="utf-8"?>
<!-- Generator: Adobe Illustrator 19.1.0, SVG Export Plug-In . SVG Version: 6.00 Build 0)  -->
<svg version="1.1" id="Layer_1" xmlns="http://www.w3.org/2000/svg" xmlns:xlink="http://www.w3.org/1999/xlink" x="0px" y="0px"
	 width="24px" height="24px" viewBox="0 0 24 24" style="enable-background:new 0 0 24 24;" xml:space="preserve">
<style type="text/css">
	.st0{fill:#A14944;}
</style>
<g>
	<path class="st0" d="M6,1H5C2.2,1,0,3.1,0,6s2,4.1,2,7c0,2.1,0.6,2.7,2,2.9V18c-1.1,0.2-2,1.2-2,2.5v1C2,22.9,3.1,24,4.5,24h2
		C7.9,24,9,22.9,9,21.5v-1c0-1.2-0.9-2.2-2-2.5v-2.1c1.4-0.2,2-0.8,2-2.9c0-2.9,2-4.1,2-7S8.8,1,6,1z M6.5,19C7.3,19,8,19.7,8,20.5
		v1C8,22.3,7.3,23,6.5,23h-2C3.7,23,3,22.3,3,21.5v-1C3,19.7,3.7,19,4.5,19H5v-3v0c0.2,0,0.4,0,0.5,0c0.2,0,0.3,0,0.5,0v0v3H6.5z
		 M9.1,9C8.6,10.1,8,11.3,8,13c0,1.9-0.3,2-2.5,2C3.3,15,3,14.9,3,13c0-1.7-0.6-2.9-1.1-3.9C1.4,8.1,1,7.2,1,6c0-2.3,1.7-4,4-4h1
		c2.3,0,4,1.7,4,4C10,7.2,9.6,8,9.1,9z"/>
	<path class="st0" d="M5.5,16c-0.2,0-0.4,0-0.5,0h1C5.8,16,5.7,16,5.5,16z"/>
	<path class="st0" d="M23.5,18.9C23.8,18,24,17,24,16c0-3.3-1-5.9-2.9-7.6l2.4-4.2c0.4-0.6,0.3-1.4-0.2-1.9
		c-0.5-0.5-1.3-0.6-1.9-0.1l-1,0.7c-0.9,0.6-2.1,0.6-3,0l-1-0.7c-0.6-0.4-1.4-0.4-1.9,0.1c-0.5,0.5-0.6,1.3-0.2,1.9l2.4,4.2
		C14.9,10.2,14,12.7,14,16c0,4.9,3.7,8,5,8c1,0,3.4-1.9,4.5-5C23.5,19,23.5,18.9,23.5,18.9z M17.8,8.9C18,8.7,18,8.4,17.8,8.2
		c0,0,0,0-0.1-0.1l-2.5-4.4c-0.2-0.3,0-0.6,0.1-0.6c0.1,0,0.3-0.3,0.6,0l1,0.7c1.2,0.9,2.9,0.9,4.1,0L22,3c0.3-0.2,0.6,0,0.6,0
		c0,0,0.3,0.3,0,0.7l-2.6,4.5c0,0,0,0,0,0c-0.1,0.2-0.1,0.4,0,0.6c0,0,0,0,0,0c0,0,0,0.1,0.1,0.1C22,10.4,23,12.8,23,16
		c0,0.6-0.1,1.1-0.2,1.6C22,16.6,20.6,16,19,16c-1.6,0-3,0.6-3.9,1.5c-0.1-0.5-0.1-1-0.1-1.5C15,12.8,15.9,10.4,17.8,8.9z M19,23
		c-0.5,0-2.6-1.5-3.5-4.2c0.6-1.1,1.9-1.8,3.5-1.8c1.6,0,2.9,0.7,3.5,1.8C21.5,21.5,19.5,23,19,23z"/>
	<circle class="st0" cx="17.5" cy="19.5" r="0.5"/>
</g>
</svg>
