<?xml version="1.0" encoding="utf-8"?>
<!-- Generator: Adobe Illustrator 19.1.0, SVG Export Plug-In . SVG Version: 6.00 Build 0)  -->
<svg version="1.1" id="Layer_1" xmlns="http://www.w3.org/2000/svg" xmlns:xlink="http://www.w3.org/1999/xlink" x="0px" y="0px"
	 width="24px" height="24px" viewBox="0 0 24 24" style="enable-background:new 0 0 24 24;" xml:space="preserve">
<style type="text/css">
	.st0{fill:#A14944;}
</style>
<path class="st0" d="M24,8.5C24,7.1,22.9,6,21.5,6H20c0-1.1-0.9-2-2-2h-1V3.5C17,2.1,15.9,1,14.5,1h-5C8.1,1,7,2.1,7,3.5V4H6
	C4.9,4,4,4.9,4,6H2.5C1.1,6,0,7.1,0,8.5v2c0,1.2,0.5,2.3,1.2,3.1C1.1,13.7,1,13.8,1,14v7.5C1,22.3,1.7,23,2.5,23h19
	c0.8,0,1.5-0.7,1.5-1.5V14c0-0.2-0.1-0.3-0.2-0.4c0.8-0.8,1.2-1.9,1.2-3.1V8.5z M18,5c0.6,0,1,0.4,1,1h-5c0-0.6,0.4-1,1-1H18z
	 M8,3.5C8,2.7,8.7,2,9.5,2h5C15.3,2,16,2.7,16,3.5V4h-1c-1.1,0-2,0.9-2,2h-2c0-1.1-0.9-2-2-2H8V3.5z M6,5h3c0.6,0,1,0.4,1,1H5
	C5,5.4,5.4,5,6,5z M2.5,22C2.2,22,2,21.8,2,21.5v-7.3c0.6,0.4,1.3,0.6,2,0.7c0,0,0,0,0,0v7H2.5z M5,22v-7h1v7H5z M7,22v-7h2
	c0,1.7,1.3,3,3,3s3-1.3,3-3h2v7H7z M10,15v-3h4v3c0,1.1-0.9,2-2,2S10,16.1,10,15z M18,22v-7h1v7H18z M21.5,22H20v-7c0,0,0,0,0,0
	c0.7-0.1,1.4-0.3,2-0.7v7.3C22,21.8,21.8,22,21.5,22z M23,10.5c0,1.9-1.6,3.5-3.5,3.5H15v-2c0-0.6-0.4-1-1-1h-4c-0.6,0-1,0.4-1,1v2
	H4.5C2.6,14,1,12.4,1,10.5v-2C1,7.7,1.7,7,2.5,7h19C22.3,7,23,7.7,23,8.5V10.5z"/>
</svg>
