<?xml version="1.0" encoding="utf-8"?>
<!-- Generator: Adobe Illustrator 19.1.0, SVG Export Plug-In . SVG Version: 6.00 Build 0)  -->
<svg version="1.1" id="Layer_1" xmlns="http://www.w3.org/2000/svg" xmlns:xlink="http://www.w3.org/1999/xlink" x="0px" y="0px"
	 width="24px" height="24px" viewBox="0 0 24 24" style="enable-background:new 0 0 24 24;" xml:space="preserve">
<style type="text/css">
	.st0{fill:#A14944;}
</style>
<g>
	<path class="st0" d="M22.1,5L21,5l-2.4-2.4C18.2,2.2,17.7,2,17.2,2h-4.3c-0.5,0-1,0.2-1.4,0.6L9,5H4C1.8,5,0,6.8,0,9v8
		c0,2.2,1.8,4,4,4h18c1.1,0,2-0.9,2-2V7C24,5.9,23.1,5.1,22.1,5z M4,20c-1.7,0-3-1.3-3-3V9c0-1.7,1.3-3,3-3h1v14H4z M23,19
		c0,0.6-0.4,1-1,1H6V6h3h0.4l0.3-0.3l2.4-2.4C12.3,3.1,12.6,3,12.8,3h4.3c0.3,0,0.5,0.1,0.7,0.3l2.4,2.4L20.6,6L21,6L22,6
		c0.5,0,1,0.5,1,1V19z"/>
	<path class="st0" d="M14.5,6C10.9,6,8,8.9,8,12.5s2.9,6.5,6.5,6.5s6.5-2.9,6.5-6.5S18.1,6,14.5,6z M14.5,18c-3,0-5.5-2.5-5.5-5.5
		S11.5,7,14.5,7S20,9.5,20,12.5S17.5,18,14.5,18z"/>
	<path class="st0" d="M14.5,9c-1.9,0-3.5,1.6-3.5,3.5c0,1.9,1.6,3.5,3.5,3.5s3.5-1.6,3.5-3.5C18,10.6,16.4,9,14.5,9z M14.5,15
		c-1.4,0-2.5-1.1-2.5-2.5c0-1.4,1.1-2.5,2.5-2.5s2.5,1.1,2.5,2.5C17,13.9,15.9,15,14.5,15z"/>
	<path class="st0" d="M14,5h2c0.3,0,0.5-0.2,0.5-0.5S16.3,4,16,4h-2c-0.3,0-0.5,0.2-0.5,0.5S13.7,5,14,5z"/>
</g>
</svg>
