<?xml version="1.0" encoding="utf-8"?>
<!-- Generator: Adobe Illustrator 19.1.0, SVG Export Plug-In . SVG Version: 6.00 Build 0)  -->
<svg version="1.1" id="Layer_1" xmlns="http://www.w3.org/2000/svg" xmlns:xlink="http://www.w3.org/1999/xlink" x="0px" y="0px"
	 width="24px" height="24px" viewBox="0 0 24 24" style="enable-background:new 0 0 24 24;" xml:space="preserve">
<style type="text/css">
	.st0{fill:#A14944;}
</style>
<path class="st0" d="M24,3h-3.7l1.5-1.1c0.2-0.2,0.3-0.5,0.1-0.7c-0.2-0.2-0.5-0.3-0.7-0.1L18.5,3h-7.1C10.4,1.2,8.2,0,6,0
	C2.7,0,0,2.7,0,6s2.7,6,6,6c2.2,0,4.3-1.2,5.4-2.9L14,12v9l-3,3h8l-3-3v-9L24,3z M6,11c-2.8,0-5-2.2-5-5s2.2-5,5-5
	c1.6,0,3.3,0.8,4.2,2H8.4C7.8,2.5,7.1,2,6,2C3.8,2,2,3.8,2,6s1.8,4,4,4c1.8,0,3.1-1.2,3.6-3l1.1,1.2C9.8,9.9,8,11,6,11z M8.9,6.2
	C8.8,6.3,8.7,6.4,8.7,6.5C8.5,8,7.4,9,6,9C4.3,9,3,7.7,3,6s1.3-3,3-3L8.9,6.2z M16.6,23h-3.2l1.3-1.3c0.2-0.2,0.3-0.4,0.3-0.7
	c0,0.3,0.1,0.5,0.3,0.7L16.6,23z M15.3,11.3C15.1,11.5,15,11.8,15,12c0-0.2-0.1-0.5-0.3-0.7L8.2,4h8.9l-1.8,1.3H11l3.2,4
	c0.2,0.3,0.5,0.4,0.8,0.4s0.6-0.1,0.8-0.4l3.2-4h-1.9L18.9,4h2.9L15.3,11.3z M14.1,6.8C14.2,6.9,14.3,7,14.5,7c0.1,0,0.2,0,0.3-0.1
	l0.9-0.7h1.2L15,8.6l-1.9-2.4h1C14,6.4,14,6.6,14.1,6.8z"/>
</svg>
