<?xml version="1.0" encoding="utf-8"?>
<!-- Generator: Adobe Illustrator 19.1.0, SVG Export Plug-In . SVG Version: 6.00 Build 0)  -->
<svg version="1.1" id="Layer_1" xmlns="http://www.w3.org/2000/svg" xmlns:xlink="http://www.w3.org/1999/xlink" x="0px" y="0px"
	 width="24px" height="24px" viewBox="0 0 24 24" style="enable-background:new 0 0 24 24;" xml:space="preserve">
<style type="text/css">
	.st0{fill:#A14944;}
</style>
<g>
	<path class="st0" d="M12,18c-1.7,0-3,1.3-3,3s1.3,3,3,3s3-1.3,3-3S13.7,18,12,18z M12,23c-1.1,0-2-0.9-2-2c0-1.1,0.9-2,2-2
		s2,0.9,2,2C14,22.1,13.1,23,12,23z"/>
	<path class="st0" d="M19,18c-1.7,0-3,1.3-3,3s1.3,3,3,3s3-1.3,3-3S20.7,18,19,18z M19,23c-1.1,0-2-0.9-2-2c0-1.1,0.9-2,2-2
		s2,0.9,2,2C21,22.1,20.1,23,19,23z"/>
	<path class="st0" d="M23,9.8V6.5C23,5.7,22.3,5,21.5,5h-15c0,0,0,0-0.1,0L5.9,3.7C5.6,2.7,4.6,2,3.5,2C2.1,2,1,3.1,1,4.5V5
		c0,0.3,0.2,0.5,0.5,0.5S2,5.3,2,5V4.5C2,3.7,2.7,3,3.6,3C4.2,3,4.8,3.4,5,4l3.8,10.7c0.5,1.4,1.8,2.3,3.3,2.3H22
		c0.3,0,0.5-0.2,0.5-0.5S22.3,16,22,16h-9.9c-0.8,0-1.6-0.4-2-1l8.8-0.7C21.2,14.1,23,12.1,23,9.8z M21.5,6C21.8,6,22,6.2,22,6.5V7
		H7.1L6.8,6H21.5z M9.6,14L7.5,8H22v1.8c0,1.8-1.4,3.3-3.2,3.5L9.6,14z"/>
</g>
</svg>
