<?xml version="1.0" encoding="utf-8"?>
<!-- Generator: Adobe Illustrator 19.1.0, SVG Export Plug-In . SVG Version: 6.00 Build 0)  -->
<svg version="1.1" id="Layer_1" xmlns="http://www.w3.org/2000/svg" xmlns:xlink="http://www.w3.org/1999/xlink" x="0px" y="0px"
	 width="24px" height="24px" viewBox="0 0 24 24" style="enable-background:new 0 0 24 24;" xml:space="preserve">
<style type="text/css">
	.st0{fill:#A14944;}
</style>
<g>
	<path class="st0" d="M20,0H4C2.9,0,2,0.9,2,2v21c0,0.6,0.4,1,1,1h18c0.6,0,1-0.4,1-1V2C22,0.9,21.1,0,20,0z M21,23H3V2
		c0-0.6,0.4-1,1-1h16c0.6,0,1,0.4,1,1V23z"/>
	<path class="st0" d="M19.2,7.4C17.9,6.5,15.3,5,12,5C9,5,6.5,5.8,5.2,6.4C4.5,6.7,4,7.4,4,8.2V20c0,1.1,0.9,2,2,2h12
		c1.1,0,2-0.9,2-2V9C20,8.3,19.7,7.7,19.2,7.4z M19,20c0,0.6-0.4,1-1,1H6c-0.6,0-1-0.4-1-1V8.2c0-0.4,0.2-0.8,0.6-0.9
		C7,6.7,9.2,6,12,6c3.1,0,5.5,1.4,6.6,2.2C18.8,8.3,19,8.6,19,9V20z"/>
	<circle class="st0" cx="5.5" cy="3.5" r="0.5"/>
	<circle class="st0" cx="7.5" cy="3.5" r="0.5"/>
	<path class="st0" d="M18.5,2C17.7,2,17,2.7,17,3.5S17.7,5,18.5,5S20,4.3,20,3.5S19.3,2,18.5,2z M18.5,4C18.2,4,18,3.8,18,3.5
		S18.2,3,18.5,3S19,3.2,19,3.5S18.8,4,18.5,4z"/>
	<path class="st0" d="M12,8c-3.3,0-6,2.7-6,6s2.7,6,6,6s6-2.7,6-6S15.3,8,12,8z M12,19c-2.8,0-5-2.2-5-5s2.2-5,5-5s5,2.2,5,5
		S14.8,19,12,19z"/>
	<path class="st0" d="M13.8,12c0.3,0,0.5-0.2,0.5-0.5S14,11,13.8,11c-1.7,0-3,1.3-3,3s1.3,3,3,3c0.3,0,0.5-0.2,0.5-0.5
		S14,16,13.8,16c-1.1,0-2-0.9-2-2C11.8,12.9,12.6,12,13.8,12z"/>
	<path class="st0" d="M10,4h4c0.3,0,0.5-0.2,0.5-0.5S14.3,3,14,3h-4C9.7,3,9.5,3.2,9.5,3.5S9.7,4,10,4z"/>
</g>
</svg>
