<?xml version="1.0" encoding="utf-8"?>
<!-- Generator: Adobe Illustrator 19.1.0, SVG Export Plug-In . SVG Version: 6.00 Build 0)  -->
<svg version="1.1" id="Layer_1" xmlns="http://www.w3.org/2000/svg" xmlns:xlink="http://www.w3.org/1999/xlink" x="0px" y="0px"
	 width="24px" height="24px" viewBox="0 0 24 24" style="enable-background:new 0 0 24 24;" xml:space="preserve">
<style type="text/css">
	.st0{fill:#A14944;}
</style>
<g>
	<path class="st0" d="M18,4l-6-3L6,4L1,2v19l5,2l6-3l6,3l5-2V2L18,4z M22,20.3l-4,1.6l-5.6-2.8C12.3,19,12.2,19,12,19
		s-0.3,0-0.4,0.1L6,21.9l-4-1.6V3.5l3.6,1.5C5.7,5,5.9,5,6,5c0.2,0,0.3,0,0.4-0.1L12,2.1l5.6,2.8C17.7,5,17.8,5,18,5
		c0.1,0,0.3,0,0.4-0.1L22,3.5V20.3z"/>
	<path class="st0" d="M8.4,6.6c-0.2-0.2-0.5-0.2-0.7,0L6,8.3L4.4,6.6c-0.2-0.2-0.5-0.2-0.7,0s-0.2,0.5,0,0.7L5.3,9l-1.6,1.6
		c-0.2,0.2-0.2,0.5,0,0.7c0.1,0.1,0.2,0.1,0.4,0.1s0.3,0,0.4-0.1L6,9.7l1.6,1.6c0.1,0.1,0.2,0.1,0.4,0.1s0.3,0,0.4-0.1
		c0.2-0.2,0.2-0.5,0-0.7L6.7,9l1.6-1.6C8.5,7.2,8.5,6.8,8.4,6.6z"/>
	<path class="st0" d="M15,17c0,1.7,1.3,3,3,3s3-1.3,3-3s-1.3-3-3-3S15,15.3,15,17z M20,17c0,1.1-0.9,2-2,2s-2-0.9-2-2s0.9-2,2-2
		S20,15.9,20,17z"/>
	<path class="st0" d="M17,12.5V9c0-0.3-0.2-0.5-0.5-0.5S16,8.7,16,9v2.2c-1.9-1.6-4.2-2.7-6.6-3c-0.3,0-0.5,0.1-0.6,0.4
		c0,0.3,0.1,0.5,0.4,0.6c2.3,0.3,4.4,1.3,6.2,2.9h-2.2c-0.3,0-0.5,0.2-0.5,0.5S13,13,13.3,13h3.3C16.8,13,17,12.8,17,12.5z"/>
</g>
</svg>
