<?xml version="1.0" encoding="utf-8"?>
<!-- Generator: Adobe Illustrator 19.1.0, SVG Export Plug-In . SVG Version: 6.00 Build 0)  -->
<svg version="1.1" id="Layer_1" xmlns="http://www.w3.org/2000/svg" xmlns:xlink="http://www.w3.org/1999/xlink" x="0px" y="0px"
	 width="24px" height="24px" viewBox="0 0 24 24" style="enable-background:new 0 0 24 24;" xml:space="preserve">
<style type="text/css">
	.st0{fill:#A14944;}
</style>
<g>
	<path class="st0" d="M16.9,3.5c0,0,0.1,0,0.1,0c0.8,0,1.5-0.7,1.5-1.5S17.8,0.5,17,0.5c0,0-0.1,0-0.1,0C16.7,0.2,16.4,0,16,0H7
		C5.9,0,5,0.9,5,2c0,1.1,0.9,2,2,2v18.5C7,23.3,7.7,24,8.5,24h8c0.8,0,1.5-0.7,1.5-1.5v-4.8c0-1.3-0.6-2.6-1.6-3.4
		C15.1,13.2,13,10.5,13,4h1c0,6.3,2.7,7.4,2.8,7.5c0.1,0,0.1,0,0.2,0c0.2,0,0.4-0.1,0.5-0.3c0.1-0.3,0-0.5-0.3-0.7
		c0,0-2.2-1-2.2-6.5h1C16.4,4,16.7,3.8,16.9,3.5z M17.5,2c0,0.3-0.2,0.5-0.5,0.5v-1C17.3,1.5,17.5,1.7,17.5,2z M15.8,15
		c0.8,0.7,1.2,1.6,1.2,2.7v4.8c0,0.3-0.2,0.5-0.5,0.5h-8C8.2,23,8,22.8,8,22.5V6h4c0,0,0,0,0.1,0C12.4,11.2,14.2,13.8,15.8,15z
		 M12,5C12,5,12,5,12,5L8,5V4h4C12,4.3,12,4.7,12,5z M7,3C6.4,3,6,2.6,6,2s0.4-1,1-1h9v2H7z"/>
	<path class="st0" d="M9.5,7.5C9.2,7.5,9,7.7,9,8v13c0,0.3,0.2,0.5,0.5,0.5S10,21.3,10,21V8C10,7.7,9.8,7.5,9.5,7.5z"/>
</g>
</svg>
